<?xml version="1.0" encoding="UTF-8"?>
<svg width="403px" height="416px" viewBox="0 0 403 416" version="1.1" xmlns="http://www.w3.org/2000/svg" xmlns:xlink="http://www.w3.org/1999/xlink">
    <title>Group Chat-bro</title>
    <g id="Page-1" stroke="none" stroke-width="1" fill="none" fill-rule="evenodd">
        <g id="Desktop-HD" transform="translate(-1037.000000, -841.000000)">
            <g id="Group-Chat-bro" transform="translate(1038.000000, 841.000000)">
                <g id="freepik--Device--inject-10" transform="translate(106.000000, 45.000000)">
                    <rect id="Rectangle" fill="#1B212B" fill-rule="nonzero" x="0.14" y="0.07" width="189.09" height="369" rx="14.52"></rect>
                    <g id="Group">
                        <path d="M16.43,0.07 C12.1078902,0.07 7.96294878,1.78763476 4.90769356,4.84476553 C1.85243833,7.90189629 0.137346771,12.047891 0.139984759,16.37 L0.139984759,352.77 C0.133395971,357.597262 2.27332177,362.177583 5.98,365.27 L116.3,0.07 L16.43,0.07 Z" id="Path" fill="#FFFFFF" fill-rule="nonzero" opacity="0.2"></path>
                        <path d="M101.100031,358.4 C101.100031,355.798398 99.5322934,353.453157 97.1283392,352.458504 C94.7243849,351.463851 91.9579444,352.01581 90.1197665,353.856851 C88.2815885,355.697892 87.7339361,358.465188 88.7323295,360.867591 C89.7307229,363.269995 92.0784016,364.834046 94.68,364.830008 C96.3852408,364.832669 98.0212615,364.15576 99.2261116,362.949034 C100.430962,361.742307 101.105323,360.105235 101.100031,358.4 L101.100031,358.4 Z" id="Path" stroke="#FFFFFF" stroke-linecap="round" stroke-linejoin="round"></path>
                    </g>
                    <rect id="Rectangle" stroke="#263238" stroke-linecap="round" stroke-linejoin="round" x="0.14" y="0.07" width="189.09" height="369" rx="14.52"></rect>
                    <rect id="Rectangle" stroke="#263238" fill="#FFFFFF" fill-rule="nonzero" stroke-linecap="round" stroke-linejoin="round" x="8.54" y="25.13" width="172.27" height="322.04"></rect>
                    <rect id="Rectangle" stroke="#263238" stroke-width="0.821067" stroke-linecap="round" stroke-linejoin="round" x="160.67" y="28.47" width="14.28" height="7.83"></rect>
                    <rect id="Rectangle" stroke="#263238" stroke-width="0.725073" fill="#263238" fill-rule="nonzero" stroke-linecap="round" stroke-linejoin="round" x="160.67" y="28.47" width="11.14" height="7.83"></rect>
                    <rect id="Rectangle" stroke="#263238" stroke-width="0.725073" fill="#263238" fill-rule="nonzero" stroke-linecap="round" stroke-linejoin="round" x="174.92" y="30.66" width="2.01" height="3.45"></rect>
                    <rect id="Rectangle" stroke="#263238" stroke-width="0.883086" fill="#263238" fill-rule="nonzero" stroke-linecap="round" stroke-linejoin="round" x="12.42" y="30.9" width="2.62" height="4.49"></rect>
                    <rect id="Rectangle" stroke="#263238" stroke-width="0.883086" fill="#263238" fill-rule="nonzero" stroke-linecap="round" stroke-linejoin="round" x="16.54" y="29.32" width="2.62" height="6.07"></rect>
                    <rect id="Rectangle" stroke="#263238" stroke-width="0.883086" fill="#263238" fill-rule="nonzero" stroke-linecap="round" stroke-linejoin="round" x="20.65" y="27.46" width="2.62" height="7.93"></rect>
                    <rect id="Rectangle" fill="#F2C30E" fill-rule="nonzero" x="11.32" y="40.66" width="165.42" height="12.44"></rect>
                </g>
                <g id="freepik--text-balloons--inject-10" transform="translate(123.000000, 112.000000)" fill-rule="nonzero">
                    <path d="M149.84,150.709801 L99,150.709801 C95.5316518,150.709801 92.72,153.521652 92.72,156.99 L92.72,163.23 L80.16,168.88 L92.72,172.25 L92.72,176.15 C92.72,179.618348 95.5316518,182.43 99,182.43 L149.89,182.43 C153.358348,182.43 156.170008,179.618348 156.170008,176.15 L156.170008,157 C156.172722,155.324008 155.505399,153.716462 154.316542,152.535118 C153.127685,151.353773 151.515941,150.696654 149.84,150.709801 L149.84,150.709801 Z" id="Path" stroke="#263238" fill="#FFFFFF"></path>
                    <path d="M115.520019,167.08 C115.520019,168.152733 114.873253,169.119646 113.881788,169.529223 C112.890322,169.9388 111.74973,169.710238 110.992628,168.950269 C110.235526,168.190299 110.011279,167.04885 110.424601,166.058941 C110.837923,165.069031 111.807274,164.425952 112.88,164.429981 C113.581908,164.429981 114.254922,164.709509 114.750306,165.20677 C115.245691,165.704031 115.522659,166.378097 115.520019,167.08 Z" id="Path" fill="#263238"></path>
                    <path d="M127.080019,167.08 C127.074482,168.536717 125.890082,169.713667 124.433359,169.71 C122.976636,169.706316 121.798189,168.523406 121.800019,167.066679 C121.801853,165.609953 122.983272,164.43 124.44,164.43 C125.141908,164.43 125.814922,164.709509 126.310306,165.20677 C126.805691,165.704031 127.082659,166.378097 127.080019,167.08 Z" id="Path" fill="#263238"></path>
                    <path d="M138.65,167.08 C138.65,168.543555 137.463555,169.73 136,169.73 C134.536445,169.73 133.35,168.543555 133.35,167.08 C133.35,165.616445 134.536445,164.43 136,164.43 C137.463555,164.43 138.65,165.616445 138.65,167.08 L138.65,167.08 Z" id="Path" fill="#263238"></path>
                    <path d="M149.84,0.709800608 L99,0.709800608 C95.5355533,0.709800608 92.7255166,3.51555766 92.72,6.98 L92.72,13.23 L80.16,18.88 L92.72,22.25 L92.72,26.15 C92.72,29.6183482 95.5316518,32.43 99,32.43 L149.89,32.43 C153.358348,32.43 156.170008,29.6183482 156.170008,26.15 L156.170008,7 C156.172722,5.32400847 155.505399,3.7164621 154.316542,2.53511778 C153.127685,1.35377346 151.515941,0.696653891 149.84,0.709800608 L149.84,0.709800608 Z" id="Path" stroke="#263238" fill="#FFFFFF"></path>
                    <path d="M115.520019,17.08 C115.520019,18.1527333 114.873253,19.1196461 113.881788,19.5292229 C112.890322,19.9387997 111.74973,19.7102381 110.992628,18.9502685 C110.235526,18.190299 110.011279,17.0488504 110.424601,16.0589406 C110.837923,15.0690308 111.807274,14.4259519 112.88,14.429981 C113.581908,14.429981 114.254922,14.7095093 114.750306,15.2067703 C115.245691,15.7040312 115.522659,16.3780974 115.520019,17.08 Z" id="Path" fill="#263238"></path>
                    <path d="M127.080019,17.08 C127.074482,18.5367172 125.890082,19.7136667 124.433359,19.7100002 C122.976636,19.7063165 121.798189,18.5234058 121.800019,17.0666793 C121.801853,15.6099527 122.983272,14.43 124.44,14.43 C125.141908,14.43 125.814922,14.7095093 126.310306,15.2067703 C126.805691,15.7040312 127.082659,16.3780974 127.080019,17.08 Z" id="Path" fill="#263238"></path>
                    <path d="M138.65,17.08 C138.65,18.5435546 137.463555,19.73 136,19.73 C134.536445,19.73 133.35,18.5435546 133.35,17.08 C133.35,15.6164454 134.536445,14.43 136,14.43 C137.463555,14.43 138.65,15.6164454 138.65,17.08 L138.65,17.08 Z" id="Path" fill="#263238"></path>
                    <path d="M6.39,232 L57.28,232 C60.7483482,232 63.56,234.811652 63.56,238.28 L63.56,244.52 L76.12,250.17 L63.56,253.54 L63.56,257.44 C63.56,260.908348 60.7483482,263.72 57.28,263.72 L6.39,263.72 C2.92165177,263.72 0.109872431,260.908348 0.109872431,257.44 L0.109872431,238.32 C0.0993470492,236.647521 0.756282161,235.039883 1.93516723,233.853489 C3.1140523,232.667095 4.71748678,232 6.39,232 Z" id="Path" stroke="#263238" fill="#FFFFFF"></path>
                    <path d="M40.7099811,248.41 C40.7059561,249.483634 41.350121,250.453616 42.3412612,250.866348 C43.3324014,251.27908 44.4746348,251.052994 45.2338142,250.293814 C45.9929936,249.534635 46.21908,248.392401 45.8063478,247.401261 C45.3936156,246.410121 44.4236342,245.765956 43.35,245.769981 C41.8919683,245.769981 40.7099811,246.951968 40.7099811,248.41 L40.7099811,248.41 Z" id="Path" fill="#263238"></path>
                    <path d="M29.15,248.41 C29.15,249.868032 30.3319683,251.05 31.79,251.05 C33.2480317,251.05 34.43,249.868032 34.43,248.41 C34.43,246.951968 33.2480317,245.77 31.79,245.77 C30.3319683,245.77 29.15,246.951968 29.15,248.41 Z" id="Path" fill="#263238"></path>
                    <path d="M17.579981,248.41 C17.5759519,249.482726 18.2190308,250.452077 19.2089406,250.865399 C20.1988504,251.278721 21.340299,251.054474 22.1002685,250.297372 C22.8602381,249.54027 23.0887997,248.399678 22.6792229,247.408212 C22.2696461,246.416747 21.3027333,245.77 20.23,245.77 C18.7703418,245.77 17.5855081,246.950352 17.579981,248.41 Z" id="Path" fill="#263238"></path>
                    <path d="M6.39,80 L57.28,80 C60.7483482,80 63.56,82.8116518 63.56,86.28 L63.56,92.52 L76.12,98.17 L63.56,101.54 L63.56,105.44 C63.56,108.908348 60.7483482,111.72 57.28,111.72 L6.39,111.72 C2.92165177,111.72 0.11,108.908348 0.11,105.44 L0.11,86.27 C0.115516635,82.8055577 2.92555326,80 6.39,80 Z" id="Path" stroke="#263238" fill="#FFFFFF"></path>
                    <path d="M40.709981,96.36 C40.709981,97.4327333 41.3567468,98.3996461 42.3482121,98.8092229 C43.3396775,99.2187997 44.4802701,98.9902381 45.2373718,98.2302685 C45.9944736,97.470299 46.2187213,96.3288504 45.805399,95.3389406 C45.3920767,94.3490308 44.4227257,93.7059519 43.35,93.709981 C42.6480924,93.709981 41.9750782,93.9895093 41.4796936,94.4867703 C40.9843091,94.9840312 40.7073413,95.6580974 40.709981,96.36 L40.709981,96.36 Z" id="Path" fill="#263238"></path>
                    <path d="M29.149981,96.36 C29.1555179,97.8167172 30.3399184,98.9936667 31.7966414,98.9900002 C33.2533645,98.9863165 34.4318113,97.8034058 34.4299811,96.3466793 C34.4281466,94.8899527 33.2467277,93.71 31.79,93.71 C31.0880924,93.71 30.4150782,93.9895093 29.9196936,94.4867703 C29.4243091,94.9840312 29.1473413,95.6580974 29.149981,96.36 Z" id="Path" fill="#263238"></path>
                    <path d="M17.58,96.36 C17.58,97.8235546 18.7664454,99.01 20.23,99.01 C21.6935546,99.01 22.88,97.8235546 22.88,96.36 C22.88,94.8964454 21.6935546,93.71 20.23,93.71 C18.7664454,93.71 17.58,94.8964454 17.58,96.36 L17.58,96.36 Z" id="Path" fill="#263238"></path>
                </g>
                <g id="freepik--character-1--inject-10" transform="translate(117.000000, 90.000000)">
                    <path d="M86.46,97.89 C85.28,92.68 80.72,73.1 77.87,69.26 C74.58,64.82 55.54,54.51 52.82,52.65 C50.1,50.79 45.95,49.36 44.66,49.36 C44.66,49.36 34.21,52.94 23.91,55.66 C13.61,58.38 7.91,60.24 6.73,63.66 C5.73,66.66 1.16,91.88 0.09,97.87 L86.46,97.89 Z" id="Path" stroke="#263238" fill="#616161" fill-rule="nonzero" stroke-linecap="round" stroke-linejoin="round"></path>
                    <path d="M24,96.1 C23.5666667,88.6266667 23.1433333,81.16 22.73,73.7" id="Path" stroke="#263238" stroke-linecap="round" stroke-linejoin="round"></path>
                    <path d="M52.39,72.26 C57.26,71.55 59.98,62.67 60.7,58.95 C60.8,58.41 60.9,57.95 60.99,57.5 C57.11,55.21 53.83,53.35 52.82,52.65 C50.1,50.79 45.95,49.36 44.66,49.36 C44.66,49.36 40.85,50.67 35.56,52.3 C36.27,53.92 38.08,57.92 40.8,63.25 C44.38,70.26 47.53,73 52.39,72.26 Z" id="Path" stroke="#263238" fill="#FFFFFF" fill-rule="nonzero" stroke-linecap="round" stroke-linejoin="round"></path>
                    <path d="M41.51,36.33 C41.51,36.33 40.08,51.08 39.94,51.94 C39.8,52.8 41.8,58.52 45.24,63.82 C48.68,69.12 53.24,68.69 55.54,64.1 C57.2592722,60.2654672 58.6476583,56.2910027 59.69,52.22 C55.1846421,51.2522967 51.3499778,48.3166685 49.24,44.22 C45.81,37.34 42.94,34.33 41.51,36.33 Z" id="Path" stroke="#263238" fill="#B2B2B2" fill-rule="nonzero" stroke-linecap="round" stroke-linejoin="round"></path>
                    <path d="M51.39,1.26 C51.39,1.26 42.23,3.98 38.94,11.14 C36.26,16.96 37.79,26.03 38.94,29.03 C40.09,32.03 40.51,37.91 42.66,43.21 C44.81,48.51 50.53,55.21 55.4,56.21 C60.27,57.21 69.86,49.48 72.4,45.91 C74.94,42.34 74.12,36.17 74.4,35.17 C74.68,34.17 78.4,27.01 77.98,18.17 C77.56,9.33 65.28,-1.17 51.39,1.26 Z" id="Path" stroke="#263238" fill="#B2B2B2" fill-rule="nonzero" stroke-linecap="round" stroke-linejoin="round"></path>
                    <path d="M69,34.19 C69,34.19 70.29,42.49 68.28,43.35 C66.27,44.21 62.41,42.92 61.84,41.77" id="Path" stroke="#263238" stroke-linecap="round" stroke-linejoin="round"></path>
                    <path d="M60.7,46.21 C58.482994,45.174801 56.5610271,43.6000947 55.11,41.63 C55.11,41.63 51.96,46.35 55.4,47.63 C57.2832737,48.4279458 59.4679349,47.8426214 60.7,46.21 Z" id="Path" stroke="#1B212B" fill="#1B212B" fill-rule="nonzero" stroke-linecap="round" stroke-linejoin="round"></path>
                    <path d="M62.37,33.93 C62.02,35.06 61.28,35.84 60.71,35.67 C60.14,35.5 59.97,34.44 60.31,33.3 C60.65,32.16 61.4,31.39 61.96,31.56 C62.52,31.73 62.71,32.79 62.37,33.93 Z" id="Path" fill="#263238" fill-rule="nonzero"></path>
                    <path d="M72.39,35.5 C72.04,36.64 71.3,37.42 70.73,37.24 C70.16,37.06 69.99,36.01 70.33,34.88 C70.67,33.75 71.42,32.96 71.99,33.13 C72.56,33.3 72.73,34.37 72.39,35.5 Z" id="Path" fill="#263238" fill-rule="nonzero"></path>
                    <path d="M65.28,28.83 C65.0423861,28.8324466 64.8130415,28.7428588 64.64,28.58 C61.97,26.02 58.98,28.38 58.85,28.48 C58.5945551,28.687214 58.2479669,28.7424095 57.9407918,28.6247947 C57.6336168,28.50718 57.412522,28.2346235 57.3607918,27.9097947 C57.3090617,27.5849659 57.4345551,27.257214 57.69,27.05 C60.0807903,25.0064668 63.6260616,25.0883139 65.92,27.24 C66.2797223,27.6025826 66.2797223,28.1874174 65.92,28.55 C65.752413,28.724761 65.5220885,28.825528 65.28,28.83 Z" id="Path" fill="#263238" fill-rule="nonzero"></path>
                    <path d="M75.87,32.0000328 C75.5561932,31.9989737 75.2635945,31.8414206 75.09,31.58 C74.720328,30.8430919 74.042648,30.3082742 73.24,30.12 C72.5462532,30.0909126 71.8661624,30.3187964 71.33,30.76 C70.9516849,31.0996551 70.3696551,31.0683151 70.03,30.69 C69.6903449,30.3116849 69.7216849,29.7296551 70.1,29.39 C71.0339883,28.5786388 72.2575665,28.1816075 73.49,28.29 C74.8373364,28.5317366 76.0008079,29.3748852 76.65,30.58 C76.8339649,30.8641146 76.8470663,31.226298 76.6841101,31.5229619 C76.5211539,31.8196257 76.2084613,32.0028519 75.87,32.0000328 L75.87,32.0000328 Z" id="Path" fill="#263238" fill-rule="nonzero"></path>
                    <path d="M39.18,29.76 C39.24,29.94 39.29,30.12 39.34,30.31 L39.34,30.43 C39.4,30.63 39.45,30.84 39.5,31.05 L39.5,31.11 C39.5,31.35 39.61,31.59 39.66,31.84 L44.18,30.84 C44.18,30.84 48.33,31.7 48.91,30.27 C49.49,28.84 46.76,26.69 48.76,24.55 C50.76,22.41 56.35,23.83 56.92,21.11 C57.49,18.39 58.92,8.66 70.52,11.66 C72.8849146,12.4302768 75.1532049,13.4704691 77.28,14.76 C74.46,6.84 63.5,-0.92 51.34,1.21 C51.34,1.21 42.18,3.93 38.89,11.09 C36.21,16.91 37.74,25.98 38.89,28.98 C38.96,29.17 39.03,29.38 39.1,29.59 L39.18,29.76 Z" id="Path" stroke="#1B212B" fill="#1B212B" fill-rule="nonzero" stroke-linecap="round" stroke-linejoin="round"></path>
                    <path d="M46.24,33.33 C46.24,33.33 44.95,27.75 41.51,27.17 C38.07,26.59 36.79,30.75 37.51,34.47 C38.23,38.19 41.94,41.63 45.24,40.63" id="Path" stroke="#263238" fill="#B2B2B2" fill-rule="nonzero" stroke-linecap="round" stroke-linejoin="round"></path>
                    <path d="M57.58,97.89 C60.19,95.05 66.26,88.46 66.71,88.01 C67.16,87.56 68.14,87.44 71.43,86.58 C74.72,85.72 80.16,83.86 81.02,83.14 C82.3096768,82.3169036 83.469142,81.305742 84.46,80.14 C85.1586893,78.9892261 85.7800608,77.793253 86.32,76.56 C86.75,75.84 90.18,74.27 91.04,73.56 C91.9,72.85 92.76,71.42 92.47,70.7 C92.18,69.98 87.18,71.42 82.6,72.42 C80.1487194,72.9860315 77.6583778,73.3671039 75.15,73.56 C75.15,73.56 77.73,69.84 79.3,68.12 C80.87,66.4 80.3,62.68 79.16,64.12 C78.02,65.56 70.72,73 69.16,73.57 C67.6,74.14 64.01,79.44 61.57,81.88 C59.57,83.88 43.31,94.41 37.87,97.88 L57.58,97.89 Z" id="Path" stroke="#263238" fill="#B2B2B2" fill-rule="nonzero" stroke-linecap="round" stroke-linejoin="round"></path>
                    <line x1="86.32" y1="76.56" x2="81.45" y2="78.28" id="Path" stroke="#263238" stroke-linecap="round" stroke-linejoin="round"></line>
                    <line x1="166.94" y1="97.89" x2="2.91" y2="97.89" id="Path" stroke="#263238" stroke-linecap="round" stroke-linejoin="round"></line>
                </g>
                <g id="freepik--character-2--inject-10" transform="translate(119.000000, 161.000000)">
                    <path d="M164.55,99.77 C164.05,95.96 161.92,81.03 158.78,74.17 C155.728408,67.4183825 149.928405,62.299233 142.85,60.11 C137.1,58.37 129.6,56.9 125.85,57.43 C125.85,57.43 113.4,61.72 108.05,62.92 C102.7,64.12 97.15,67.87 94.87,71.09 C92.87,73.95 82.39,95.14 80.12,99.77 L164.55,99.77 Z" id="Path" stroke="#263238" fill="#FFFFFF" fill-rule="nonzero" stroke-linecap="round" stroke-linejoin="round"></path>
                    <path d="M164.55,99.77 C164.05,95.96 161.92,81.03 158.78,74.17 C155.728408,67.4183825 149.928405,62.299233 142.85,60.11 C137.1,58.37 129.6,56.9 125.85,57.43 C125.85,57.43 117.32,60.37 111.34,62.06 C109.47,64.98 105.27,71.46 101.34,76.98 C96.34,83.98 94.34,94.1 97.05,99.77 L164.55,99.77 Z" id="Path" stroke="#263238" fill="#F2C30E" fill-rule="nonzero" stroke-linecap="round" stroke-linejoin="round"></path>
                    <path d="M117.82,49.67 C119.043215,54.3419702 119.495829,59.1822434 119.16,64 C118.62,72.17 114.34,77.39 115.95,81.54 C117.56,85.69 123.95,87.29 129.6,82.88 C135.25,78.47 136.29,67.62 136.43,62.8 C136.57,57.98 138.84,43 138.84,43 C138.84,43 132.84,50.09 125.84,50.36 C118.84,50.63 117.82,49.67 117.82,49.67 Z" id="Path" stroke="#263238" fill="#FFFFFF" fill-rule="nonzero" stroke-linecap="round" stroke-linejoin="round"></path>
                    <path d="M119.29,11.39 C119.29,11.39 110.29,12.99 106.18,20.89 C102.18,28.46 104.08,41.19 108.03,48.73 C113.03,58.25 112.73,61.51 112.78,69.92 C112.876831,71.0683055 112.492995,72.2053301 111.72,73.06 C109.66,75.06 109.39,72.06 108.85,73.76 C108.31,75.46 113.85,79.22 119.56,74.25 C123.26,71.02 124.11,61.99 122.37,56.76 C120.63,51.53 111.93,40.7 113.81,32.27 C115.69,23.84 122.24,16.88 122.81,13.66 C123.38,10.44 119.29,11.39 119.29,11.39 Z" id="Path" fill="#1B212B" fill-rule="nonzero"></path>
                    <path d="M119.67,16.29 C119.67,16.29 104.11,25.62 106.54,40.06 C108.97,54.5 124.54,58.72 123.07,73.6" id="Path"></path>
                    <path d="M119.29,11.39 C119.29,11.39 110.29,12.99 106.18,20.89 C102.18,28.46 104.08,41.19 108.03,48.73 C113.03,58.25 112.73,61.51 112.78,69.92 C112.876831,71.0683055 112.492995,72.2053301 111.72,73.06 C109.66,75.06 109.39,72.06 108.85,73.76 C108.31,75.46 113.85,79.22 119.56,74.25 C123.26,71.02 124.11,61.99 122.37,56.76 C120.63,51.53 111.93,40.7 113.81,32.27 C115.69,23.84 122.24,16.88 122.81,13.66 C123.38,10.44 119.29,11.39 119.29,11.39 Z" id="Path" stroke="#263238" stroke-linecap="round" stroke-linejoin="round"></path>
                    <path d="M144.21,99.77 L164.55,99.77 L164.55,99.58 L164.55,99.43 L164.55,99.43 L164.55,99.21 L164.55,99.21 L164.55,99 L164.55,98.91 L164.55,98.71 L164.55,98.65 L164.55,98.39 L164.55,98.39 L164.55,98.12 L164.55,98.05 L164.55,97.81 L164.55,97.7 C164.554844,97.6100652 164.554844,97.5199348 164.55,97.43 L164.55,97.36 C164.55,97.26 164.55,97.16 164.55,97.06 L164.55,96.99 C164.55,96.89 164.55,96.8 164.55,96.71 L164.55,96.58 C164.55,96.49 164.55,96.4 164.55,96.3 L164.55,96.2 L164.49,95.84 L164.49,95.84 L164.43,95.48 L164.43,95.4 L164.37,95.01 L164.37,95.01 C164.37,94.86 164.32,94.71 164.3,94.56 L164.3,94.56 C164.23,94.1 164.15,93.62 164.07,93.13 L164.07,93.13 C164.07,92.98 164.07,92.83 163.99,92.68 L163.99,92.63 C163.99,92.48 163.94,92.33 163.91,92.18 L163.91,92.11 C163.91,91.97 163.86,91.83 163.83,91.68 L163.83,91.57 C163.83,91.44 163.83,91.31 163.76,91.18 L163.76,91.02 L163.7,90.67 L163.7,90.49 L163.64,90.15 L163.64,89.98 C163.64,89.86 163.59,89.74 163.57,89.62 L163.57,89.45 C163.57,89.33 163.52,89.21 163.5,89.09 L163.5,88.91 C163.5,88.79 163.5,88.68 163.43,88.56 L163.43,88.38 C163.43,88.26 163.43,88.14 163.36,88.02 L163.36,87.83 C163.36,87.72 163.31,87.6 163.29,87.48 L163.29,87.29 C163.29,87.17 163.24,87.06 163.21,86.94 L163.21,86.75 C163.21,86.63 163.21,86.51 163.13,86.39 C163.134662,86.3300906 163.134662,86.2699094 163.13,86.21 C163.13,86.09 163.08,85.96 163.06,85.84 L163.06,85.66 L162,85 L162,84.85 C162,84.71 161.94,84.56 161.9,84.41 L161.9,84.31 L161.78,83.79 L161.78,83.79 C161.7,83.43 161.61,83.07 161.52,82.71 L161.52,82.63 C161.52,82.48 161.45,82.33 161.42,82.18 L161.42,82.02 L161.33,81.66 C161.309887,81.5976242 161.293195,81.5341964 161.28,81.47 L161.19,81.13 C161.19,81.07 161.19,81 161.14,80.94 C161.09,80.88 161.09,80.73 161.06,80.62 L161,80.41 C161,80.31 160.95,80.21 160.92,80.11 L160.86,79.9 L160.78,79.61 L160.72,79.39 C160.72,79.3 160.67,79.21 160.64,79.11 L160.58,78.9 C160.548756,78.8114199 160.522055,78.7213027 160.5,78.63 C160.5,78.55 160.45,78.48 160.43,78.41 C160.41,78.34 160.43,78.23 160.35,78.15 C160.27,78.07 160.35,78.01 160.28,77.93 C160.257895,77.8452752 160.231188,77.7618182 160.2,77.68 C160.1812,77.6085696 160.157818,77.5384244 160.13,77.47 C160.107924,77.3819868 160.08122,77.2951996 160.05,77.21 C160.05,77.15 160.05,77.08 159.98,77.01 C159.91,76.94 159.93,76.84 159.9,76.76 C159.87,76.68 159.85,76.63 159.83,76.56 L159.74,76.32 C159.721092,76.255123 159.697702,76.191637 159.67,76.13 C159.647855,76.048563 159.621147,75.9684363 159.59,75.89 C159.562368,75.8317618 159.538973,75.7716056 159.52,75.71 L159.43,75.47 C159.43,75.41 159.43,75.35 159.36,75.3 L159.26,75.06 L159.2,74.9 C159.2,74.81 159.13,74.73 159.09,74.65 C159.068914,74.6050316 159.052171,74.5581521 159.04,74.51 L158.87,74.15 C155.9582,67.77552 150.596409,62.8464223 144,60.48 C143.11,63.59 140.87,72.29 141.41,79.48 C141.89,86.32 143.47,95.64 144.21,99.77 Z" id="Path" stroke="#263238" fill="#FFFFFF" fill-rule="nonzero" stroke-linecap="round" stroke-linejoin="round"></path>
                    <path d="M120.5,11.92 C120.5,11.92 115.41,15.8 113.81,20.09 C112.21,24.38 110.86,35.21 111.13,39.5 C111.4,43.79 116.88,51.28 119.13,53.15 C121.38,55.02 131.13,52.88 135.73,48.6 C138.91,45.6 141.62,35.35 139.48,25.31 C137.34,15.27 127.06,9.51 120.5,11.92 Z" id="Path" stroke="#263238" fill="#FFFFFF" fill-rule="nonzero" stroke-linecap="round" stroke-linejoin="round"></path>
                    <path d="M124.92,31.47 C124.92,31.47 127.86,28.39 132.81,30.93" id="Path" stroke="#263238" stroke-linecap="round" stroke-linejoin="round"></path>
                    <path d="M117.69,29.73 C117.223697,27.7884256 115.736475,26.2552078 113.81,25.73" id="Path" stroke="#263238" stroke-linecap="round" stroke-linejoin="round"></path>
                    <path d="M120.1,28.39 C120.1,28.39 119.83,30.93 118.89,31.87 C117.95,32.81 115.95,33.74 116.75,35.62 C117.55,37.5 119.96,37.89 121.03,36.82" id="Path" stroke="#263238" stroke-linecap="round" stroke-linejoin="round"></path>
                    <path d="M114.07,23.17 C114.07,23.17 116.35,20.36 120.07,23.17" id="Path" stroke="#263238" stroke-linecap="round" stroke-linejoin="round"></path>
                    <path d="M124.25,24.51 C124.25,24.51 128.66,21.83 132.14,26.78" id="Path" stroke="#263238" stroke-linecap="round" stroke-linejoin="round"></path>
                    <path d="M116.48,39.9 C116.48,39.9 118.36,42.44 123.48,41.77 C128.6,41.1 129.77,38.96 129.77,38.96" id="Path" stroke="#263238" stroke-linecap="round" stroke-linejoin="round"></path>
                    <path d="M128.66,31.4 C128.66,32.1014016 128.091402,32.67 127.39,32.67 C126.688598,32.67 126.12,32.1014016 126.12,31.4 C126.12,30.6985984 126.688598,30.13 127.39,30.13 C128.091402,30.13 128.66,30.6985984 128.66,31.4 L128.66,31.4 Z" id="Path" fill="#263238" fill-rule="nonzero"></path>
                    <path d="M116.88,28.45 C116.88,29.1514016 116.311402,29.72 115.61,29.72 C114.908598,29.72 114.34,29.1514016 114.34,28.45 C114.34,27.7485984 114.908598,27.18 115.61,27.18 C115.946825,27.18 116.269854,27.3138032 116.508026,27.5519744 C116.746197,27.7901456 116.88,28.1131751 116.88,28.45 L116.88,28.45 Z" id="Path" fill="#263238" fill-rule="nonzero"></path>
                    <path d="M119.43,41.64 C119.43,41.64 121.57,46.06 125.32,45.64 C129.07,45.22 128.8,40 128.8,40 C125.974344,41.6524849 122.648942,42.234519 119.43,41.64 Z" id="Path" stroke="#1B212B" fill="#1B212B" fill-rule="nonzero" stroke-linecap="round" stroke-linejoin="round"></path>
                    <path d="M131.6,0.42 L131.3,0.42 C126.5,0.97 120.2,1.98 116.35,5.07 C111.66,8.81 113.27,9.75 117.55,11.89 C121.83,14.03 134.55,21.13 135.76,31.3 C136.97,41.47 132.81,57.4 130.81,64.63 C128.81,71.86 131.47,76.81 135.36,80.29 C137.13317,81.9369056 139.534262,82.7324041 141.94,82.47 C144.12,82.25 146.86,81.67 148.59,80.25 C148.78,80.1 150.97,77.79 150.59,77.48 C148.67,75.85 146.36,78.19 145.19,75.95 C142.8,71.35 146.51,65.84 149.02,62.06 C151.07,58.97 154.48,57.06 156.56,54.06 C158.583649,50.8234142 159.810578,47.1529099 160.14,43.35 C161.09,35.21 159.56,26.58 156.7,18.95 C152.99,9.05 145.31,0.25 134,0.279923518 C133.22,0.29 132.4,0.33 131.6,0.42 Z" id="Path" fill="#1B212B" fill-rule="nonzero"></path>
                    <path d="M131.6,0.42 L131.3,0.42 C126.5,0.97 120.2,1.98 116.35,5.07 C111.66,8.81 113.27,9.75 117.55,11.89 C121.83,14.03 134.55,21.13 135.76,31.3 C136.97,41.47 132.81,57.4 130.81,64.63 C128.81,71.86 131.47,76.81 135.36,80.29 C137.13317,81.9369056 139.534262,82.7324041 141.94,82.47 C144.12,82.25 146.86,81.67 148.59,80.25 C148.78,80.1 150.97,77.79 150.59,77.48 C148.67,75.85 146.36,78.19 145.19,75.95 C142.8,71.35 146.51,65.84 149.02,62.06 C151.07,58.97 154.48,57.06 156.56,54.06 C158.583649,50.8234142 159.810578,47.1529099 160.14,43.35 C161.09,35.21 159.56,26.58 156.7,18.95 C152.99,9.05 145.31,0.25 134,0.279923518 C133.22,0.29 132.4,0.33 131.6,0.42 Z" id="Path" stroke="#263238" stroke-linecap="round" stroke-linejoin="round"></path>
                    <path d="M66.42,75.24 C67.4992528,76.2178953 68.7790802,76.9482502 70.17,77.38 C70.17,77.38 72.31,83.94 72.17,89.16 C72.1583575,92.7099551 72.4056805,96.2560309 72.91,99.77 L89.31,99.77 C86.3042868,94.5882276 83.7482646,89.1583533 81.67,83.54 C79.13,75.91 80.2,71.62 78.46,66.67 C76.72,61.72 75.91,59.31 72.97,55.43 C70.03,51.55 67.35,52.75 67.35,54.09 C67.35,55.43 68.95,55.96 70.16,57.84 C70.9869062,59.2319298 71.6576347,60.7108861 72.16,62.25 C72.16,62.25 66.53,64.8 64.93,67.61 C63.33,70.42 64.68,73.63 66.42,75.24 Z" id="Path" stroke="#263238" fill="#FFFFFF" fill-rule="nonzero" stroke-linecap="round" stroke-linejoin="round"></path>
                    <path d="M62.54,65.47 C62.54,65.47 60.4,67.47 60.4,69.47 C60.4,71.47 62,74.29 62.81,74.29 C63.62,74.29 64.01,72.82 63.61,71.35 C63.21,69.88 62.54,65.47 62.54,65.47 Z" id="Path" stroke="#263238" fill="#FFFFFF" fill-rule="nonzero" stroke-linecap="round" stroke-linejoin="round"></path>
                    <path d="M65.08,62.65 C65.08,62.65 62.54,64.26 61.87,66.27 C61.4192078,68.0408175 61.8143628,69.9205733 62.94,71.36 C63.74,72.56 66.15,72.83 66.82,72.16 C67.49,71.49 66.95,70.02 66.82,69.16 C66.69,68.3 65.35,65.68 65.48,64.48 C65.5590419,63.8561655 65.6057709,63.228661 65.62,62.6 L65.08,62.65 Z" id="Path" stroke="#263238" fill="#FFFFFF" fill-rule="nonzero" stroke-linecap="round" stroke-linejoin="round"></path>
                    <path d="M72.18,62.25 C72.18,62.25 68.69,60.11 66.02,61.58 C63.35,63.05 63.47,66 64.41,68.14 C65.35,70.28 67.76,71.49 68.83,70.55 C69.9,69.61 68.69,68.14 68.96,66.14 C69.23,64.14 72.18,62.25 72.18,62.25 Z" id="Path" stroke="#263238" fill="#FFFFFF" fill-rule="nonzero" stroke-linecap="round" stroke-linejoin="round"></path>
                    <path d="M75.66,66 C75.66,66 72.84,62.25 70.3,62.52 C67.76,62.79 63.61,67.52 64.41,68.68 C65.21,69.84 70,68 70,68 C70,68 68.66,72.42 72,73.35" id="Path" stroke="#263238" fill="#FFFFFF" fill-rule="nonzero" stroke-linecap="round" stroke-linejoin="round"></path>
                    <line x1="164.94" y1="99.77" x2="0.91" y2="99.77" id="Path" stroke="#263238" stroke-linecap="round" stroke-linejoin="round"></line>
                </g>
                <g id="freepik--character-3--inject-10" transform="translate(118.000000, 247.000000)">
                    <line x1="165.94" y1="92.86" x2="1.91" y2="92.86" id="Path" stroke="#263238" stroke-linecap="round" stroke-linejoin="round"></line>
                    <path d="M90.13,92.54 C90.13,92.54 91.59,79.6 86.57,76.2 C81.55,72.8 59.73,57.12 51.32,55.2 C42.91,53.28 37.74,51.48 34.32,53.42 C30.9,55.36 16.88,68 11.06,72 C5.24,76 2.33,80.25 1.52,83.32 C1.0175908,86.0393335 0.853011327,88.8103144 1.03,91.57 L1.03,92.86 C1.03,92.86 90.46,92.21 90.13,92.54 Z" id="Path" stroke="#1B212B" fill="#1B212B" fill-rule="nonzero" stroke-linecap="round" stroke-linejoin="round"></path>
                    <path d="M34.34,53.4 C33.0002817,54.2677454 31.7145752,55.2161627 30.49,56.24 C30.5265617,59.5654099 31.2056897,62.8523894 32.49,65.92 C36.67,76.08 46.08,81.84 53.49,78.79 C59.81,76.19 62.68,68.07 60.85,59.46 C57.8580995,57.6464612 54.6539015,56.2089384 51.31,55.18 C42.91,53.24 37.74,51.46 34.34,53.4 Z" id="Path" stroke="#263238" fill="#FFFFFF" fill-rule="nonzero" stroke-linecap="round" stroke-linejoin="round"></path>
                    <path d="M36.28,38.2 C36.28,38.2 35.96,48.07 35.15,52.27 C34.34,56.47 34.34,62.14 38.39,69.27 C42.44,76.4 52.29,76.06 55.39,73.27 C58.49,70.48 57.81,62.76 57.81,59.85 C57.81,56.94 59.52,50.1 59.52,50.1 C59.52,50.1 50.05,46.43 45.2,43.2 C40.35,39.97 37.9,37.23 36.28,38.2 Z" id="Path" stroke="#263238" fill="#FFFFFF" fill-rule="nonzero" stroke-linecap="round" stroke-linejoin="round"></path>
                    <path d="M62,11.85 C62,11.85 65.88,18.48 66.85,20.42 C67.6244469,22.1610248 67.4388966,24.1793576 66.36,25.75 C65.48,26.98 73.36,30.82 73.22,32.84 C73.08,34.86 72.37,35.97 70.78,38.26 C69.04,40.76 69.69,44.95 68.92,47.89 C68.27,50.39 67.47,51.01 64.92,51.95 C60.06,53.73 51.01,53.08 46.48,50.82 C41.95,48.56 40.34,44.51 38.72,41.6 C37.1,38.69 36.94,33.35 37.91,27.69 C38.88,22.03 46.48,14.43 51.33,12.33 C56.18,10.23 62,11.85 62,11.85 Z" id="Path" stroke="#263238" fill="#FFFFFF" fill-rule="nonzero" stroke-linecap="round" stroke-linejoin="round"></path>
                    <path d="M66.68,41.76 C63.9959923,42.4728576 61.1375548,42.0650249 58.76,40.63 C58.76,40.63 58.76,45.48 61.19,45.63 C63.62,45.78 66.68,41.76 66.68,41.76 Z" id="Path" fill="#263238" fill-rule="nonzero"></path>
                    <path d="M62,28.67 C62.25,29.76 62,30.75 61.42,30.88 C60.84,31.01 60.2,30.23 59.95,29.14 C59.7,28.05 59.95,27.06 60.53,26.93 C61.11,26.8 61.72,27.58 62,28.67 Z" id="Path" fill="#263238" fill-rule="nonzero"></path>
                    <path d="M55.69,25.43 C56.8276234,23.7219139 58.8189388,22.7859572 60.86,23" id="Path" stroke="#263238" stroke-linecap="round" stroke-linejoin="round"></path>
                    <path d="M71.21,36.74 C71.21,36.74 68.71,39.44 67.16,39.64 C65.61,39.84 63.88,37.71 64.65,36.36" id="Path" stroke="#263238" stroke-linecap="round" stroke-linejoin="round"></path>
                    <path d="M42.59,38.2 C43.36,37.95 47.12,38.53 46.59,36.42 C46.06,34.31 44.98,34 45.78,32.42 C46.58,30.84 54.84,26.92 53.06,23.69 C51.8762953,21.6027278 50.4679273,19.6511322 48.86,17.87 C48.86,17.87 62.44,15.28 65.35,11.24 C68.26,7.2 65.03,0.89 61.63,0.89 C58.23,0.89 59.85,2.02 50.8,4.89 C41.75,7.76 37.21,4.25 30.42,11.36 C23.63,18.47 25.73,32.36 28.32,36.75 C30.91,41.14 36.08,44.67 38.67,43.7 C41.26,42.73 40.65,38.85 42.59,38.2 Z" id="Path" stroke="#1B212B" fill="#1B212B" fill-rule="nonzero" stroke-linecap="round" stroke-linejoin="round"></path>
                    <path d="M45,39.66 C45,39.66 39,32.06 35,34.48 C31,36.9 36.94,44.19 39.53,45 C42.12,45.81 45.19,43.86 45.19,43.86" id="Path" stroke="#263238" fill="#FFFFFF" fill-rule="nonzero" stroke-linecap="round" stroke-linejoin="round"></path>
                </g>
                <g id="freepik--character-4--inject-10" transform="translate(118.000000, 296.000000)">
                    <line x1="164.86" y1="89.93" x2="0.67" y2="89.93" id="Path" stroke="#263238" stroke-linecap="round" stroke-linejoin="round"></line>
                    <path d="M78.74,85.63 C78.74,85.63 78.59,76.73 79.92,75.39 C81.25,74.05 114.04,56.11 123.24,56.25 C132.44,56.39 145.01,68.92 151.72,72.25 C162.4,77.59 162.4,80.55 163.29,83.52 C164.18,86.49 164.92,89.9 164.92,89.9 L78.74,89.9 L78.74,85.63 Z" id="Path" fill="#FFFFFF" fill-rule="nonzero"></path>
                    <path d="M164.5,88.11 C162.02,87.94 159.35,87.79 156.5,87.67 L157.64,80.53 L162.34,80.73 C161.744801,79.4712452 160.893292,78.3506595 159.84,77.44 L158.14,77.37 L158.33,76.21 C158.1,76.04 157.86,75.86 157.6,75.69 L157.34,77.34 L155.81,77.28 L156.21,74.78 L156.21,74.78 C155.35,74.25 154.37,73.69 153.26,73.1 L153.14,73.81 C149.87,73.63 146.58,73.5 143.3,73.4 L143.85,68.4 L145.85,68.45 C143.92,67.05 141.85,65.45 139.66,63.93 L139.48,65.15 C135.87,65.1 132.27,65.08 128.73,65.07 L129.4,57.77 L128.63,57.45 L127.93,65.07 L126.31,65.07 L126.92,56.85 C125.898399,56.5377111 124.845279,56.3398318 123.78,56.26 L123.12,65.08 C121.21,65.08 119.32,65.08 117.45,65.08 L118.05,57.08 L117.23,57.33 L116.65,65.05 L113.96,65.05 L114.17,58.34 C113.17,58.71 112.06,59.13 110.96,59.57 L110.79,65.09 C108.01,65.09 105.32,65.18 102.74,65.24 L102.84,63.12 L102.03,63.5 L101.94,65.26 L99.87,65.26 L99.87,64.47 C96.95,65.88 94.1,67.31 91.5,68.67 L96.5,68.52 L96.3,73.62 L91,74 L91.18,69 L90.37,69.42 L90.21,74.02 L88.81,74.09 L89.02,70.09 C87.84,70.72 86.74,71.31 85.74,71.86 L85.62,74.23 L81.14,74.5 C80.7291267,74.731015 80.3378238,74.9952281 79.97,75.29 L79.9,75.38 L85.58,75.03 L85.45,77.48 L79.18,77.72 C79.03,78.72 78.94,79.82 78.88,80.91 C80.7,80.84 82.88,80.75 85.28,80.67 L84.93,87.28 L78.79,87.4 L78.79,88.19 L84.89,88.07 L84.8,89.83 L87.98,89.83 L88.07,88.01 L89.72,88.01 L89.65,89.85 L90.45,89.85 L90.51,87.99 L95.88,87.91 L95.8,89.85 L98.98,89.85 L99.06,87.85 L100.96,87.85 L100.87,89.85 L101.67,89.85 L101.76,87.85 L110.15,87.78 L110.09,89.86 L113.26,89.86 L113.33,87.77 L115,87.77 L114.85,89.87 L115.64,89.87 L115.8,87.77 L121.46,87.77 L121.3,89.88 L124.48,89.88 L124.64,87.78 L125.89,87.78 L125.7,89.87 L126.5,89.87 L126.69,87.78 C129.88,87.78 133.07,87.78 136.22,87.86 L135.93,89.86 L139.13,89.86 L139.42,87.86 L140.96,87.86 L140.75,89.79 L141.55,89.79 L141.76,87.87 C144.88,87.93 147.93,88.01 150.88,88.11 L150.61,89.79 L153.82,89.79 L154.07,88.22 L155.64,88.28 L155.4,89.79 L156.2,89.79 L156.43,88.32 C159.37,88.45 162.14,88.6 164.71,88.77 C164.64,88.68 164.57,88.41 164.5,88.11 Z M89.7,87.29 L88.06,87.29 L88.41,80.63 L89.93,80.58 L89.7,87.29 Z M90.04,77.43 L88.58,77.48 L88.72,74.95 L90.13,74.88 L90.04,77.43 Z M95.86,87.2 L90.49,87.28 L90.72,80.58 L96.13,80.43 L95.86,87.2 Z M96.25,77.25 L90.83,77.4 L90.92,74.84 C92.62,74.75 94.44,74.67 96.36,74.59 L96.25,77.25 Z M100.95,87.14 L99.04,87.14 L99.31,80.32 L101.31,80.32 L100.95,87.14 Z M101.42,77.14 L99.42,77.19 L99.53,74.48 L101.53,74.4 L101.42,77.14 Z M101.58,73.61 L99.58,73.68 L99.78,68.63 L101.83,68.63 L101.58,73.61 Z M110.13,87.08 L101.75,87.15 L102.06,80.3 L110.34,80.14 L110.13,87.08 Z M110.44,76.97 C107.6,76.97 104.85,77.06 102.21,77.12 L102.34,74.37 C104.94,74.28 107.68,74.2 110.53,74.14 L110.44,76.97 Z M110.55,73.34 C107.71,73.41 104.98,73.49 102.38,73.58 L102.61,68.58 C105.21,68.52 107.92,68.47 110.71,68.43 L110.55,73.34 Z M113.88,68.34 L116.44,68.34 L116.07,73.23 L113.73,73.23 L113.88,68.34 Z M115,87 L113.3,87 L113.52,80 L115.52,80 L115,87 Z M113.58,76.86 L113.67,74.01 L115.97,74.01 L115.76,76.88 L113.58,76.86 Z M121.5,87 L115.84,87 L116.36,80 L122.03,80 L121.5,87 Z M122.26,76.8 L116.6,76.8 L116.81,73.93 C118.67,73.93 120.56,73.91 122.48,73.87 L122.26,76.8 Z M122.54,73.12 L116.87,73.17 L117.23,68.29 L122.9,68.29 L122.54,73.12 Z M126.09,68.24 L127.66,68.24 L127.22,73.11 L125.72,73.11 L126.09,68.24 Z M125.94,87 L124.68,87 L125.21,79.95 L126.59,79.95 L125.94,87 Z M125.45,76.77 L125.66,73.89 L127.14,73.89 L126.88,76.77 L125.45,76.77 Z M136.31,87.09 C133.15,87.09 129.95,87.02 126.74,87.01 L127.39,79.95 C130.67,79.95 133.99,79.95 137.34,80 L136.31,87.09 Z M137.8,76.83 C134.4,76.83 131.01,76.77 127.68,76.77 L127.94,73.89 C131.31,73.89 134.75,73.94 138.21,74.01 L137.8,76.83 Z M138.33,73.22 C134.85,73.15 131.4,73.11 128.01,73.1 L128.46,68.23 C131.95,68.23 135.46,68.23 139.04,68.31 L138.33,73.22 Z M142.25,68.36 L143.1,68.36 L142.55,73.36 L141.55,73.36 L142.25,68.36 Z M141.41,74.09 L142.47,74.09 L142.16,76.86 L141.01,76.86 L141.41,74.09 Z M141,87.21 L139.48,87.21 L140.48,80.11 L141.74,80.11 L141,87.21 Z M151,87.46 C148,87.36 145,87.28 141.85,87.22 L142.63,80.11 C145.81,80.16 148.99,80.24 152.16,80.33 L151,87.46 Z M152.67,77.17 C149.45,77.07 146.21,77 142.98,76.94 L143.28,74.19 C146.55,74.29 149.82,74.42 153.09,74.6 L152.67,77.17 Z M155.76,87.64 L154.2,87.57 L155.36,80.44 L156.9,80.49 L155.76,87.64 Z" id="Shape" fill="#1B212B" fill-rule="nonzero"></path>
                    <path d="M78.74,85.63 C78.74,85.63 78.59,76.73 79.92,75.39 C81.25,74.05 114.04,56.11 123.24,56.25 C132.44,56.39 145.01,68.92 151.72,72.25 C162.4,77.59 162.4,80.55 163.29,83.52 C164.18,86.49 164.92,89.9 164.92,89.9 L78.74,89.9 L78.74,85.63 Z" id="Path" stroke="#263238" stroke-linecap="round" stroke-linejoin="round"></path>
                    <path d="M118.34,52.69 C118.34,52.69 113.89,52.99 112.71,55.22 C111.53,57.45 112.11,58.78 109.71,65.45 C107.31,72.12 106,74.06 107.34,74.06 C108.68,74.06 112.34,70.2 113.71,69.61 C115.08,69.02 118.17,74.2 118.17,74.2 C118.17,74.2 124.1,71.09 126.03,70.94 C127.96,70.79 132.11,78.8 132.85,77.47 C133.59,76.14 135.52,71.24 137.6,66.79 C139.68,62.34 140.12,58.63 138.34,55.66 C136.56,52.69 119.83,51.8 118.34,52.69 Z" id="Path" stroke="#263238" fill="#263238" fill-rule="nonzero" stroke-linecap="round" stroke-linejoin="round"></path>
                    <path d="M115.67,51.21 C114.986062,55.7812492 114.935587,60.4249643 115.52,65.01 C116.52,71.68 118.05,75.54 119.23,74.65 C120.41,73.76 127.69,69.31 131.4,64.71 C135.11,60.11 135.7,59.52 136.74,57 C137.78,54.48 138.96,51.66 138.96,51.66 C138.96,51.66 125.17,56.85 115.67,51.21 Z" id="Path" stroke="#263238" fill="#FFFFFF" fill-rule="nonzero" stroke-linecap="round" stroke-linejoin="round"></path>
                    <path d="M115.82,26.73 C115.82,26.73 113.15,22.58 111.67,27.48 C110.19,32.38 113.74,35.04 114.19,34.74 C114.64,34.44 115.82,26.73 115.82,26.73 Z" id="Path" stroke="#263238" fill="#FFFFFF" fill-rule="nonzero" stroke-linecap="round" stroke-linejoin="round"></path>
                    <path d="M117.16,16.35 C117.16,16.35 112.26,37.56 111.22,43.65 C110.18,49.74 116.86,55.36 124.28,56.4 C131.7,57.44 138.81,53.88 140.74,50.17 C142.67,46.46 148.74,22.73 149.64,21.1 C150.54,19.47 153.64,12.35 151.28,9.97 C148.92,7.59 145.05,9.38 145.05,9.38 C145.05,9.38 142.37,2.55 137.78,2.38 C133.19,2.21 132.58,4.3 132.58,4.3 C132.58,4.3 128.58,-0.59 124.87,0.45 C121.16,1.49 121.16,3.86 121.16,3.86 C121.16,3.86 114.34,2.23 111.82,7.12 C109.3,12.01 116.27,13.5 116.27,13.5 C116.27,13.5 114.78,15.61 117.16,16.35 Z" id="Path" stroke="#263238" fill="#FFFFFF" fill-rule="nonzero" stroke-linecap="round" stroke-linejoin="round"></path>
                    <path d="M144.3,33.71 C144.75,33.56 147.72,28.81 150.53,30.71 C153.34,32.61 150.09,39.91 147.72,41.09 C146.901722,41.5317601 145.934713,41.6066037 145.058206,41.2960151 C144.181698,40.9854264 143.477563,40.3184171 143.12,39.46" id="Path" stroke="#263238" fill="#FFFFFF" fill-rule="nonzero" stroke-linecap="round" stroke-linejoin="round"></path>
                    <path d="M151.28,10 C148.9,7.63 145.05,9.41 145.05,9.41 C145.05,9.41 142.37,2.58 137.78,2.41 C133.19,2.24 132.58,4.33 132.58,4.33 C132.58,4.33 128.58,-0.56 124.87,0.48 C121.16,1.52 121.16,3.89 121.16,3.89 C121.16,3.89 114.34,2.26 111.82,7.15 C109.3,12.04 116.27,13.53 116.27,13.53 C116.27,13.53 114.78,15.61 117.16,16.35 C118.05,15.46 119.83,11.46 128.88,11.35 C137.93,11.24 145.19,17.73 145.19,17.73 C145.19,17.73 141.93,21.58 142.97,23.21 C144.01,24.84 145.19,24.7 145.05,26.03 C144.91,27.36 142.05,39.53 140.89,41.46 C139.581023,43.3790232 137.209116,44.270988 134.96,43.69 C132.88,43.09 131.69,41.61 127.96,39.69 C124.23,37.77 121.13,37.02 118.46,38.06 C115.79,39.1 115.64,39.99 114.16,40.43 C112.88,40.82 112.48,39.98 112.11,38.99 C111.71,40.92 111.39,42.57 111.19,43.7 C110.19,49.78 116.83,55.41 124.25,56.45 C131.67,57.49 138.78,53.93 140.71,50.22 C142.64,46.51 148.71,22.78 149.61,21.15 C150.51,19.52 153.65,12.35 151.28,10 Z" id="Path" stroke="#263238" fill="#F2C30E" fill-rule="nonzero" stroke-linecap="round" stroke-linejoin="round"></path>
                    <path d="M119.09,40.83 C119.09,40.83 124.57,44.24 128.28,42.16 C128.28,42.16 124.57,46.61 122.65,46.61 C120.73,46.61 119.09,40.83 119.09,40.83 Z" id="Path" stroke="#263238" fill="#263238" fill-rule="nonzero" stroke-linecap="round" stroke-linejoin="round"></path>
                    <path d="M123.24,28.29 C123.24,31.0514237 121.001424,33.29 118.24,33.29 C115.478576,33.29 113.24,31.0514237 113.24,28.29 C113.24,25.5285763 115.478576,23.29 118.24,23.29 C121.001424,23.29 123.24,25.5285763 123.24,28.29 Z" id="Path" stroke="#263238" stroke-linecap="round" stroke-linejoin="round"></path>
                    <path d="M137.63,30.81 C137.63,33.5714237 135.391424,35.81 132.63,35.81 C129.868576,35.81 127.63,33.5714237 127.63,30.81 C127.63,28.0485763 129.868576,25.81 132.63,25.81 C135.391424,25.81 137.63,28.0485763 137.63,30.81 Z" id="Path" stroke="#263238" stroke-linecap="round" stroke-linejoin="round"></path>
                    <path d="M123.39,27.77 C123.39,27.77 125.46,26.77 127.99,28.77" id="Path" stroke="#263238" stroke-linecap="round" stroke-linejoin="round"></path>
                    <line x1="137.63" y1="30.81" x2="147.27" y2="31.18" id="Path" stroke="#263238" stroke-linecap="round" stroke-linejoin="round"></line>
                    <path d="M124.13,28.37 C122.908257,30.6791309 121.819807,33.056359 120.87,35.49 C120.57,36.82 122.2,37.56 124.28,37.56 C126.36,37.56 127.28,36.67 127.28,35.78" id="Path" stroke="#263238" stroke-linecap="round" stroke-linejoin="round"></path>
                    <path d="M123.68,22.73 C123.477366,22.7277531 123.278316,22.6762748 123.1,22.58 C121.516102,21.5419668 119.488017,21.4649997 117.83,22.38 C117.277715,22.7500308 116.530031,22.6022847 116.16,22.05 C115.789969,21.4977153 115.937715,20.7500308 116.49,20.38 C118.897331,18.9573061 121.896225,18.9919977 124.27,20.47 C124.745776,20.7345239 124.981396,21.2881683 124.842161,21.8144283 C124.702927,22.3406883 124.224341,22.7053725 123.68,22.7 L123.68,22.73 Z" id="Path" fill="#F2C30E" fill-rule="nonzero"></path>
                    <path d="M138.22,27.63 C137.824644,27.6382818 137.450588,27.4512538 137.22,27.13 C135.786034,24.9120278 133.107706,23.8414987 130.54,24.46 C129.922211,24.6289735 129.281501,24.2786702 129.090308,23.6673925 C128.899116,23.0561148 129.226032,22.4031618 129.83,22.19 C133.381534,21.2549612 137.134057,22.6867921 139.16,25.75 C139.421661,26.117348 139.453166,26.6010513 139.241365,26.9992367 C139.029564,27.3974222 138.610861,27.6416531 138.16,27.63 L138.22,27.63 Z" id="Path" fill="#F2C30E" fill-rule="nonzero"></path>
                    <ellipse id="Oval" stroke="#263238" fill="#263238" fill-rule="nonzero" stroke-linecap="round" stroke-linejoin="round" cx="118.86" cy="28.51" rx="1" ry="1.78"></ellipse>
                    <path d="M132.88,30.74 C132.88,31.74 132.45,32.52 131.88,32.52 C131.31,32.52 130.88,31.72 130.88,30.74 C130.88,29.76 131.31,28.96 131.88,28.96 C132.45,28.96 132.88,29.76 132.88,30.74 Z" id="Path" stroke="#263238" fill="#263238" fill-rule="nonzero" stroke-linecap="round" stroke-linejoin="round"></path>
                </g>
                <g id="freepik--Emojis--inject-10">
                    <circle id="Oval" stroke="#1B212B" fill="#F2C30E" transform="translate(43.477088, 172.617138) rotate(-51.850000) translate(-43.477088, -172.617138) " cx="43.477088" cy="172.617138" r="27.92"></circle>
                    <path d="M32.76,180 C32.76,180 51.61,181 58.1,163.68" id="Path" stroke="#1B212B" stroke-width="2" stroke-linecap="round" stroke-linejoin="round"></path>
                    <path d="M48,158.94 C49,160.35 49.23,161.88 48.55,162.36 C47.87,162.84 46.55,162.08 45.55,160.67 C44.55,159.26 44.32,157.74 45,157.26 C45.68,156.78 47,157.54 48,158.94 Z" id="Path" fill="#1B212B" fill-rule="nonzero"></path>
                    <path d="M35.78,166.76 C36.78,168.16 37.02,169.69 36.33,170.17 C35.64,170.65 34.33,169.9 33.33,168.49 C32.33,167.08 32.1,165.55 32.78,165.08 C33.46,164.61 34.79,165.35 35.78,166.76 Z" id="Path" fill="#1B212B" fill-rule="nonzero"></path>
                    <path d="M361.58,164.58 C362.041963,175.48018 371.250469,183.943387 382.150839,183.485919 C393.051208,183.028451 401.518212,173.823435 401.065239,162.922878 C400.612266,152.022321 391.410743,143.551522 380.51,144 C375.26952,144.215604 370.329751,146.505808 366.779013,150.366039 C363.228276,154.226269 361.357913,159.339791 361.58,164.58 L361.58,164.58 Z" id="Path" stroke="#1B212B" fill="#F2C30E"></path>
                    <path d="M390.53,163.67 C390.53,163.67 380.01,171.91 369.2,164.52" id="Path" stroke="#1B212B" stroke-width="2" stroke-linecap="round" stroke-linejoin="round"></path>
                    <ellipse id="Oval" fill="#1B212B" fill-rule="nonzero" cx="374.23" cy="157.67" rx="1.07" ry="2.2"></ellipse>
                    <path d="M383.4,157.24 C383.4,158.46 383.88,159.44 384.47,159.44 C385.06,159.44 385.54,158.44 385.54,157.24 C385.54,156.04 385.06,155.04 384.47,155.04 C383.88,155.04 383.4,156 383.4,157.24 Z" id="Path" fill="#1B212B" fill-rule="nonzero"></path>
                    <circle id="Oval" stroke="#1B212B" fill="#F2C30E" transform="translate(60.952627, 377.457478) rotate(-45.800000) translate(-60.952627, -377.457478) " cx="60.9526272" cy="377.457478" r="26.42"></circle>
                    <path d="M46.07,386.07 C46.07,386.07 63.07,376.38 79.44,374.07 C79.44,374.07 84.14,389.55 68.44,395.55 C54.92,400.7 46.07,386.07 46.07,386.07 Z" id="Path" stroke="#1B212B" fill="#FFFFFF"></path>
                    <path d="M49.42,378.61 C48.8401782,378.606314 48.3095924,378.283349 48.04,377.77 L44.19,370.32 C43.855107,369.569546 44.1641166,368.688159 44.8943041,368.311117 C45.6244917,367.934075 46.5220296,368.192444 46.94,368.9 L50.79,376.35 C51.1847587,377.109402 50.8892956,378.045036 50.13,378.44 C49.9089961,378.548971 49.6663915,378.607059 49.42,378.61 L49.42,378.61 Z" id="Path" fill="#1B212B" fill-rule="nonzero"></path>
                    <path d="M70,371.16 C69.2673648,371.157794 68.6349779,370.646059 68.48,369.93 L66.69,361.46 C66.6334891,360.689677 67.152751,359.995303 67.9076283,359.831746 C68.6625055,359.668189 69.4226043,360.085369 69.69,360.81 L71.48,369.29 C71.6591797,370.126654 71.1265307,370.950246 70.29,371.13 L70,371.16 Z" id="Path" fill="#1B212B" fill-rule="nonzero"></path>
                    <path d="M73,393.22 C71.57,389.71 66.6,388.28 61.74,390.03 C59.2783482,390.862034 57.1821981,392.5234 55.81,394.73 L64,396 C66,395.333333 67.3333333,395 68,395 C68.6666667,395 70,394.666667 72,394" id="Path" stroke="#263238" fill="#1B212B"></path>
                    <path d="M368,260.18 C365.109877,268.184579 369.255664,277.016521 377.260072,279.907118 C385.264479,282.797714 394.096667,278.65245 396.987737,270.648213 C399.878807,262.643977 395.734066,253.811544 387.73,250.92 C383.885706,249.531213 379.647144,249.726636 375.94695,251.46327 C372.246757,253.199904 369.388105,256.335459 368,260.18 Z" id="Path" stroke="#1B212B" fill="#F2C30E"></path>
                    <path d="M391.19,270.46 C391.19,270.46 381.28,264.8 371.73,263.46 C371.73,263.46 368.99,272.46 378.12,275.99 C386,279 391.19,270.46 391.19,270.46 Z" id="Path" stroke="#1B212B" fill="#FFFFFF"></path>
                    <path d="M389.23,266.1 C389.568835,266.105254 389.881899,265.919734 390.04,265.62 L392.28,261.27 C392.508167,260.827834 392.338898,260.284392 391.9,260.05 C391.45475,259.829101 390.91455,260.001788 390.68,260.44 L388.43,264.79 C388.204191,265.231879 388.378652,265.773155 388.82,266 C388.94624,266.066869 389.087149,266.101237 389.23,266.1 Z" id="Path" fill="#1B212B" fill-rule="nonzero"></path>
                    <path d="M377.25,261.76 C377.67699,261.759138 378.044603,261.458364 378.13,261.04 L379.18,256.1 C379.261235,255.779753 379.16047,255.440741 378.917503,255.216856 C378.674536,254.992972 378.328431,254.920211 378.015882,255.027311 C377.703333,255.134411 377.474592,255.404152 377.42,255.73 L376.37,260.67 C376.319532,260.903397 376.363887,261.147283 376.493299,261.347966 C376.622711,261.548649 376.826572,261.689676 377.06,261.74 L377.25,261.76 Z" id="Path" fill="#1B212B" fill-rule="nonzero"></path>
                    <path d="M375.46,274.62 C376.29,272.62 379.2,271.74 382.03,272.77 C383.467195,273.247798 384.689196,274.218315 385.48,275.51 C381.16,276.503333 379,276.666667 379,276" id="Path" stroke="#1B212B" fill="#1B212B"></path>
                    <circle id="Oval" stroke="#1B212B" fill="#F2C30E" transform="translate(327.314727, 245.057102) rotate(-74.610000) translate(-327.314727, -245.057102) " cx="327.314727" cy="245.057102" r="24.28"></circle>
                    <path d="M308.52,240.93 C308.064071,241.043052 307.594674,240.802179 307.420653,240.365867 C307.246632,239.929554 307.421415,239.431754 307.83,239.2 L313.88,235.94 L309.83,235.8 C309.310852,235.78067 308.90567,235.344148 308.925,234.825 C308.94433,234.305852 309.380852,233.90067 309.9,233.92 L317.41,234.18 C317.827235,234.215105 318.178423,234.506431 318.29,234.91 C318.348434,235.307482 318.16332,235.701343 317.82,235.91 L308.72,240.81 L308.52,240.93 Z" id="Path" fill="#1B212B" fill-rule="nonzero"></path>
                    <path d="M340.89,232 C340.816992,232.009762 340.743008,232.009762 340.67,232 L330.79,232.32 C330.362722,232.337135 329.977722,232.063718 329.853122,231.654653 C329.728521,231.245587 329.895724,230.80397 330.26,230.58 L336.93,226.42 C337.376462,226.174071 337.936452,226.303299 338.23,226.72 C338.501336,227.159403 338.36738,227.735414 337.93,228.01 L334.21,230.33 L340.61,230.13 C341.077875,230.125597 341.477755,230.465973 341.548147,230.928543 C341.618538,231.391113 341.338006,231.83503 340.89,231.97 L340.89,232 Z" id="Path" fill="#1B212B" fill-rule="nonzero"></path>
                    <path d="M308.12,245.15 C313.27,254.64 322.41,260.05 330.82,257.73 C339.23,255.41 344.32,246.1 343.89,235.31 L340.64,235.65 C330.244595,236.717243 320.102947,239.52648 310.64,243.96 L308.12,245.15 Z" id="Path" stroke="#1B212B" fill="#FFFFFF"></path>
                    <path d="M319.35,256.45 C319.269951,255.977544 319.229999,255.499189 319.229999,255.02 C319.229999,249.52 324.11,245.02 330.13,245.02 C334.191844,244.939255 337.967492,247.103909 339.95,250.65 C338.287324,252.136137 336.970657,253.252804 336,254 C335.426213,254.441692 334.426213,255.108359 333,256 L330,257 L328,258 L326,258" id="Path" stroke="#1B212B" fill="#1B212B"></path>
                    <circle id="Oval" stroke="#1B212B" fill="#F2C30E" transform="translate(77.642671, 245.827754) rotate(-20.510000) translate(-77.642671, -245.827754) " cx="77.6426705" cy="245.827754" r="17.98"></circle>
                    <path d="M91.59,242.76 C91.9003968,242.844719 92.228147,242.703662 92.38,242.42 C92.4713275,242.259008 92.4930822,242.067743 92.4402426,241.890353 C92.387403,241.712963 92.2645356,241.564778 92.1,241.48 L87.62,239.06 L90.62,238.96 C91.0003152,238.938587 91.2959674,238.620871 91.29,238.24 C91.2848187,238.055177 91.2056768,237.880165 91.0703202,237.754208 C90.9349635,237.628251 90.754718,237.561888 90.57,237.57 L85.01,237.76 C84.6994862,237.778308 84.4383006,237.999322 84.3688646,238.302526 C84.2994285,238.60573 84.4384002,238.918383 84.71,239.07 L91.44,242.7 L91.59,242.76 Z" id="Path" fill="#1B212B" fill-rule="nonzero"></path>
                    <path d="M67.63,236.17 L67.79,236.17 L75.1,236.4 C75.4157077,236.415383 75.7014985,236.214283 75.7936235,235.911924 C75.8857485,235.609565 75.7606478,235.283272 75.49,235.12 L70.55,232.04 C70.391126,231.926711 70.1917126,231.885987 70.0011407,231.927912 C69.8105688,231.969838 69.6466588,232.090493 69.55,232.26 C69.4367106,232.418874 69.3959865,232.618287 69.4379124,232.808859 C69.4798382,232.999431 69.6004934,233.163341 69.77,233.26 L72.52,234.97 L67.78,234.82 C67.5969793,234.814618 67.419324,234.882201 67.286156,235.007867 C67.152988,235.133532 67.0752281,235.306975 67.07,235.49 C67.0727673,235.820432 67.3062308,236.103923 67.63,236.17 L67.63,236.17 Z" id="Path" fill="#1B212B" fill-rule="nonzero"></path>
                    <path d="M91.89,245.89 C88.08,252.89 81.31,256.89 75.08,255.2 C68.85,253.51 65.08,246.59 65.4,238.6 L67.81,238.85 C75.4989278,239.64262 83.0000214,241.721562 90,245 L91.89,245.89 Z" id="Path" stroke="#1B212B" fill="#FFFFFF"></path>
                    <path d="M83.58,254.25 C83.6318728,253.899022 83.6586075,253.544787 83.66,253.19 C83.66,249.12 80.05,245.82 75.59,245.82 C72.5866753,245.76667 69.7957208,247.363695 68.32,249.98 C69.9179092,250.949152 70.8112425,251.622485 71,252 C72,254 74,253.148978 74,254 C74,255.333333 76,255.666667 80,255" id="Path" stroke="#1B212B" fill="#1B212B"></path>
                    <circle id="Oval" stroke="#263238" fill="#F2C30E" transform="translate(343.711557, 69.220534) rotate(-82.300000) translate(-343.711557, -69.220534) " cx="343.711557" cy="69.2205343" r="27.92"></circle>
                    <path d="M332.21,60.61 C332.21,62.33 332.88,63.73 333.72,63.73 C334.56,63.73 335.22,62.33 335.22,60.61 C335.22,58.89 334.55,57.5 333.72,57.5 C332.89,57.5 332.21,58.89 332.21,60.61 Z" id="Path" fill="#1B212B" fill-rule="nonzero"></path>
                    <path d="M346.67,60 C346.67,61.72 347.34,63.11 348.17,63.11 C349,63.11 349.68,61.72 349.68,60 C349.68,58.28 349,56.89 348.17,56.89 C347.34,56.89 346.67,58.29 346.67,60 Z" id="Path" fill="#1B212B" fill-rule="nonzero"></path>
                    <line x1="330.78" y1="51.77" x2="337.61" y2="59.16" id="Path" stroke="#1B212B" stroke-width="2" stroke-linecap="round" stroke-linejoin="round"></line>
                    <line x1="349.05" y1="51.22" x2="342.78" y2="58.97" id="Path" stroke="#1B212B" stroke-width="2" stroke-linecap="round" stroke-linejoin="round"></line>
                    <path d="M330.23,75.77 C330.23,75.77 339.23,65.06 351.64,73.77" id="Path" stroke="#1B212B" stroke-width="2" stroke-linecap="round" stroke-linejoin="round"></path>
                    <circle id="Oval" stroke="#1B212B" stroke-width="1.00005" fill="#F2C30E" transform="translate(19.866200, 290.297300) rotate(-0.572939) translate(-19.866200, -290.297300) " cx="19.8662" cy="290.2973" r="19.620981"></circle>
                    <path d="M20.07,280.67 C20.9,281.56 21.22,282.6 20.79,283 C20.36,283.4 19.35,283 18.52,282.11 C17.69,281.22 17.38,280.19 17.81,279.79 C18.24,279.39 19.25,279.79 20.07,280.67 Z" id="Path" fill="#1B212B" fill-rule="nonzero"></path>
                    <path d="M12.34,287.28 C13.17,288.17 13.49,289.21 13.06,289.61 C12.63,290.01 11.62,289.61 10.79,288.73 C9.96,287.85 9.65,286.8 10.08,286.4 C10.51,286 11.52,286.4 12.34,287.28 Z" id="Path" fill="#1B212B" fill-rule="nonzero"></path>
                    <line x1="16.58" y1="275.44" x2="16.59" y2="282.51" id="Path" stroke="#1B212B" stroke-width="2" stroke-linecap="round" stroke-linejoin="round"></line>
                    <line x1="6.91" y1="283.9" x2="13.85" y2="284.89" id="Path" stroke="#1B212B" stroke-width="2" stroke-linecap="round" stroke-linejoin="round"></line>
                    <path d="M28.35,287.52 C28.35,287.52 18.57,286.34 16.35,296.73" id="Path" stroke="#1B212B" stroke-width="2" stroke-linecap="round" stroke-linejoin="round"></path>
                    <path d="M98.79,14.26 C108.665857,22.2631167 111.442574,36.1645173 105.399005,47.347438 C99.3554367,58.5303588 86.2050203,63.8242837 74.0990233,59.9477808 C61.9930264,56.0712779 54.3636699,44.1233905 55.94,31.51 L74,10 L79,8 L87,8" id="Path" stroke="#1B212B" fill="#F2C30E"></path>
                    <path d="M67.28,43.46 C67.28,43.46 84.28,33.76 100.64,31.46 C100.64,31.46 105.34,46.95 89.69,52.94 C76.12,58.08 67.28,43.46 67.28,43.46 Z" id="Path" stroke="#1B212B" fill="#FFFFFF"></path>
                    <path d="M94.24,50.6 C92.82,47.09 87.84,45.66 82.98,47.41 C80.5205184,48.246602 78.4279571,49.9114607 77.06,52.12 C78.274683,52.6333021 79.254683,52.9266355 80,53 C81.2413497,53.122191 83.2413497,53.122191 86,53 L91,52" id="Path" stroke="#1B212B" fill="#1B212B"></path>
                    <path d="M75.62,12.28 C73.7868383,9.23643175 70.1659617,7.76658779 66.7300684,8.67125733 C63.2941752,9.57592686 60.8666343,12.6383171 60.77,16.19 C57.5944238,14.5993564 53.750323,15.2928322 51.3307407,17.8928423 C48.9111583,20.4928524 48.4954657,24.3768219 50.31,27.43 C54.06,33.69 71.81,34.77 71.81,34.77 C71.81,34.77 80.41,20.27 75.62,12.28 Z" id="Path" stroke="#1B212B" fill="#1B212B"></path>
                    <path d="M101.22,9.25 C101.534624,6.39471016 99.9260383,3.67466741 97.2723829,2.57476662 C94.6187276,1.47486584 91.5575608,2.25936532 89.76,4.5 C88.5093295,1.90934204 85.6942225,0.460103004 82.8590336,0.947328607 C80.0238446,1.43455421 77.8540545,3.74044494 77.54,6.6 C76.89,12.45 87.76,21.83 87.76,21.83 C87.76,21.83 100.38,16.73 101.22,9.25 Z" id="Path" stroke="#1B212B" fill="#1B212B"></path>
                    <path d="M323.37,340.86 C315.835331,346.952861 313.710698,357.549199 318.31407,366.075814 C322.917442,374.602429 332.942362,378.639434 342.170099,375.682563 C351.397835,372.725692 357.209517,363.614118 356,354 L348,340 L341,337 L338,337 L326,339 L325,340 L323.37,340.86 Z" id="Path" stroke="#1B212B" fill="#F2C30E"></path>
                    <path d="M342.54,337.47 C341.542435,337.126364 340.519241,336.862206 339.48,336.68" id="Path" stroke="#263238"></path>
                    <path d="M347.37,363.1 C347.37,363.1 334.43,355.71 321.95,353.93 C321.95,353.93 318.37,365.72 330.3,370.28 C340.63,374.24 347.37,363.1 347.37,363.1 Z" id="Path" stroke="#1B212B" fill="#FFFFFF"></path>
                    <path d="M327,368 C328.08,365.33 331.7,364.78 335.4,366.11 C337.276545,366.742489 338.874564,368.008177 339.92,369.69 L336,371 L330,370 L328.688086,369.344043 L328,369 L327,368 Z" id="Path" stroke="#1B212B" fill="#1B212B"></path>
                    <path d="M341,339.35 C342.395893,337.024605 345.161338,335.902555 347.782872,336.597923 C350.404406,337.29329 352.250162,339.63847 352.31,342.35 C354.731315,341.1054 357.684554,341.619038 359.543463,343.608072 C361.402373,345.597105 361.71533,348.578296 360.31,350.91 C357.45,355.68 343.93,356.5 343.93,356.5 C343.93,356.5 337.37,345.44 341,339.35 Z" id="Path" stroke="#1B212B" fill="#1B212B"></path>
                    <path d="M321.52,337.05 C321.268588,334.872666 322.490742,332.792392 324.51504,331.95203 C326.539338,331.111667 328.875461,331.714767 330.24,333.43 C331.198936,331.464752 333.33989,330.36826 335.49502,330.738636 C337.650149,331.109013 339.302193,332.857363 339.55,335.03 C340.05,339.49 331.76,346.63 331.76,346.63 C331.76,346.63 322.15,342.74 321.52,337.05 Z" id="Path" stroke="#1B212B" fill="#1B212B"></path>
                </g>
            </g>
        </g>
    </g>
</svg>