<?xml version="1.0" encoding="UTF-8"?>
<svg width="276px" height="32px" viewBox="0 0 276 32" version="1.1" xmlns="http://www.w3.org/2000/svg" xmlns:xlink="http://www.w3.org/1999/xlink">
    <title>LOGO</title>
    <defs>
        <linearGradient x1="31.5052083%" y1="49.910814%" x2="63.6640625%" y2="50.0934391%" id="linearGradient-1">
            <stop stop-color="#505050" offset="0%"></stop>
            <stop stop-color="#171717" offset="100%"></stop>
        </linearGradient>
        <linearGradient x1="31.5052083%" y1="40.2009999%" x2="63.6640625%" y2="60.2662994%" id="linearGradient-2">
            <stop stop-color="#505050" offset="0%"></stop>
            <stop stop-color="#171717" offset="100%"></stop>
        </linearGradient>
    </defs>
    <g id="Page-1" stroke="none" stroke-width="1" fill="none" fill-rule="evenodd">
        <g id="Desktop-HD" transform="translate(-596.000000, -821.000000)" fill-rule="nonzero">
            <g id="Group-7" transform="translate(257.000000, 821.000000)">
                <g id="LOGO" transform="translate(339.000000, 0.000000)">
                    <path d="M58.9510419,26.7647059 C61.2559156,26.7647059 63.3002384,26.3431373 65.0840102,25.5 C66.8677821,24.6568627 68.2507063,23.4607843 69.232783,21.9117647 C70.2148596,20.3627451 70.7058979,18.5490196 70.7058979,16.4705882 C70.7058979,14.3921569 70.2148596,12.5784314 69.232783,11.0294118 C68.2507063,9.48039216 66.8677821,8.28431373 65.0840102,7.44117647 C63.3002384,6.59803922 61.2559156,6.17647059 58.9510419,6.17647059 L58.9510419,6.17647059 L49,6.17647059 L49,26.7647059 L58.9510419,26.7647059 Z M58.7105333,22.1176471 L54.952587,22.1176471 L54.952587,10.8235294 L58.7105333,10.8235294 C60.5143475,10.8235294 61.9624095,11.3235294 63.0547192,12.3235294 C64.147029,13.3235294 64.6931838,14.7058824 64.6931838,16.4705882 C64.6931838,18.2352941 64.147029,19.6176471 63.0547192,20.6176471 C61.9624095,21.6176471 60.5143475,22.1176471 58.7105333,22.1176471 L58.7105333,22.1176471 Z M79.2840367,26.7647059 L79.2840367,19.7058824 L88.57368,19.7058824 L88.57368,15.2058824 L79.2840367,15.2058824 L79.2840367,10.6764706 L89.83635,10.6764706 L89.83635,6.17647059 L73.3314498,6.17647059 L73.3314498,26.7647059 L79.2840367,26.7647059 Z M98.0837895,26.7647059 L98.0837895,6.17647059 L92.1312025,6.17647059 L92.1312025,26.7647059 L98.0837895,26.7647059 Z M103.655571,27 C104.477309,27 105.168771,26.7254902 105.729958,26.1764706 C106.291144,25.627451 106.571738,24.9411765 106.571738,24.1176471 C106.571738,23.2745098 106.291144,22.5931373 105.729958,22.0735294 C105.168771,21.5539216 104.477309,21.2941176 103.655571,21.2941176 C102.833834,21.2941176 102.142372,21.5539216 101.581185,22.0735294 C101.019998,22.5931373 100.739405,23.2745098 100.739405,24.1176471 C100.739405,24.9411765 101.019998,25.627451 101.581185,26.1764706 C102.142372,26.7254902 102.833834,27 103.655571,27 Z M125.401554,26.7647059 L125.401554,24.8823529 L112.744791,24.8823529 L112.744791,17.2352941 L123.627803,17.2352941 L123.627803,15.3823529 L112.744791,15.3823529 L112.744791,8.05882353 L124.9506,8.05882353 L124.9506,6.17647059 L110.520087,6.17647059 L110.520087,26.7647059 L125.401554,26.7647059 Z M129.500221,26.7647059 L136.264524,17.7058824 L143.058891,26.7647059 L145.644358,26.7647059 L137.617385,16.1176471 L145.07315,6.17647059 L142.668065,6.17647059 L136.354715,14.5882353 L130.011301,6.17647059 L127.455898,6.17647059 L134.941727,16.1764706 L126.944817,26.7647059 L129.500221,26.7647059 Z M157.469363,26.9411765 C159.032668,26.9411765 160.48073,26.6813725 161.813548,26.1617647 C163.146367,25.6421569 164.273751,24.8921569 165.1957,23.9117647 L165.1957,23.9117647 L163.782712,22.5294118 C162.15928,24.1764706 160.084893,25 157.559553,25 C155.896036,25 154.382836,24.627451 153.019954,23.8823529 C151.657072,23.1372549 150.589815,22.1176471 149.818184,20.8235294 C149.046552,19.5294118 148.660736,18.0784314 148.660736,16.4705882 C148.660736,14.8627451 149.046552,13.4117647 149.818184,12.1176471 C150.589815,10.8235294 151.657072,9.80392157 153.019954,9.05882353 C154.382836,8.31372549 155.896036,7.94117647 157.559553,7.94117647 C160.064851,7.94117647 162.139237,8.75490196 163.782712,10.3823529 L163.782712,10.3823529 L165.1957,9 C164.273751,8.01960784 163.151377,7.2745098 161.82858,6.76470588 C160.505783,6.25490196 159.062732,6 157.499426,6 C155.415019,6 153.531035,6.45098039 151.847475,7.35294118 C150.163915,8.25490196 148.846128,9.50490196 147.894115,11.1029412 C146.942102,12.7009804 146.466096,14.4901961 146.466096,16.4705882 C146.466096,18.4509804 146.942102,20.2401961 147.894115,21.8382353 C148.846128,23.4362745 150.158904,24.6862745 151.832443,25.5882353 C153.505982,26.4901961 155.384955,26.9411765 157.469363,26.9411765 Z M171.669389,26.7647059 L171.669389,17.2647059 L184.837233,17.2647059 L184.837233,26.7647059 L187.031874,26.7647059 L187.031874,6.17647059 L184.837233,6.17647059 L184.837233,15.3529412 L171.669389,15.3529412 L171.669389,6.17647059 L169.444685,6.17647059 L169.444685,26.7647059 L171.669389,26.7647059 Z M192.333083,26.7647059 L194.858423,21.2647059 L206.583216,21.2647059 L209.108556,26.7647059 L211.453514,26.7647059 L201.833171,6.17647059 L199.638531,6.17647059 L190.018188,26.7647059 L192.333083,26.7647059 Z M205.771499,19.5 L195.67014,19.5 L200.720819,8.44117647 L205.771499,19.5 Z M216.664533,26.7647059 L216.664533,10.0588235 L230.19314,26.7647059 L232.027017,26.7647059 L232.027017,6.17647059 L229.832377,6.17647059 L229.832377,22.8823529 L216.273707,6.17647059 L214.439829,6.17647059 L214.439829,26.7647059 L216.664533,26.7647059 Z M247.609968,26.9411765 C249.093104,26.9411765 250.506092,26.7156863 251.848932,26.2647059 C253.191771,25.8137255 254.354229,25.1666667 255.336306,24.3235294 L255.336306,24.3235294 L255.336306,16.4705882 L253.201792,16.4705882 L253.201792,23.4117647 C251.698614,24.4705882 249.864736,25 247.700159,25 C245.996557,25 244.463314,24.627451 243.100433,23.8823529 C241.737551,23.1372549 240.665283,22.1176471 239.883631,20.8235294 C239.101978,19.5294118 238.711151,18.0784314 238.711151,16.4705882 C238.711151,14.8627451 239.101978,13.4068627 239.883631,12.1029412 C240.665283,10.7990196 241.742561,9.77941176 243.115464,9.04411765 C244.488367,8.30882353 246.02662,7.94117647 247.730222,7.94117647 C250.295647,7.94117647 252.410118,8.74509804 254.073636,10.3529412 L254.073636,10.3529412 L255.45656,8.97058824 C254.534611,7.99019608 253.402216,7.25 252.059377,6.75 C250.716537,6.25 249.243422,6 247.640032,6 C245.515539,6 243.611513,6.45098039 241.927953,7.35294118 C240.244393,8.25490196 238.921596,9.50490196 237.959562,11.1029412 C236.997528,12.7009804 236.516511,14.4901961 236.516511,16.4705882 C236.516511,18.4509804 236.997528,20.2401961 237.959562,21.8382353 C238.921596,23.4362745 240.244393,24.6862745 241.927953,25.5882353 C243.611513,26.4901961 245.505518,26.9411765 247.609968,26.9411765 Z M276,26.7647059 L276,24.8823529 L263.343237,24.8823529 L263.343237,17.2352941 L274.226249,17.2352941 L274.226249,15.3823529 L263.343237,15.3823529 L263.343237,8.05882353 L275.549046,8.05882353 L275.549046,6.17647059 L261.118533,6.17647059 L261.118533,26.7647059 L276,26.7647059 Z" id="DFI.EXCHANGE" fill="url(#linearGradient-1)"></path>
                    <path d="M15.1288089,32 C18.632964,32 21.7409972,31.3447619 24.4529086,30.0342857 C27.1648199,28.7238095 29.267313,26.8647619 30.7603878,24.4571429 C32.2534626,22.0495238 33,19.2304762 33,16 C33,12.7695238 32.2534626,9.95047619 30.7603878,7.54285714 C29.267313,5.1352381 27.1648199,3.27619048 24.4529086,1.96571429 C21.7409972,0.655238095 18.632964,0 15.1288089,0 L15.1288089,0 L0,0 L0,32 L15.1288089,32 Z" id="D" fill="url(#linearGradient-2)"></path>
                </g>
            </g>
        </g>
    </g>
</svg>