<?xml version="1.0" encoding="UTF-8"?>
<svg width="336px" height="344px" viewBox="0 0 336 344" version="1.1" xmlns="http://www.w3.org/2000/svg" xmlns:xlink="http://www.w3.org/1999/xlink">
    <title>Make it rain-bro</title>
    <g id="Page-1" stroke="none" stroke-width="1" fill="none" fill-rule="evenodd">
        <g id="Desktop-HD" transform="translate(-12.000000, -907.000000)">
            <g id="Make-it-rain-bro" transform="translate(12.000000, 907.000000)">
                <g id="freepik--dollar-signs--inject-178" transform="translate(31.000000, 43.000000)" fill-rule="nonzero">
                    <path d="M221.093072,19.0526966 L221.093072,7.24617978 C221.004281,4.91748816 222.19003,2.72646981 224.183556,1.53560369 C226.177082,0.344737578 228.659128,0.344737578 230.652654,1.53560369 C232.64618,2.72646981 233.831928,4.91748816 233.743137,7.24617978 L233.743137,19.2298876 C251.460654,20.5448315 274.245621,28.1080899 274.245621,45.7525843 C274.189897,54.1591663 267.418782,60.9588065 259.052549,61.0096629 C246.383922,61.0096629 246.764444,43.3931461 233.743137,43.3931461 L233.743137,74.821236 L244.230719,76.8169663 C267.192026,81.1814607 283.285359,90.4420225 283.285359,116.237303 C283.285359,139.850337 267.006405,160.376517 233.743137,162.381573 L233.743137,180.361798 C233.831928,182.690489 232.64618,184.881508 230.652654,186.072374 C228.659128,187.26324 226.177082,187.26324 224.183556,186.072374 C222.19003,184.881508 221.004281,182.690489 221.093072,180.361798 L221.093072,162.381573 C200.470588,161.094607 175.532418,153.16764 175.532418,133.471461 C175.491129,124.789259 182.43801,117.704662 191.07817,117.617528 C205.510196,117.617528 206.512549,134.599888 221.093072,136.688876 L221.093072,103.703371 L210.243529,101.521124 C186.19634,96.6157303 174.632157,84.8092135 174.632157,61.0096629 C174.632157,37.5831461 193.788235,21.048427 221.093072,19.0526966 Z M219.821569,72.0980899 L221.093072,72.2752809 L221.093072,42.6657303 C210.419869,43.9340449 205.9,49.5668539 205.9,56.8316854 C205.9,66.4652809 210.419869,70.8204494 219.821569,72.0980899 Z M250.736732,121.142697 C250.736732,113.32764 246.764444,108.785955 236.453203,106.790225 L233.743137,106.249326 L233.743137,136.763483 C244.59268,135.308652 250.736732,130.403258 250.736732,121.142697 Z" id="Shape" fill="#F2C30E"></path>
                    <path d="M14.0793464,168.685843 L14.0793464,165.17 C14.0793464,164.124444 14.9228653,163.276854 15.9633987,163.276854 C17.003932,163.276854 17.847451,164.124444 17.847451,165.17 L17.847451,168.741798 C23.119085,169.133483 29.9128105,171.381011 29.9128105,176.631461 C29.8976121,179.133411 27.8828735,181.157874 25.3929412,181.173146 C21.6155556,181.173146 21.7269281,175.932022 17.856732,175.932022 L17.856732,185.257865 L20.9751634,185.854719 C27.8060131,187.151011 32.5950327,189.902135 32.5950327,197.586629 C32.5950327,204.608989 27.7596078,210.717416 17.856732,211.31427 L17.856732,216.667303 C17.856732,217.712859 17.0132131,218.560449 15.9726797,218.560449 C14.9321464,218.560449 14.0886275,217.712859 14.0886275,216.667303 L14.0886275,211.31427 C7.95385621,210.93191 0.529019608,208.572472 0.529019608,202.715843 C0.529019608,200.140582 2.60665247,198.052921 5.16954248,198.052921 C9.46666667,198.052921 9.81006536,203.107528 14.0979085,203.73236 L14.0979085,193.88427 L10.8681046,193.231461 C3.7124183,191.767303 0.269150327,188.260787 0.269150327,181.173146 C0.269150327,174.085506 5.95843137,169.282697 14.0793464,168.685843 Z M13.7081046,184.474494 L14.0793464,184.530449 L14.0793464,175.717528 C10.9052288,176.090562 9.55947712,177.769213 9.55947712,179.932809 C9.55947712,182.786517 10.9052288,184.092135 13.7081046,184.474494 Z M22.9056209,199.069438 C22.9056209,196.747303 21.7176471,195.395056 18.654902,194.798202 L17.847451,194.639663 L17.847451,203.723034 C21.0772549,203.303371 22.9056209,201.829888 22.9056209,199.069438 Z" id="Shape" fill="#F2C30E"></path>
                    <path d="M70.5359477,218.327303 L70.5359477,216.18236 C70.5359476,215.769216 70.7552983,215.387456 71.1113725,215.180884 C71.4674466,214.974312 71.9061481,214.974312 72.2622223,215.180884 C72.6182964,215.387456 72.8376471,215.769216 72.8376471,216.18236 L72.8376471,218.364607 C76.067451,218.597753 80.2067974,219.977978 80.2067974,223.186067 C80.2067974,224.731224 78.9602177,225.98382 77.4224837,225.98382 C75.1115033,225.98382 75.1857516,222.77573 72.7819608,222.77573 L72.7819608,228.483146 L74.6938562,228.846854 C78.8703268,229.639551 81.8031373,231.327528 81.8031373,236.018427 C81.8031373,240.31764 78.8424837,244.057303 72.7819608,244.411685 L72.7819608,247.67573 C72.7819607,248.314395 72.2667078,248.832135 71.6311111,248.832135 C70.9955145,248.832135 70.4802615,248.314395 70.4802614,247.67573 L70.4802614,244.411685 C66.7678431,244.178539 62.1922876,242.733034 62.1922876,239.15191 C62.1922132,237.576412 63.4551505,236.294896 65.0230065,236.279551 C67.6495425,236.279551 67.8073203,239.366404 70.4802614,239.748764 L70.4802614,233.733596 L68.5126797,233.332584 C64.1320261,232.446629 62.0159477,230.29236 62.0159477,225.965169 C62.0159477,221.637978 65.5334641,218.691011 70.5359477,218.327303 Z M70.3132026,227.979551 L70.5359477,227.979551 L70.5359477,222.589213 C68.5962092,222.82236 67.751634,223.848202 67.751634,225.163146 C67.751634,226.953708 68.559085,227.746404 70.2760784,227.979551 L70.3132026,227.979551 Z M75.9375163,236.904382 C75.9375163,235.486854 75.2135948,234.656854 73.3388235,234.293146 L72.8376471,234.190562 L72.8376471,239.786067 C74.7773856,239.48764 75.9003922,238.59236 75.9003922,236.876404 L75.9375163,236.904382 Z" id="Shape" fill="#F2C30E"></path>
                    <path d="M69.4593464,83.9978652 L69.4593464,80.4820225 C69.4593464,79.4519183 70.2903995,78.6168539 71.3155556,78.6168539 C72.3407116,78.6168539 73.1717647,79.4519183 73.1717647,80.4820225 L73.1717647,84.0444944 C78.4526797,84.4361798 85.2371242,86.6930337 85.2371242,91.9434831 C85.2219258,94.4454337 83.2071872,96.4698968 80.7172549,96.4851685 C76.9491503,96.4851685 77.0605229,91.2347191 73.1810458,91.2347191 L73.1810458,100.560562 L76.3087582,101.157416 C83.1396078,102.453708 87.9286275,105.214157 87.9286275,112.889326 C87.9286275,119.921011 83.0839216,126.029438 73.1810458,126.626292 L73.1810458,131.97 C73.1810458,133.000104 72.3499926,133.835169 71.3248366,133.835169 C70.2996806,133.835169 69.4686275,133.000104 69.4686275,131.97 L69.4686275,126.626292 C63.3245752,126.243933 55.9090196,123.884494 55.9090196,118.027865 C55.8966313,116.783122 56.3800678,115.585076 57.251681,114.700497 C58.1232942,113.815919 59.3107167,113.318252 60.5495425,113.318315 C64.8466667,113.318315 65.1436601,118.372921 69.4871895,118.997753 L69.4871895,109.186966 L66.2573856,108.543483 C59.1016993,107.079326 55.6584314,103.563483 55.6584314,96.4851685 C55.6584314,89.4068539 61.3291503,84.5853933 69.4593464,83.9978652 Z M69.0788235,99.7865169 L69.4593464,99.8424719 L69.4593464,91.0202247 C66.2852288,91.4025843 64.9394771,93.081236 64.9394771,95.2355056 C64.9673203,98.1078652 66.2852288,99.4041573 69.0788235,99.7865169 Z M78.2763399,114.390787 C78.2763399,112.059326 77.0976471,110.660449 74.0256209,110.119551 L73.2181699,109.951685 L73.2181699,119.035056 C76.4479739,118.596742 78.2763399,117.132584 78.2763399,114.381461 L78.2763399,114.390787 Z" id="Shape" fill="#F2C30E"></path>
                    <g id="Group" opacity="0.4" fill="#FFFFFF">
                        <path d="M221.093072,19.0526966 L221.093072,7.24617978 C221.004281,4.91748816 222.19003,2.72646981 224.183556,1.53560369 C226.177082,0.344737578 228.659128,0.344737578 230.652654,1.53560369 C232.64618,2.72646981 233.831928,4.91748816 233.743137,7.24617978 L233.743137,19.2298876 C251.460654,20.5448315 274.245621,28.1080899 274.245621,45.7525843 C274.189897,54.1591663 267.418782,60.9588065 259.052549,61.0096629 C246.383922,61.0096629 246.764444,43.3931461 233.743137,43.3931461 L233.743137,74.821236 L244.230719,76.8169663 C267.192026,81.1814607 283.285359,90.4420225 283.285359,116.237303 C283.285359,139.850337 267.006405,160.376517 233.743137,162.381573 L233.743137,180.361798 C233.831928,182.690489 232.64618,184.881508 230.652654,186.072374 C228.659128,187.26324 226.177082,187.26324 224.183556,186.072374 C222.19003,184.881508 221.004281,182.690489 221.093072,180.361798 L221.093072,162.381573 C200.470588,161.094607 175.532418,153.16764 175.532418,133.471461 C175.491129,124.789259 182.43801,117.704662 191.07817,117.617528 C205.510196,117.617528 206.512549,134.599888 221.093072,136.688876 L221.093072,103.703371 L210.243529,101.521124 C186.19634,96.6157303 174.632157,84.8092135 174.632157,61.0096629 C174.632157,37.5831461 193.788235,21.048427 221.093072,19.0526966 Z M219.821569,72.0980899 L221.093072,72.2752809 L221.093072,42.6657303 C210.419869,43.9340449 205.9,49.5668539 205.9,56.8316854 C205.9,66.4652809 210.419869,70.8204494 219.821569,72.0980899 Z M250.736732,121.142697 C250.736732,113.32764 246.764444,108.785955 236.453203,106.790225 L233.743137,106.249326 L233.743137,136.763483 C244.59268,135.308652 250.736732,130.403258 250.736732,121.142697 Z" id="Shape"></path>
                        <path d="M14.0793464,168.685843 L14.0793464,165.17 C14.0793464,164.124444 14.9228653,163.276854 15.9633987,163.276854 C17.003932,163.276854 17.847451,164.124444 17.847451,165.17 L17.847451,168.741798 C23.119085,169.133483 29.9128105,171.381011 29.9128105,176.631461 C29.8976121,179.133411 27.8828735,181.157874 25.3929412,181.173146 C21.6155556,181.173146 21.7269281,175.932022 17.856732,175.932022 L17.856732,185.257865 L20.9751634,185.854719 C27.8060131,187.151011 32.5950327,189.902135 32.5950327,197.586629 C32.5950327,204.608989 27.7596078,210.717416 17.856732,211.31427 L17.856732,216.667303 C17.856732,217.712859 17.0132131,218.560449 15.9726797,218.560449 C14.9321464,218.560449 14.0886275,217.712859 14.0886275,216.667303 L14.0886275,211.31427 C7.95385621,210.93191 0.529019608,208.572472 0.529019608,202.715843 C0.529019608,200.140582 2.60665247,198.052921 5.16954248,198.052921 C9.46666667,198.052921 9.81006536,203.107528 14.0979085,203.73236 L14.0979085,193.88427 L10.8681046,193.231461 C3.7124183,191.767303 0.269150327,188.260787 0.269150327,181.173146 C0.269150327,174.085506 5.95843137,169.282697 14.0793464,168.685843 Z M13.7081046,184.474494 L14.0793464,184.530449 L14.0793464,175.717528 C10.9052288,176.090562 9.55947712,177.769213 9.55947712,179.932809 C9.55947712,182.786517 10.9052288,184.092135 13.7081046,184.474494 Z M22.9056209,199.069438 C22.9056209,196.747303 21.7176471,195.395056 18.654902,194.798202 L17.847451,194.639663 L17.847451,203.723034 C21.0772549,203.303371 22.9056209,201.829888 22.9056209,199.069438 Z" id="Shape"></path>
                        <path d="M70.5359477,218.327303 L70.5359477,216.18236 C70.5359476,215.769216 70.7552983,215.387456 71.1113725,215.180884 C71.4674466,214.974312 71.9061481,214.974312 72.2622223,215.180884 C72.6182964,215.387456 72.8376471,215.769216 72.8376471,216.18236 L72.8376471,218.364607 C76.067451,218.597753 80.2067974,219.977978 80.2067974,223.186067 C80.2067974,224.731224 78.9602177,225.98382 77.4224837,225.98382 C75.1115033,225.98382 75.1857516,222.77573 72.7819608,222.77573 L72.7819608,228.483146 L74.6938562,228.846854 C78.8703268,229.639551 81.8031373,231.327528 81.8031373,236.018427 C81.8031373,240.31764 78.8424837,244.057303 72.7819608,244.411685 L72.7819608,247.67573 C72.7819607,248.314395 72.2667078,248.832135 71.6311111,248.832135 C70.9955145,248.832135 70.4802615,248.314395 70.4802614,247.67573 L70.4802614,244.411685 C66.7678431,244.178539 62.1922876,242.733034 62.1922876,239.15191 C62.1922132,237.576412 63.4551505,236.294896 65.0230065,236.279551 C67.6495425,236.279551 67.8073203,239.366404 70.4802614,239.748764 L70.4802614,233.733596 L68.5126797,233.332584 C64.1320261,232.446629 62.0159477,230.29236 62.0159477,225.965169 C62.0159477,221.637978 65.5334641,218.691011 70.5359477,218.327303 Z M70.3132026,227.979551 L70.5359477,227.979551 L70.5359477,222.589213 C68.5962092,222.82236 67.751634,223.848202 67.751634,225.163146 C67.751634,226.953708 68.559085,227.746404 70.2760784,227.979551 L70.3132026,227.979551 Z M75.9375163,236.904382 C75.9375163,235.486854 75.2135948,234.656854 73.3388235,234.293146 L72.8376471,234.190562 L72.8376471,239.786067 C74.7773856,239.48764 75.9003922,238.59236 75.9003922,236.876404 L75.9375163,236.904382 Z" id="Shape"></path>
                        <path d="M69.4593464,83.9978652 L69.4593464,80.4820225 C69.4593464,79.4519183 70.2903995,78.6168539 71.3155556,78.6168539 C72.3407116,78.6168539 73.1717647,79.4519183 73.1717647,80.4820225 L73.1717647,84.0444944 C78.4526797,84.4361798 85.2371242,86.6930337 85.2371242,91.9434831 C85.2219258,94.4454337 83.2071872,96.4698968 80.7172549,96.4851685 C76.9491503,96.4851685 77.0605229,91.2347191 73.1810458,91.2347191 L73.1810458,100.560562 L76.3087582,101.157416 C83.1396078,102.453708 87.9286275,105.214157 87.9286275,112.889326 C87.9286275,119.921011 83.0839216,126.029438 73.1810458,126.626292 L73.1810458,131.97 C73.1810458,133.000104 72.3499926,133.835169 71.3248366,133.835169 C70.2996806,133.835169 69.4686275,133.000104 69.4686275,131.97 L69.4686275,126.626292 C63.3245752,126.243933 55.9090196,123.884494 55.9090196,118.027865 C55.8966313,116.783122 56.3800678,115.585076 57.251681,114.700497 C58.1232942,113.815919 59.3107167,113.318252 60.5495425,113.318315 C64.8466667,113.318315 65.1436601,118.372921 69.4871895,118.997753 L69.4871895,109.186966 L66.2573856,108.543483 C59.1016993,107.079326 55.6584314,103.563483 55.6584314,96.4851685 C55.6584314,89.4068539 61.3291503,84.5853933 69.4593464,83.9978652 Z M69.0788235,99.7865169 L69.4593464,99.8424719 L69.4593464,91.0202247 C66.2852288,91.4025843 64.9394771,93.081236 64.9394771,95.2355056 C64.9673203,98.1078652 66.2852288,99.4041573 69.0788235,99.7865169 Z M78.2763399,114.390787 C78.2763399,112.059326 77.0976471,110.660449 74.0256209,110.119551 L73.2181699,109.951685 L73.2181699,119.035056 C76.4479739,118.596742 78.2763399,117.132584 78.2763399,114.381461 L78.2763399,114.390787 Z" id="Shape"></path>
                    </g>
                </g>
                <g id="freepik--Shadow--inject-178" transform="translate(120.000000, 303.000000)" fill="#F2C30E" fill-rule="nonzero">
                    <ellipse id="Oval" cx="47.2419802" cy="20.4906818" rx="46.4788119" ry="20.2856818"></ellipse>
                </g>
                <g id="freepik--Character--inject-178" transform="translate(105.000000, 53.000000)">
                    <path d="M52.54336,255.658067 C52.54336,255.658067 44.60896,260.1802 42.24256,264.452133 C39.87616,268.724067 42.09408,269.085467 46.88256,267.398933 C51.67104,265.7124 58.696,255.0372 58.696,255.0372 L52.54336,255.658067 Z" id="Path" stroke="#263238" fill="#FFFFFF" fill-rule="nonzero" stroke-linecap="round" stroke-linejoin="round"></path>
                    <path d="M73.312,257.613333 C73.312,257.613333 68.208,268.687 67.744,273.691 C67.28,278.695 71.99424,278.852533 74.75968,275.4702 C77.52512,272.087867 78.19328,257.1222 78.19328,257.1222 C78.19328,257.1222 74.03584,259.077467 73.312,257.613333 Z" id="Path" stroke="#263238" fill="#FFFFFF" fill-rule="nonzero" stroke-linecap="round" stroke-linejoin="round"></path>
                    <path d="M38.28928,111.2 C38.28928,111.2 31.25504,127.741 26.37376,140.964533 C21.49248,154.188067 20.3696,189.3736 20.648,192.144333 C20.9264,194.915067 50.91936,254.916733 52.54336,255.685867 C54.16736,256.455 58.70528,255.065 58.70528,255.065 L39.904,185.833733 L49.4624,151.046667 C49.4624,151.046667 46.74336,188.891733 47.43008,192.5428 C48.1168,196.193867 72.12416,258.0396 72.12416,258.0396 C72.12416,258.0396 75.48352,261.1254 77.45088,259.0682 C78.6552031,257.639499 79.2514676,255.796729 79.112,253.934467 C79.112,253.934467 74.06368,213.161133 73.41408,206.674467 C72.76448,200.1878 69.1824,186.2878 69.1824,186.2878 C69.1824,186.2878 83.46432,139.834 83.62208,135.1636 C83.77984,130.4932 83.62208,119.4844 83.62208,119.4844 C83.62208,119.4844 47.25376,116.76 38.28928,111.2 Z" id="Path" stroke="#1B212B" fill="#1B212B" fill-rule="nonzero" stroke-linecap="round" stroke-linejoin="round"></path>
                    <line x1="47.86624" y1="155.967267" x2="43.81088" y2="133.541933" id="Path" stroke="#FFFFFF" stroke-linecap="round" stroke-linejoin="round"></line>
                    <line x1="46.3072" y1="149.425" x2="41.31456" y2="142.261867" id="Path" stroke="#FFFFFF" stroke-linecap="round" stroke-linejoin="round"></line>
                    <path d="M78.96352,49.1133333 C78.96352,49.1133333 74.78752,48.8075333 67.976,47.8808667 C61.16448,46.9542 52.97952,45.1008667 51.58752,47.5658 C50.19552,50.0307333 37.4448,109.652467 37.4448,111.959867 C37.4448,114.267267 52.05152,119.076667 61.33152,120.93 C70.61152,122.783333 81.74752,123.71 83.13952,122.477533 C84.53152,121.245067 101.07776,61.0024667 101.384,59.3066667 C101.69024,57.6108667 99.37952,55.6 96.744,54.6733333 C94.10848,53.7466667 78.96352,49.1133333 78.96352,49.1133333 Z" id="Path" stroke="#263238" fill="#F2C30E" fill-rule="nonzero" stroke-linecap="round" stroke-linejoin="round"></path>
                    <path d="M88.08576,50.5033333 C88.08576,50.5033333 78.34176,68.7308667 73.544,82.01 C68.74624,95.2891333 61.33152,119.076667 58.54752,128.806667 C55.76352,138.536667 55.29952,151.667533 56.06976,152.5942 C56.84,153.520867 75.25152,149.193333 81.432,146.876667 C87.61248,144.56 88.70752,143.633333 89.784,142.400867 C90.86048,141.1684 85.92352,120.160867 86.85152,115.527533 C87.77952,110.8942 99.992,82.01 102.93376,73.3642 C105.87552,64.7184 107.416,57.1475333 105.41152,56.5266667 C103.40704,55.9058 91.33376,50.3458 88.08576,50.5033333 Z" id="Path" fill="#FFFFFF" fill-rule="nonzero"></path>
                    <g id="Group" transform="translate(55.680000, 77.840000)">
                        <path d="M42.52096,7.91373333 L38.4192,0.278 C38.4192,0.278 12.14752,39.198 10.5792,41.3756667 C9.7904,42.4691333 8.46336,39.3555333 7.32192,36.2512 C5.46592,42.2096667 3.87904,47.4916667 2.88608,50.9666667 C0.10208,60.6966667 -0.36192,73.8275333 0.40832,74.7542 C1.17856,75.6808667 19.59008,71.3533333 25.77056,69.0366667 C31.95104,66.72 33.04608,65.7933333 34.12256,64.5608667 C35.19904,63.3284 30.26208,42.3208667 31.19008,37.6875333 C31.81184,34.472 37.88096,19.6175333 42.52096,7.91373333 Z" id="Path" fill="#000000" fill-rule="nonzero" opacity="0.2"></path>
                        <polyline id="Path" stroke="#263238" stroke-linecap="round" stroke-linejoin="round" points="26.20672 44.4892667 9.1872 47.8808667 8.42624 50.9110667 25.06528 48.2608"></polyline>
                    </g>
                    <path d="M88.08576,50.5033333 C88.08576,50.5033333 78.34176,68.7308667 73.544,82.01 C68.74624,95.2891333 61.33152,119.076667 58.54752,128.806667 C55.76352,138.536667 55.29952,151.667533 56.06976,152.5942 C56.84,153.520867 75.25152,149.193333 81.432,146.876667 C87.61248,144.56 88.70752,143.633333 89.784,142.400867 C90.86048,141.1684 85.92352,120.160867 86.85152,115.527533 C87.77952,110.8942 99.992,82.01 102.93376,73.3642 C105.87552,64.7184 107.416,57.1475333 105.41152,56.5266667 C103.40704,55.9058 91.33376,50.3458 88.08576,50.5033333 Z" id="Path" stroke="#263238" stroke-linecap="round" stroke-linejoin="round"></path>
                    <path d="M71.38176,48.65 C67.4158742,55.5145123 63.8013083,62.5755214 60.552,69.8058 C55.14176,81.8524667 47.41152,94.9833333 44.312,101.1642 C42.4815504,104.797422 40.9304124,108.56437 39.672,112.432467 C39.672,112.432467 39.82976,98.8475333 40.45152,90.5075333 C41.07328,82.1675333 42.30752,73.0491333 41.992,71.1958 C41.67648,69.3424667 20.49952,66.72 11.52576,63.6342 C2.552,60.5484 13.53952,49.2708667 16.62976,49.2708667 C19.72,49.2708667 35.496,50.6608667 40.6,48.4924667 C45.704,46.3240667 46.48352,45.4066667 51.42976,45.4066667 C56.376,45.4066667 71.38176,48.65 71.38176,48.65 Z" id="Path" fill="#FFFFFF" fill-rule="nonzero"></path>
                    <path d="M53.0352,84.929 C55.4016,80.481 57.84224,75.6623333 59.98592,71.029 L47.64352,66.5717333 L41.08256,56.2764667 L41.08256,64.6998667 L36.71168,58.7784667 L25.1488,54.4046 L12.45376,51.7914 C8.74176,55.3034667 5.25248,61.4658 11.52576,63.6249333 C20.49952,66.7107333 41.68576,69.3332 41.992,71.1865333 C42.18688,72.3634 41.76928,76.45 41.26816,81.3798667 L53.0352,84.929 Z" id="Path" fill="#000000" fill-rule="nonzero" opacity="0.2"></path>
                    <path d="M71.38176,48.65 C67.4158742,55.5145123 63.8013083,62.5755214 60.552,69.8058 C55.14176,81.8524667 47.41152,94.9833333 44.312,101.1642 C42.4815504,104.797422 40.9304124,108.56437 39.672,112.432467 C39.672,112.432467 39.82976,98.8475333 40.45152,90.5075333 C41.07328,82.1675333 42.30752,73.0491333 41.992,71.1958 C41.67648,69.3424667 20.49952,66.72 11.52576,63.6342 C2.552,60.5484 13.53952,49.2708667 16.62976,49.2708667 C19.72,49.2708667 35.496,50.6608667 40.6,48.4924667 C45.704,46.3240667 46.48352,45.4066667 51.42976,45.4066667 C56.376,45.4066667 71.38176,48.65 71.38176,48.65 Z" id="Path" stroke="#263238" stroke-linecap="round" stroke-linejoin="round"></path>
                    <polyline id="Path" stroke="#263238" stroke-linecap="round" stroke-linejoin="round" points="41.78784 60.7615333 41.992 71.1958 37.24992 60.3816"></polyline>
                    <path d="M74.472,45.2491333 C74.472,45.2491333 71.38176,46.1758 70.91776,47.5658 C70.45376,48.9558 70.296,54.3675333 68.904,55.7575333 C67.512,57.1475333 62.56576,59.6124667 64.11552,60.0758 C65.66528,60.5391333 73.08,56.99 73.08,56.99 C73.08,56.99 75.55776,49.1133333 76.02176,47.4175333 C76.48576,45.7217333 74.472,45.2491333 74.472,45.2491333 Z" id="Path" stroke="#263238" fill="#F2C30E" fill-rule="nonzero" stroke-linecap="round" stroke-linejoin="round"></path>
                    <path d="M77.41376,54.6733333 C77.41376,54.6733333 76.02176,66.5624667 77.10752,65.6358 C78.19328,64.7091333 78.184,62.7075333 79.89152,60.8542 C81.59904,59.0008667 88.70752,54.9791333 89.784,52.82 C90.86048,50.6608667 90.86976,47.5658 90.09952,46.7966667 C89.5926446,46.3272562 88.9343004,46.0544359 88.24352,46.0275333 C88.24352,46.0275333 78.184,52.0508667 77.256,52.3566667 C76.328,52.6624667 77.41376,54.6733333 77.41376,54.6733333 Z" id="Path" stroke="#263238" fill="#F2C30E" fill-rule="nonzero" stroke-linecap="round" stroke-linejoin="round"></path>
                    <path d="M75.55776,40.0042 C75.55776,40.0042 74.008,46.7966667 73.70176,48.9558 C73.39552,51.1149333 71.53952,62.2442 71.53952,62.2442 C71.53952,62.2442 77.256,54.6733333 77.87776,54.21 C78.49952,53.7466667 87.928,49.2708667 88.54976,47.7233333 C89.17152,46.1758 92.72576,36.2975333 92.72576,36.2975333 C92.72576,36.2975333 81.74752,42.3208667 75.55776,40.0042 Z" id="Path" stroke="#263238" fill="#FFFFFF" fill-rule="nonzero" stroke-linecap="round" stroke-linejoin="round"></path>
                    <path d="M78.38816,13.2328 C78.38816,13.2328 73.06144,26.9104 72.48608,31.0896667 C71.91072,35.2689333 73.06144,42.6822667 78.19328,44.3873333 C83.32512,46.0924 90.36864,40.9679333 91.89056,39.4482 C93.0076846,38.2671534 94.025724,36.9964326 94.9344,35.6488667 C94.9344,35.6488667 100.456,28.8100667 101.59744,26.5304667 C102.73888,24.2508667 106.54368,17.9773333 105.02176,13.2328 C103.49984,8.48826667 93.41248,7.15386667 87.90016,7.91373333 C82.38784,8.6736 78.38816,13.2328 78.38816,13.2328 Z" id="Path" stroke="#263238" fill="#FFFFFF" fill-rule="nonzero" stroke-linecap="round" stroke-linejoin="round"></path>
                    <path d="M83.13952,23.8709333 C83.13952,23.8709333 78.76864,25.3906667 78.38816,26.5304667 C78.00768,27.6702667 80.85664,29.19 80.85664,29.19" id="Path" stroke="#263238" stroke-linecap="round" stroke-linejoin="round"></path>
                    <path d="M76.48576,31.275 C76.48576,31.275 77.41376,32.9893333 81.23712,33.1746667 C83.4897378,33.2978649 85.7139016,32.6253413 87.51968,31.275 C87.51968,31.275 84.41088,36.6033333 82.50848,37.9377333 C81.3708644,38.710942 79.9015824,38.8033063 78.67584,38.1786667 C78.7002551,36.9833088 78.4726072,35.7961887 78.00768,34.6944 L76.48576,31.275 Z" id="Path" stroke="#263238" stroke-linecap="round" stroke-linejoin="round"></path>
                    <path d="M85.376,34.8241333 C85.376,34.8241333 80.0864,37.4002667 77.9984,34.6944" id="Path" stroke="#263238" stroke-width="0.5" stroke-linecap="round" stroke-linejoin="round"></path>
                    <line x1="86.4896" y1="30.6356" x2="88.87456" y2="31.5900667" id="Path" stroke="#263238" stroke-linecap="round" stroke-linejoin="round"></line>
                    <path d="M77.46944,10.1933333 C77.46944,10.1933333 72.91296,13.3069333 69.79488,8.0342 C66.4912,2.4742 79.91008,-1.74213333 93.60736,0.7228 C107.30464,3.18773333 108.45536,10.6103333 107.68512,15.7348 C106.91488,20.8592667 100.456,29.6348 100.456,29.6348 C100.456,29.6348 99.31456,31.7198 98.368,29.4402 C97.42144,27.1606 99.50944,24.1211333 99.69504,23.1759333 C99.88064,22.2307333 95.50976,21.4616 96.4656,19.182 C97.42144,16.9024 99.31456,17.8568667 97.79264,15.5772667 C96.27072,13.2976667 91.89056,14.0575333 85.4224,15.1973333 C78.95424,16.3371333 72.90368,14.7154667 77.46944,10.1933333 Z" id="Path" stroke="#1B212B" fill="#1B212B" fill-rule="nonzero" stroke-linecap="round" stroke-linejoin="round"></path>
                    <path d="M105.29088,14.2799333 C106.035549,15.0400217 106.417457,16.0828539 106.33952,17.1433333" id="Path" stroke="#FFFFFF" stroke-width="0.5" stroke-linecap="round" stroke-linejoin="round"></path>
                    <path d="M81.05152,7.18166667 C81.05152,7.18166667 75.71552,10.1933333 79.89152,11.815 C84.06752,13.4366667 89.86752,7.87666667 97.98752,10.1933333 C100.090697,10.7245041 102.076436,11.6420991 103.8432,12.8992" id="Path" stroke="#FFFFFF" stroke-width="0.5" stroke-linecap="round" stroke-linejoin="round"></path>
                    <path d="M94.50752,7.645 C94.50752,7.645 104.71552,7.41333333 107.03552,12.7416667" id="Path" stroke="#FFFFFF" stroke-width="0.5" stroke-linecap="round" stroke-linejoin="round"></path>
                    <path d="M99.37952,18.07 C99.37952,18.07 103.09152,20.3866667 103.78752,23.63" id="Path" stroke="#FFFFFF" stroke-width="0.5" stroke-linecap="round" stroke-linejoin="round"></path>
                    <path d="M100.53952,30.1166667 L96.20576,23.1018 C96.20576,22.9072 96.26144,22.7126 96.28,22.5087333 C96.2994412,22.27765 96.1448036,22.0678034 95.91808,22.0176 L86.68448,19.9604 C86.6145917,19.9415031 86.5409283,19.9415031 86.47104,19.9604 L83.55712,19.0337333 C83.4932356,18.9633365 83.4088482,18.9147214 83.31584,18.8947333 L74.08224,16.8282667 C73.8397542,16.7753322 73.5984927,16.9223311 73.53472,17.1618667 C73.53472,17.2916 72.67168,20.433 73.01504,22.0824667 C73.38624,23.9358 75.90112,25.5296667 78.30464,25.5296667 L78.36032,25.5296667 C80.39264,25.5296667 82.71264,23.6763333 83.46432,20.711 C83.8251031,20.5621321 84.2188433,20.5109874 84.60576,20.5627333 C85.06976,20.6461333 85.53376,21.1928667 85.81216,21.6747333 C85.5519522,22.8138797 85.4860677,23.988699 85.61728,25.1497333 C85.98848,27.0030667 88.49408,28.6062 90.90688,28.6062 L90.944,28.6062 C92.8668615,28.430871 94.5537602,27.2538529 95.37984,25.5111333 L99.50944,30.9136 L100.53952,30.1166667 Z" id="Path" fill="#263238" fill-rule="nonzero"></path>
                    <g id="Group" transform="translate(72.384000, 20.386667)" fill="#F2C30E" fill-rule="nonzero">
                        <path d="M23.64544,3.59546667 C20.63872,5.7824 18.07744,4.29046667 15.4512,3.59546667 C14.7115097,3.37290716 13.9306488,3.32219242 13.16832,3.4472 C13.1364344,3.90223965 13.1582374,4.35944484 13.23328,4.8094 C13.60448,6.66273333 16.11008,8.26586667 18.52288,8.26586667 L18.56,8.26586667 C20.4828615,8.09053762 22.1697602,6.91351955 22.99584,5.1708 L22.99584,5.1708 C23.041934,4.59074339 23.2691396,4.03975129 23.64544,3.59546667 Z" id="Path"></path>
                        <path d="M0.63104,1.7514 C1.00224,3.60473333 3.51712,5.1986 5.92064,5.1986 L5.97632,5.1986 C8.01891475,4.99002256 9.78079214,3.67585523 10.56064,1.7792 C10.2781605,1.77697347 9.99590132,1.79555723 9.71616,1.8348 C6.00416,2.32593333 6.30112,0.3336 3.1552,0.3336 C2.24794978,0.311924178 1.35024029,0.522471149 0.54752,0.9452 C0.549931857,1.21595679 0.577895526,1.48588387 0.63104,1.7514 Z" id="Path"></path>
                    </g>
                    <path d="M100.53952,30.1166667 L96.20576,23.1018 C96.20576,22.9072 96.26144,22.7126 96.28,22.5087333 C96.2994412,22.27765 96.1448036,22.0678034 95.91808,22.0176 L86.68448,19.9604 C86.6145917,19.9415031 86.5409283,19.9415031 86.47104,19.9604 L83.55712,19.0337333 C83.4932356,18.9633365 83.4088482,18.9147214 83.31584,18.8947333 L74.08224,16.8282667 C73.8397542,16.7753322 73.5984927,16.9223311 73.53472,17.1618667 C73.53472,17.2916 72.67168,20.433 73.01504,22.0824667 C73.38624,23.9358 75.90112,25.5296667 78.30464,25.5296667 L78.36032,25.5296667 C80.39264,25.5296667 82.71264,23.6763333 83.46432,20.711 C83.8251031,20.5621321 84.2188433,20.5109874 84.60576,20.5627333 C85.06976,20.6461333 85.53376,21.1928667 85.81216,21.6747333 C85.5519522,22.8138797 85.4860677,23.988699 85.61728,25.1497333 C85.98848,27.0030667 88.49408,28.6062 90.90688,28.6062 L90.944,28.6062 C92.8668615,28.430871 94.5537602,27.2538529 95.37984,25.5111333 L99.50944,30.9136 L100.53952,30.1166667 Z" id="Path" stroke="#1B212B" stroke-width="0.5"></path>
                    <path d="M95.89024,32.0348667 C95.89024,32.0348667 100.83648,26.5304667 102.38624,29.19 C103.936,31.8495333 98.77632,36.0288 97.2544,36.0288 C96.124126,35.9057057 95.0586797,35.4400405 94.20128,34.6944" id="Path" stroke="#263238" fill="#FFFFFF" fill-rule="nonzero" stroke-linecap="round" stroke-linejoin="round"></path>
                    <path d="M28.69376,65.0242 L31.17152,55.1366667 L26.66144,54.3397333 C26.66144,54.3397333 25.056,61.3546 28.69376,65.0242 Z" id="Path" stroke="#263238" fill="#FFFFFF" fill-rule="nonzero" stroke-linecap="round" stroke-linejoin="round"></path>
                    <path d="M30.856,61.7808667 L36.27552,54.9791333 L31.17152,55.1366667 C31.17152,55.1366667 29.77952,59.4642 30.856,61.7808667 Z" id="Path" stroke="#263238" fill="#FFFFFF" fill-rule="nonzero" stroke-linecap="round" stroke-linejoin="round"></path>
                    <path d="M37.816,48.8075333 C37.816,48.8075333 43.07776,44.1742 45.704,43.8591333 C48.9164445,43.3164809 52.0746291,42.4916332 55.14176,41.3942 C56.69152,40.7733333 58.05568,40.4675333 57.34112,42.0243333 C56.32032,44.2205333 52.82176,44.9433333 52.82176,44.9433333 C52.82176,44.9433333 61.17376,42.7842 62.408,43.2475333 C63.64224,43.7108667 62.872,45.1008667 61.944,45.5642 C61.016,46.0275333 59.93952,46.6391333 59.93952,46.6391333 C59.93952,46.6391333 66.74176,43.8591333 67.36352,45.87 C67.98528,47.8808667 63.02976,49.4191333 63.02976,49.4191333 C63.02976,49.4191333 65.97152,49.2708667 65.656,50.6608667 C65.34048,52.0508667 58.54752,54.0524667 57.61952,54.5158 C56.5164712,54.8711027 55.3713796,55.0798517 54.21376,55.1366667 C54.21376,55.1366667 58.38976,56.8324667 58.38976,57.4533333 C58.38976,58.0742 59.16,59.4642 57.768,59.77 C56.376,60.0758 56.22752,58.6858 53.74976,57.9166667 C51.272,57.1475333 49.26752,57.2958 46.168,56.6842 C44.2720813,56.2946023 42.4473744,55.6163991 40.75776,54.6733333 L29.77952,57.6108667 L32.09952,48.4924667 L37.816,48.8075333 Z" id="Path" stroke="#263238" fill="#FFFFFF" fill-rule="nonzero" stroke-linecap="round" stroke-linejoin="round"></path>
                    <line x1="52.82176" y1="44.9433333" x2="47.71776" y2="46.6391333" id="Path" stroke="#263238" stroke-linecap="round" stroke-linejoin="round"></line>
                    <line x1="59.93952" y1="46.6391333" x2="52.82176" y2="48.65" id="Path" stroke="#263238" stroke-linecap="round" stroke-linejoin="round"></line>
                    <line x1="63.02976" y1="49.4191333" x2="53.90752" y2="51.5875333" id="Path" stroke="#263238" stroke-linecap="round" stroke-linejoin="round"></line>
                    <path d="M46.78976,49.1133333 C45.3559284,50.6908414 43.3527785,51.6343029 41.22176,51.7358" id="Path" stroke="#263238" stroke-linecap="round" stroke-linejoin="round"></path>
                    <path d="M34.72576,48.3442 L28.38752,47.8808667 C27.8161104,49.5486695 27.3511776,51.2509735 26.99552,52.9775333 C26.37376,55.9058 27.144,61.3175333 27.144,61.3175333 L30.856,61.7808667 C30.856,61.7808667 33.02752,53.2833333 34.72576,48.3442 Z" id="Path" stroke="#263238" fill="#FFFFFF" fill-rule="nonzero" stroke-linecap="round" stroke-linejoin="round"></path>
                    <path d="M30.856,48.0291333 C29.7677925,50.7120641 28.9894337,53.5101298 28.536,56.3691333 C28.2877505,59.2518082 28.340622,62.1524554 28.69376,65.0242 C28.69376,65.0242 11.368,63.6342 6.42176,63.6342 C1.47552,63.6342 -1.16,55.4424667 2.088,51.7358 C5.336,48.0291333 10.44,46.7966667 14.93152,47.26 C19.42304,47.7233333 30.856,48.0291333 30.856,48.0291333 Z" id="Path" fill="#FFFFFF" fill-rule="nonzero"></path>
                    <path d="M7.97152,57.8518 L0.85376,57.8518 C1.47552,60.882 3.55424,63.6342 6.42176,63.6342 C11.368,63.6342 28.69376,65.0242 28.69376,65.0242 C28.340622,62.1524554 28.2877505,59.2518082 28.536,56.3691333 C28.536,56.3691333 16.09152,57.8518 7.97152,57.8518 Z" id="Path" fill="#000000" fill-rule="nonzero" opacity="0.2"></path>
                    <path d="M30.856,48.0291333 C29.7677925,50.7120641 28.9894337,53.5101298 28.536,56.3691333 C28.2877505,59.2518082 28.340622,62.1524554 28.69376,65.0242 C28.69376,65.0242 11.368,63.6342 6.42176,63.6342 C1.47552,63.6342 -1.16,55.4424667 2.088,51.7358 C5.336,48.0291333 10.44,46.7966667 14.93152,47.26 C19.42304,47.7233333 30.856,48.0291333 30.856,48.0291333 Z" id="Path" stroke="#263238" stroke-linecap="round" stroke-linejoin="round"></path>
                    <path d="M48.80352,92.5091333 C48.80352,92.5091333 26.80992,110.023133 19.46944,115.6758 C11.02464,122.162467 6.16192,125.201933 7.50752,127.416667 C8.85312,129.6314 19.03328,137.656333 23.92384,139.8618 C28.8144,142.067267 48.80352,92.5091333 48.80352,92.5091333 Z" id="Path" fill="#FFFFFF" fill-rule="nonzero"></path>
                    <path d="M48.80352,92.5091333 C48.80352,92.5091333 26.80992,110.023133 19.46944,115.6758 C11.02464,122.162467 6.16192,125.201933 7.50752,127.416667 C8.85312,129.6314 19.03328,137.656333 23.92384,139.8618 C28.8144,142.067267 48.80352,92.5091333 48.80352,92.5091333 Z" id="Path" fill="#000000" fill-rule="nonzero" opacity="0.2"></path>
                    <path d="M48.80352,92.5091333 C48.80352,92.5091333 26.80992,110.023133 19.46944,115.6758 C11.02464,122.162467 6.16192,125.201933 7.50752,127.416667 C8.85312,129.6314 19.03328,137.656333 23.92384,139.8618 C28.8144,142.067267 48.80352,92.5091333 48.80352,92.5091333 Z" id="Path" stroke="#263238" stroke-linecap="round" stroke-linejoin="round"></path>
                    <path d="M50.68736,60.9468667 C50.68736,60.9468667 47.45792,55.0903333 45.41632,53.0609333 C43.37472,51.0315333 41.35168,48.6407333 41.35168,48.6407333 L53.41568,46.6113333 C53.41568,46.6113333 56.96064,53.3204 58.6032,55.5258667 C59.9537523,57.6846549 61.0646328,59.9840118 61.91616,62.3832 L50.68736,60.9468667 Z" id="Path" stroke="#263238" stroke-width="0.5" fill="#F2C30E" fill-rule="nonzero" stroke-linecap="round" stroke-linejoin="round"></path>
                    <path d="M52.12576,49.0021333 L45.30496,50.04 C45.30496,50.04 50.32544,56.6100667 51.52256,59.7144 L59.41984,60.5576667 C59.41984,60.5576667 53.9168,50.4292 52.12576,49.0021333 Z" id="Path" stroke="#263238" stroke-width="0.5" fill="#F2C30E" fill-rule="nonzero" stroke-linecap="round" stroke-linejoin="round"></path>
                    <path d="M53.66624,54.0895333 C54.34368,55.183 54.26016,56.4710667 53.47136,56.9529333 C52.68256,57.4348 51.49472,56.9529333 50.81728,55.8594667 C50.13984,54.766 50.22336,53.4779333 51.01216,52.9960667 C51.80096,52.5142 52.9888,52.9960667 53.66624,54.0895333 Z" id="Path" stroke="#263238" stroke-width="0.5" fill="#F2C30E" fill-rule="nonzero" stroke-linecap="round" stroke-linejoin="round"></path>
                    <path d="M51.55968,59.2325333 C51.55968,59.2325333 48.98912,53.0516667 47.19808,50.8091333 C45.40704,48.5666 43.63456,45.9719333 43.63456,45.9719333 L55.87488,45.2769333 C55.87488,45.2769333 58.65888,52.3381333 60.0416,54.7011333 C61.42432,57.0641333 62.58432,61.8828 62.58432,61.8828 L51.55968,59.2325333 Z" id="Path" stroke="#263238" stroke-width="0.5" fill="#F2C30E" fill-rule="nonzero" stroke-linecap="round" stroke-linejoin="round"></path>
                    <path d="M54.30656,47.5102 L47.40224,47.8252667 C47.40224,47.8252667 51.68032,54.9142667 52.5248,58.1298 L60.28288,59.8256 C60.28288,59.8256 55.93056,49.1133333 54.30656,47.5102 Z" id="Path" stroke="#263238" stroke-width="0.5" fill="#F2C30E" fill-rule="nonzero" stroke-linecap="round" stroke-linejoin="round"></path>
                    <path d="M55.28096,52.7366 C55.82848,53.9042 55.60576,55.1644667 54.77056,55.5629333 C53.93536,55.9614 52.8032,55.3405333 52.25568,54.1822 C51.70816,53.0238667 51.9216,51.7543333 52.7568,51.3558667 C53.592,50.9574 54.752,51.5782667 55.28096,52.7366 Z" id="Path" stroke="#263238" stroke-width="0.5" fill="#F2C30E" fill-rule="nonzero" stroke-linecap="round" stroke-linejoin="round"></path>
                    <path d="M55.29024,61.0395333 C55.29024,61.0395333 53.37856,54.6362667 51.8288,52.2176667 C50.27904,49.7990667 48.79424,47.0376 48.79424,47.0376 L61.03456,47.6214 C61.03456,47.6214 63.06688,54.9328 64.19904,57.4255333 C65.3312,59.9182667 65.97152,64.8388667 65.97152,64.8388667 L55.29024,61.0395333 Z" id="Path" stroke="#263238" stroke-width="0.5" fill="#F2C30E" fill-rule="nonzero" stroke-linecap="round" stroke-linejoin="round"></path>
                    <path d="M59.23424,49.6693333 L52.34848,49.2708667 C52.34848,49.2708667 55.85632,56.7676 56.35744,60.0572667 L63.90208,62.55 C63.90208,62.55 60.68192,51.4578 59.23424,49.6693333 Z" id="Path" stroke="#263238" stroke-width="0.5" fill="#F2C30E" fill-rule="nonzero" stroke-linecap="round" stroke-linejoin="round"></path>
                    <path d="M59.66112,54.9791333 C60.088,56.1930667 59.73536,57.4255333 58.86304,57.7591333 C57.99072,58.0927333 56.9328,57.3328667 56.50592,56.1189333 C56.07904,54.905 56.43168,53.6725333 57.304,53.3389333 C58.17632,53.0053333 59.23424,53.7466667 59.66112,54.9791333 Z" id="Path" stroke="#263238" stroke-width="0.5" fill="#F2C30E" fill-rule="nonzero" stroke-linecap="round" stroke-linejoin="round"></path>
                    <path d="M73.70176,72.1224667 C71.9347386,69.9465912 70.2837052,67.6792954 68.75552,65.33 C67.976,63.7824667 69.368,62.2442 66.89952,59.6124667 C64.43104,56.9807333 62.56576,55.4424667 62.10176,54.3675333 C61.63776,53.2926 60.552,53.5891333 59.93952,54.8308667 C59.32704,56.0726 60.40352,58.0742 61.33152,58.5375333 C61.9967543,58.9292451 62.5746872,59.452737 63.02976,60.0758 C63.02976,60.0758 58.232,58.6858 56.84,58.38 C55.448,58.0742 48.64576,55.2942 47.56,55.1366667 C46.47424,54.9791333 44.16352,54.5158 44.46976,56.3691333 C44.776,58.2224667 47.25376,59.1491333 47.25376,59.1491333 C47.25376,59.1491333 47.56,63.3191333 49.26752,65.7933333 C50.97504,68.2675333 53.90752,69.1942 56.22752,70.4266667 C58.54752,71.6591333 64.57952,72.5858 64.57952,72.5858 L69.06176,78.6091333 L73.70176,72.1224667 Z" id="Path" stroke="#263238" fill="#FFFFFF" fill-rule="nonzero" stroke-linecap="round" stroke-linejoin="round"></path>
                    <path d="M47.25376,59.1491333 C47.25376,59.1491333 51.35552,62.0959333 53.14656,63.4118 C54.0674851,64.1395848 55.1290194,64.6695893 56.26464,64.9686" id="Path" stroke="#263238" stroke-linecap="round" stroke-linejoin="round"></path>
                    <path d="M47.8848,62.3368667 C47.8848,62.3368667 50.27904,64.3662667 51.71744,65.5616667 C52.9835604,66.4225195 54.4049162,67.0298976 55.90272,67.3501333" id="Path" stroke="#263238" stroke-linecap="round" stroke-linejoin="round"></path>
                    <polygon id="Path" stroke="#263238" fill="#FFFFFF" fill-rule="nonzero" stroke-linecap="round" stroke-linejoin="round" points="77.72 75.6808667 73.85952 71.1958 66.12 81.0833333 69.52576 84.79"></polygon>
                    <path d="M95.352,54.5158 C95.352,54.5158 111.592,56.99 113.76352,57.7591333 C115.93504,58.5282667 116.696,61.6233333 114.84,67.8042 C112.984,73.9850667 104.78976,107.956667 103.09152,109.81 C101.39328,111.663333 94.58176,110.736667 86.69376,105.019133 C78.80576,99.3016 67.976,85.4108667 67.976,85.4108667 L77.57152,74.7542 L92.568,87.57 L96.59552,68.4158" id="Path" fill="#FFFFFF" fill-rule="nonzero"></path>
                    <path d="M103.09152,109.81 C104.78976,107.956667 112.984,73.9758 114.84,67.8042 C116.696,61.6326 115.92576,58.5375333 113.76352,57.7591333 L113.5872,57.7035333 C112.13952,63.2635333 105.6528,88.2835333 104.8176,94.659 C103.8896,101.8314 101.69024,104.018333 89.82112,99.2923333 C80.28128,95.5300667 71.34464,87.9406667 68.208,85.1050667 L67.976,85.3645333 C67.976,85.3645333 78.80576,99.2645333 86.69376,104.9728 C94.58176,110.681067 101.384,111.663333 103.09152,109.81 Z" id="Path" fill="#000000" fill-rule="nonzero" opacity="0.2"></path>
                    <path d="M95.352,54.5158 C95.352,54.5158 111.592,56.99 113.76352,57.7591333 C115.93504,58.5282667 116.696,61.6233333 114.84,67.8042 C112.984,73.9850667 104.78976,107.956667 103.09152,109.81 C101.39328,111.663333 94.58176,110.736667 86.69376,105.019133 C78.80576,99.3016 67.976,85.4108667 67.976,85.4108667 L77.57152,74.7542 L92.568,87.57 L96.59552,68.4158" id="Path" stroke="#263238" stroke-linecap="round" stroke-linejoin="round"></path>
                    <path d="M92.568,87.57 C92.568,87.57 100.77152,92.8242 102.312,93.13" id="Path" stroke="#263238" fill="#FFFFFF" fill-rule="nonzero" stroke-linecap="round" stroke-linejoin="round"></path>
                </g>
                <g id="freepik--Money--inject-178" transform="translate(15.000000, 30.000000)" fill="#F2C30E" fill-rule="nonzero" stroke="#263238" stroke-linecap="round" stroke-linejoin="round" stroke-width="0.5">
                    <polygon id="Path" points="90.1755017 37.4694444 85.9496886 47.7646825 105.971107 51.9424603 109.638443 42.5611111"></polygon>
                    <polygon id="Path" points="92.4094118 39.6702381 89.440173 46.8974206 103.504498 49.8349206 106.073495 43.2418651"></polygon>
                    <path d="M100.44218,43.6708333 C100.895723,44.5967008 100.73742,45.7063342 100.043151,46.4678371 C99.3488821,47.2293401 98.2601475,47.48751 97.2988258,47.1185946 C96.3375042,46.7496792 95.6995234,45.8288675 95.6906958,44.7975452 C95.6818681,43.766223 96.3039929,42.8345849 97.2588581,42.4492063 C97.8423796,42.1857871 98.5067154,42.1666332 99.1043915,42.3959966 C99.7020676,42.6253599 100.183631,43.0842623 100.44218,43.6708333 Z" id="Path"></path>
                    <polygon id="Path" points="59.6919377 59.8876984 69.1767474 66.6113095 83.1014533 52.875 74.3612803 46.8974206"></polygon>
                    <polygon id="Path" points="63.1731142 58.9458333 69.8376125 63.6738095 79.6109689 54.0220238 73.4770242 49.8255952"></polygon>
                    <path d="M71.3361938,54.2365079 C72.8813149,54.2831349 74.1285813,55.2436508 74.1285813,56.3906746 C74.1285813,57.5376984 72.844083,58.4236111 71.3361938,58.3769841 C69.8283045,58.3303571 68.5438062,57.3698413 68.590346,56.2228175 C68.6368858,55.0757937 69.8096886,54.189881 71.3361938,54.2365079 Z" id="Path"></path>
                    <polygon id="Path" points="38.4418685 84.2083333 49.8906574 86.1853175 56.5551557 67.7956349 46.1023183 66.1543651"></polygon>
                    <polygon id="Path" points="41.1784083 81.8583333 49.2204844 83.2478175 53.9116955 70.3321429 46.5677163 69.185119"></polygon>
                    <path d="M46.5397924,74.0902778 C47.9452941,73.4654762 49.4717993,73.8105159 49.9465052,74.8456349 C50.4212111,75.880754 49.6579585,77.2422619 48.2431488,77.8577381 C46.8283391,78.4732143 45.3111419,78.1375 44.836436,77.102381 C44.3617301,76.0672619 45.1156747,74.705754 46.5397924,74.0902778 Z" id="Path"></path>
                    <polygon id="Path" points="37.5017647 13.652381 44.8178201 22.6886905 61.9258478 13.2513889 55.1310381 5.11964286"></polygon>
                    <polygon id="Path" points="41.1039446 13.6896825 46.2419377 20.0402778 58.2585121 13.4099206 53.4928374 7.70277778"></polygon>
                    <path d="M50.2629758,11.3676587 C51.7336332,11.8339286 52.6551211,13.0928571 52.3293426,14.1652778 C52.003564,15.2376984 50.5422145,15.769246 49.0715571,15.3029762 C47.6008997,14.8367063 46.6794118,13.5777778 47.0051903,12.5053571 C47.3309689,11.4329365 48.7643945,10.9013889 50.2629758,11.3676587 Z" id="Path"></path>
                    <polygon id="Path" points="57.8582699 143.303373 68.4972664 139.060317 60.5389619 121.202183 50.9424567 125.202778"></polygon>
                    <polygon id="Path" points="58.3608997 140.06746 65.8351903 137.083333 60.2411073 124.540675 53.5021453 127.356944"></polygon>
                    <ellipse id="Oval" transform="translate(59.084581, 132.285828) rotate(-47.300000) translate(-59.084581, -132.285828) " cx="59.084581" cy="132.285828" rx="2.5156927" ry="2.29173191"></ellipse>
                    <polygon id="Path" points="127.128097 20.7117063 138.567578 20.1242063 136.771142 0.652777778 126.402076 1.34285714"></polygon>
                    <polygon id="Path" points="128.645294 17.8115079 136.678062 17.4011905 135.421488 3.72083333 128.133356 4.20575397"></polygon>
                    <path d="M130.218339,9.01765873 C131.198329,8.10087675 132.719526,8.10087675 133.699516,9.01765873 C134.121973,9.48541522 134.332595,10.1073513 134.281474,10.7360898 C134.230352,11.3648284 133.922036,11.9444121 133.429585,12.3375 C132.454523,13.2576765 130.932778,13.2576765 129.957716,12.3375 C129.536789,11.8697825 129.326292,11.2492651 129.375579,10.6214391 C129.424866,9.99361316 129.729603,9.41369571 130.218339,9.01765873 L130.218339,9.01765873 Z" id="Path"></path>
                    <polygon id="Path" points="221.408408 66.1543651 224.079792 77.3168651 242.863253 71.9734127 240.27564 61.8926587"></polygon>
                    <polygon id="Path" points="224.535882 67.114881 226.406782 74.9575397 239.605467 71.1994048 237.790415 64.1214286"></polygon>
                    <path d="M233.452907,67.0589286 C234.535108,67.8518708 234.812652,69.3525955 234.085848,70.4813492 C233.706095,70.9840727 233.135873,71.307235 232.510163,71.3743379 C231.884454,71.4414408 231.258878,71.2465191 230.781522,70.8357143 C229.703224,70.0369621 229.423036,68.5398262 230.139273,67.4039683 C230.523774,66.9044111 231.095952,66.5847088 231.722233,66.5194958 C232.348515,66.4542828 232.974086,66.6492667 233.452907,67.0589286 L233.452907,67.0589286 Z" id="Path"></path>
                    <polygon id="Path" points="221.650415 42.3186508 233.089896 42.8781746 233.238824 23.3134921 222.851142 22.9777778"></polygon>
                    <polygon id="Path" points="223.446851 39.5769841 231.479619 39.9779762 231.591315 26.2323413 224.293875 25.9992063"></polygon>
                    <path d="M225.894844,30.9882937 C226.955944,30.1705132 228.469104,30.321704 229.348097,31.3333333 C229.724283,31.840935 229.873712,32.482017 229.760828,33.1040426 C229.647944,33.7260682 229.28284,34.2734236 228.752388,34.615873 C227.691288,35.4336535 226.178128,35.2824626 225.299135,34.2708333 C224.922948,33.7632317 224.77352,33.1221497 224.886404,32.5001241 C224.999288,31.8780984 225.364392,31.3307431 225.894844,30.9882937 L225.894844,30.9882937 Z" id="Path"></path>
                    <polygon id="Path" points="237.930035 174.338294 249.360208 174.897817 249.509135 155.34246 239.130761 154.997421"></polygon>
                    <polygon id="Path" points="239.726471 171.605952 247.759239 171.997619 247.861626 158.26131 240.564187 158.018849"></polygon>
                    <path d="M242.165156,163.017262 C243.229245,162.198329 244.745483,162.349421 245.627716,163.362302 C246.00078,163.869319 246.148361,164.508152 246.035583,165.127828 C245.922805,165.747505 245.559674,166.293042 245.032007,166.635516 C243.968917,167.451981 242.456543,167.305348 241.569446,166.299802 C241.195977,165.791276 241.048201,165.151024 241.160929,164.52986 C241.273657,163.908696 241.636922,163.361534 242.165156,163.017262 Z" id="Path"></path>
                    <polygon id="Path" points="256.676263 145.662698 268.106436 146.222222 268.255363 126.65754 257.87699 126.321825"></polygon>
                    <polygon id="Path" points="258.472699 142.930357 266.505467 143.322024 266.607855 129.576389 259.310415 129.343254"></polygon>
                    <path d="M260.911384,134.341667 C261.974474,133.525202 263.486848,133.671835 264.373945,134.677381 C264.747414,135.185906 264.89519,135.826158 264.782462,136.447323 C264.669734,137.068487 264.306469,137.615649 263.778235,137.959921 C262.714146,138.778853 261.197908,138.627762 260.315675,137.614881 C259.942611,137.107863 259.79503,136.469031 259.907808,135.849354 C260.020586,135.229678 260.383717,134.684141 260.911384,134.341667 Z" id="Path"></path>
                    <polygon id="Path" points="184.874671 166.784722 193.447301 174.394246 205.789654 159.240476 197.905813 152.460913"></polygon>
                    <polygon id="Path" points="187.983529 165.777579 194.005779 171.130357 202.680796 160.480754 197.142561 155.715476"></polygon>
                    <path d="M195.262353,160.61131 C196.603115,160.644366 197.689246,161.712154 197.747578,163.054563 C197.722635,163.685152 197.438464,164.277319 196.962453,164.690634 C196.486442,165.10395 195.860993,165.301598 195.234429,165.236706 C193.89326,165.213094 192.803244,164.145576 192.749204,162.802778 C192.774343,162.17152 193.058211,161.578589 193.53386,161.163823 C194.009508,160.749057 194.634831,160.549172 195.262353,160.61131 Z" id="Path"></path>
                    <polygon id="Path" points="0.493321799 62.6853175 9.06595156 70.2948413 21.4083045 55.1410714 13.5244637 48.3615079"></polygon>
                    <polygon id="Path" points="3.60217993 61.6781746 9.62442907 67.0309524 18.2994464 56.3813492 12.7519031 51.6160714"></polygon>
                    <path d="M10.8810035,56.5119048 C12.2217656,56.5449609 13.307897,57.6127495 13.3662284,58.9551587 C13.3412858,59.5857468 13.0571141,60.1779137 12.5811033,60.5912293 C12.1050926,61.0045448 11.4796437,61.2021928 10.8530796,61.1373016 C9.53257381,61.1103874 8.45458229,60.0709782 8.37716263,58.75 C8.38988959,58.1123039 8.66703567,57.5087044 9.14207924,57.0840796 C9.6171228,56.6594549 10.2471732,56.4521434 10.8810035,56.5119048 Z" id="Path"></path>
                    <polygon id="Path" points="21.6223875 181.472222 32.9780969 182.95496 34.7186851 163.474206 24.3868512 162.289881"></polygon>
                    <polygon id="Path" points="23.6329066 178.889087 31.6191349 179.933532 32.8291696 166.253175 25.5782699 165.413889"></polygon>
                    <path d="M26.7696886,170.524206 C27.8968866,169.792987 29.3973844,170.066687 30.1950173,171.149008 C30.5267094,171.687237 30.621858,172.338796 30.4579714,172.949666 C30.2940849,173.560537 29.8857089,174.076502 29.3293772,174.375595 C28.2041012,175.100856 26.7102551,174.827626 25.9133564,173.750794 C25.5809483,173.213727 25.484395,172.563066 25.6464797,171.952345 C25.8085644,171.341623 26.2149299,170.824937 26.7696886,170.524206 L26.7696886,170.524206 Z" id="Path"></path>
                    <polygon id="Path" points="45.7765398 226.700397 57.1322491 228.19246 58.8635294 208.711706 48.5410035 207.527381"></polygon>
                    <polygon id="Path" points="47.7870588 224.126587 55.7639792 225.171032 56.9833218 211.481349 49.7324221 210.651389"></polygon>
                    <path d="M50.9238408,215.761706 C52.0481484,215.03157 53.5455884,215.305457 54.3398616,216.386508 C54.6719206,216.92213 54.7682769,217.571425 54.6061168,218.180665 C54.4439567,218.789904 54.0376985,219.304918 53.4835294,219.60377 C52.3563314,220.334989 50.8558336,220.061289 50.0582007,218.978968 C49.7296256,218.441495 49.6362427,217.792258 49.7999799,217.183708 C49.9637171,216.575158 50.3701498,216.060905 50.9238408,215.761706 L50.9238408,215.761706 Z" id="Path"></path>
                    <polygon id="Path" points="200.828512 233.293452 212.184221 234.77619 213.92481 215.295437 203.602284 214.111111"></polygon>
                    <polygon id="Path" points="202.848339 230.710317 210.82526 231.754762 212.044602 218.074405 204.793702 217.235119"></polygon>
                    <path d="M205.975813,222.345437 C207.103011,221.614217 208.603509,221.887917 209.401142,222.970238 C209.73355,223.507305 209.830103,224.157966 209.668019,224.768687 C209.505934,225.379408 209.099568,225.896094 208.54481,226.196825 C207.415702,226.918386 205.922299,226.64598 205.119481,225.572024 C204.787073,225.034957 204.69052,224.384296 204.852604,223.773575 C205.014689,223.162853 205.421054,222.646168 205.975813,222.345437 L205.975813,222.345437 Z" id="Path"></path>
                    <polygon id="Path" points="210.099239 110.515278 212.770623 121.677778 231.544775 116.334325 228.966471 106.253571"></polygon>
                    <polygon id="Path" points="213.217405 111.475794 215.097612 119.318452 228.28699 115.569643 226.471938 108.482341"></polygon>
                    <path d="M222.134429,111.419841 C223.216877,112.215984 223.497727,113.716656 222.776678,114.851587 C222.392178,115.351144 221.82,115.670847 221.193718,115.73606 C220.567437,115.801273 219.941866,115.606289 219.463045,115.196627 C218.379577,114.400313 218.102224,112.896528 218.830104,111.764881 C219.212887,111.265874 219.783485,110.946335 220.408273,110.881094 C221.033061,110.815853 221.657165,111.010641 222.134429,111.419841 Z" id="Path"></path>
                    <polygon id="Path" points="67.8177855 182.050397 70.4891696 193.212897 89.2726298 187.869444 86.6850173 177.78869"></polygon>
                    <polygon id="Path" points="70.9452595 183.010913 72.8161592 190.853571 86.0148443 187.104762 84.1997924 180.01746"></polygon>
                    <path d="M79.8622837,182.95496 C80.9415534,183.753908 81.218245,185.254103 80.4952249,186.386706 C80.1124416,186.885713 79.5418439,187.205253 78.9170557,187.270493 C78.2922676,187.335734 77.6681642,187.140946 77.1908997,186.731746 C76.109729,185.938968 75.8286908,184.44137 76.5486505,183.309325 C76.9301333,182.80606 77.5019357,182.482746 78.1291329,182.415672 C78.7563302,182.348599 79.3833665,182.543708 79.8622837,182.95496 Z" id="Path"></path>
                    <polygon id="Path" points="119.988893 45.4613095 112.244671 53.4438492 129.278235 64.7835317 136.156817 57.435119"></polygon>
                    <polygon id="Path" points="121.236159 48.3335317 115.800311 53.9474206 127.770346 61.9113095 132.601176 56.7450397"></polygon>
                    <ellipse id="Oval" cx="124.717336" cy="55.0384921" rx="2.49453287" ry="2.31269841"></ellipse>
                    <polygon id="Path" points="103.439343 52.6232143 99.2135294 62.9184524 119.234948 67.0962302 122.902284 57.714881"></polygon>
                    <polygon id="Path" points="105.673253 54.8240079 102.704014 62.0511905 116.768339 64.9886905 119.337336 58.3956349"></polygon>
                    <path d="M113.706021,58.8246032 C114.159564,59.7504706 114.001261,60.860104 113.306992,61.621607 C112.612723,62.3831099 111.523988,62.6412798 110.562667,62.2723644 C109.601345,61.903449 108.963364,60.9826373 108.954537,59.9513151 C108.945709,58.9199928 109.567834,57.9883547 110.522699,57.6029762 C111.10622,57.339557 111.770556,57.3204031 112.368232,57.5497664 C112.965908,57.7791297 113.447472,58.2380321 113.706021,58.8246032 L113.706021,58.8246032 Z" id="Path"></path>
                </g>
            </g>
        </g>
    </g>
</svg>