<?xml version="1.0" encoding="UTF-8"?>
<svg width="333px" height="310px" viewBox="0 0 333 310" version="1.1" xmlns="http://www.w3.org/2000/svg" xmlns:xlink="http://www.w3.org/1999/xlink">
    <title>Meeting-bro</title>
    <g id="Page-1" stroke="none" stroke-width="1" fill="none" fill-rule="evenodd">
        <g id="Desktop-HD" transform="translate(-147.000000, -237.000000)">
            <g id="Meeting-bro" transform="translate(147.000000, 237.000000)">
                <g id="freepik--Plants--inject-6" fill-rule="nonzero">
                    <path d="M68.8,20.15 C68.8,20.15 73.48,16.46 74.67,14.09 C75.67,12.09 76.43,9.22 75.38,7.09 C74.9186373,6.04538121 74.0327879,5.24776296 72.9456643,4.89812567 C71.8585407,4.54848838 70.6738116,4.68017365 69.69,5.26 C66.81,7.05 66.5,13.16 67.24,16.1 C67.3,16.33 68.75,20.19 68.8,20.15 Z" id="Path" fill="#F2C30E"></path>
                    <path d="M25.55,50.93 C25.74,51.11 29.08,53.52 29.1,53.47 C29.12,53.42 30.96,47.81 30.65,45.17 C30.39,42.92 29.43,40.17 27.37,38.92 C26.4083679,38.3056389 25.2301216,38.1312427 24.1317527,38.4406962 C23.0333837,38.7501498 22.1194748,39.5139879 21.62,40.54 C20.2,43.62 23.32,48.88 25.55,50.93 Z" id="Path" fill="#F2C30E"></path>
                    <path d="M123.56,25.75 C123.56,25.75 106.44,43.43 106.56,65.14 C106.68,86.85 123.93,104.38 123.93,104.38 C123.93,104.38 141.06,86.71 140.93,64.99 C140.8,43.27 123.56,25.75 123.56,25.75 Z" id="Path" fill="#F2C30E"></path>
                    <path d="M99.15,78.14 C99.3752094,77.8988326 99.5824317,77.6414759 99.77,77.37 C101.01,75.48 102.08,72.73 101.28,70.47 C100.941273,69.3801281 100.153122,68.486851 99.1139287,68.0150112 C98.074735,67.5431714 96.8834768,67.5377094 95.84,68 C93.51,69.1 92.37,72.83 92.13,75.88 C91.2,75.67 90.36,75.51 89.64,75.38 C89.34,74.69 89.03,74 88.71,73.3 C88.39,72.6 88.14,71.85 87.84,71.11 C87.43,70.03 87.07,68.89 86.7,67.75 C88.05,67.15 91.99,65.3 93.46,63.68 C94.93,62.06 96.46,59.44 96,57.09 C95.8287478,55.9631094 95.184875,54.9628015 94.2300664,54.3402663 C93.2752577,53.7177311 92.1002127,53.5321046 91,53.83 C87.74,54.83 85.83,60.61 85.77,63.64 C85.77,63.73 85.77,64.37 85.88,65.14 C85.56,64.02 85.22,62.9 84.93,61.75 C84.09,58.5 83.34,55.16 82.58,51.82 C82.42,51.13 82.25,50.43 82.09,49.74 C83.23,49.23 87.52,47.27 89.09,45.57 C90.66,43.87 92.09,41.33 91.63,38.98 C91.4587478,37.8531094 90.814875,36.8528015 89.8600664,36.2302663 C88.9052577,35.6077311 87.7302127,35.4221046 86.63,35.72 C83.38,36.72 81.47,42.5 81.4,45.53 C81.4,45.63 81.46,46.4 81.54,47.26 C81.1,45.45 80.64,43.65 80.12,41.88 C79.2569824,38.8342402 78.1878495,35.8506913 76.92,32.95 C77.33,32.78 82.41,30.58 84.12,28.69 C85.63,27.01 87.12,24.45 86.65,22.1 C86.4787478,20.9731094 85.834875,19.9728015 84.8800664,19.3502663 C83.9252577,18.7277311 82.7502127,18.5421046 81.65,18.84 C78.4,19.84 76.49,25.62 76.42,28.65 C76.42,28.86 76.67,31.65 76.79,32.65 C76.7860176,32.6167856 76.7860176,32.5832144 76.79,32.55 C75.4777128,29.7341747 73.91827,27.0402874 72.13,24.5 C70.5394939,22.223545 68.8200163,20.0399753 66.98,17.96 C65.29,15.96 63.63,14.34 62.15,12.87 C61.34,12.08 60.58,11.37 59.87,10.72 L59.94,10.72 C60,10.72 58.36,6.94 58.23,6.72 C56.71,4.1 52.23,-0.07 48.92,0.65 C47.806004,0.895699175 46.849915,1.6053513 46.2921822,2.60048408 C45.7344494,3.59561687 45.6281437,4.78153907 46,5.86 C46.74,8.14 49.26,9.67 51.39,10.41 C53.52,11.15 58.39,10.8 59.56,10.69 C60.28,11.39 61.05,12.14 61.88,12.98 C63.33,14.48 64.95,16.19 66.59,18.16 C67.03,18.69 67.48,19.27 67.92,19.83 C66.98,19.04 65.66,17.99 65.52,17.9 C62.97,16.28 57.07,14.64 54.47,16.8 C53.6000592,17.5492393 53.0940057,18.6361669 53.080612,19.7841988 C53.0672183,20.9322307 53.5477758,22.0306688 54.4,22.8 C56.1,24.48 59.05,24.68 61.29,24.35 C63.53,24.02 67.79,21.35 68.7,20.82 C69.7,22.06 70.63,23.37 71.56,24.82 C73.2690894,27.3511805 74.7515045,30.0282281 75.99,32.82 C76.06,32.98 76.11,33.16 76.18,33.32 C75.78,32.85 73.4,30.45 73.18,30.32 C70.82,28.42 65.18,26.15 62.31,28.01 C61.3727144,28.6607622 60.7579686,29.6808375 60.6204362,30.813569 C60.4829039,31.9463004 60.8356786,33.0838488 61.59,33.94 C63.1,35.8 66,36.32 68.26,36.24 C70.87,36.15 76,33.56 76.19,33.46 C77.3431393,36.2944756 78.3118261,39.2005359 79.09,42.16 C79.67,44.35 80.18,46.59 80.66,48.84 C80.13,48.24 77.91,46.01 77.73,45.84 C75.37,43.95 69.73,41.67 66.86,43.54 C65.9227144,44.1907622 65.3079686,45.2108375 65.1704362,46.343569 C65.0329039,47.4763004 65.3856786,48.6138488 66.14,49.47 C67.65,51.32 70.55,51.85 72.81,51.77 C75.36,51.67 80.29,49.21 80.7,49 L81.36,52.08 C82.05,55.43 82.73,58.79 83.5,62.08 C83.77,63.22 84.07,64.34 84.37,65.46 C83.54,64.59 82,63.04 81.85,62.92 C79.49,61.03 73.85,58.75 70.98,60.62 C70.0427144,61.2707622 69.4279686,62.2908375 69.2904362,63.423569 C69.1529039,64.5563004 69.5056786,65.6938488 70.26,66.55 C71.77,68.4 74.67,68.93 76.93,68.84 C79.19,68.75 83.39,66.78 84.57,66.21 C85.08,68.07 85.63,69.9 86.26,71.68 C86.55,72.44 86.79,73.24 87.11,73.95 L87.59,75.09 L87,75 C87,75 86.95,76.06 87.05,77.78 C84.56,76.01 80.97,74.48 78.63,75.55 C77.6056853,76.0513374 76.8440649,76.9660563 76.5365733,78.0642405 C76.2290817,79.1624248 76.4049597,80.3396432 77.02,81.3 C77.1668831,81.5580361 77.3412292,81.7994384 77.54,82.02 C77.9812966,84.6494267 79.089992,87.121611 80.76,89.2 C80.89,89.34 82.58,90.91 83.46,91.69 C82.61,91.22 81.76,90.77 80.88,90.27 C79.61,89.57 78.29,88.78 77,88.02 L75,86.76 C74.32,86.35 73.72,85.87 73.07,85.42 C72.13,84.75 71.19,84 70.26,83.26 C71.05,82 73.32,78.26 73.65,76.12 C73.98,73.98 73.8,70.94 72.13,69.23 C71.3706678,68.3689983 70.2780023,67.8757513 69.13,67.8757513 C67.9819977,67.8757513 66.8893322,68.3689983 66.13,69.23 C63.95,71.83 65.56,77.73 67.18,80.29 C67.18,80.38 67.63,80.88 68.1,81.48 C67.21,80.73 66.32,79.98 65.44,79.18 C62.95,76.93 60.44,74.56 58,72.18 L56.44,70.71 C57.12,69.66 59.61,65.66 59.96,63.39 C60.31,61.12 60.11,58.21 58.44,56.49 C57.6806678,55.6289983 56.5880023,55.1357513 55.44,55.1357513 C54.2919977,55.1357513 53.1993322,55.6289983 52.44,56.49 C50.26,59.09 51.87,64.99 53.44,67.56 C53.5,67.65 53.98,68.25 54.52,68.92 C53.15,67.66 51.77,66.41 50.36,65.22 C47.9605529,63.1582089 45.4248004,61.2605707 42.77,59.54 C43.02,59.17 46.04,54.54 46.42,52.02 C46.76,49.78 46.57,46.84 44.9,45.12 C44.1406678,44.2589983 43.0480023,43.7657513 41.9,43.7657513 C40.7519977,43.7657513 39.6593322,44.2589983 38.9,45.12 C36.72,47.72 38.33,53.62 39.9,56.19 C40.01,56.37 41.75,58.54 42.39,59.29 L42.3,59.23 C39.6537662,57.5990098 36.8658026,56.2100483 33.97,55.08 C31.3886417,54.0599275 28.7509913,53.1885013 26.07,52.47 C23.59,51.78 21.28,51.3 19.23,50.89 C18.12,50.68 17.1,50.5 16.15,50.35 L16.15,50.35 C16.15,50.35 12.74,48.06 12.51,47.95 C9.8,46.6 3.76,45.59 1.4,48.02 C0.604415574,48.8571597 0.209493827,49.9973293 0.316817925,51.1472303 C0.424142024,52.2971314 1.02323644,53.3445261 1.96,54.02 C3.83,55.51 6.78,55.4 8.96,54.83 C11.14,54.26 14.96,51.31 15.96,50.57 C16.96,50.75 17.96,50.95 19.16,51.19 C21.16,51.65 23.49,52.19 25.94,52.92 C26.6,53.11 27.29,53.35 27.94,53.57 C26.72,53.44 25.04,53.29 24.88,53.29 C21.88,53.34 16.03,55.23 15.05,58.47 C14.7520065,59.5672337 14.935034,60.7394365 15.5533324,61.6936006 C16.1716307,62.6477647 17.1667693,63.2937195 18.29,63.47 C20.64,63.93 23.2,62.47 24.89,60.97 C26.58,59.47 28.69,54.91 29.12,53.97 C30.62,54.48 32.12,55.03 33.7,55.7 C36.5357477,56.8806231 39.2599783,58.3130195 41.84,59.98 C41.98,60.07 42.13,60.19 42.27,60.29 C41.68,60.12 38.37,59.43 38.13,59.41 C35.13,59.13 29.13,60.41 27.79,63.48 C27.3648818,64.5405101 27.4135597,65.7321947 27.9237565,66.7544991 C28.4339533,67.7768035 29.3569654,68.5321381 30.46,68.83 C32.75,69.54 35.46,68.38 37.3,67.06 C39.42,65.54 42.3,60.55 42.37,60.36 C44.8936942,62.092418 47.3051835,63.9828653 49.59,66.02 C51.28,67.52 52.94,69.12 54.59,70.73 C53.81,70.53 50.73,69.88 50.5,69.86 C47.5,69.58 41.5,70.86 40.16,73.94 C39.7383268,74.9993613 39.7887857,76.1883255 40.2986984,77.2081508 C40.808611,78.2279761 41.7295071,78.9817218 42.83,79.28 C45.12,79.99 47.83,78.83 49.67,77.51 C51.74,76.03 54.49,71.26 54.72,70.86 C55.47,71.59 56.22,72.32 56.96,73.06 C59.39,75.48 61.81,77.91 64.28,80.23 C65.13,81.04 66,81.8 66.87,82.57 C65.7,82.3 63.56,81.86 63.37,81.84 C60.37,81.56 54.37,82.84 53.03,85.92 C52.6083268,86.9793613 52.6587857,88.1683255 53.1686984,89.1881508 C53.678611,90.2079761 54.5995071,90.9617218 55.7,91.26 C57.98,91.98 60.7,90.81 62.53,89.5 C64.36,88.19 66.78,84.21 67.44,83.09 C68.9,84.35 70.37,85.58 71.88,86.72 C72.54,87.19 73.18,87.72 73.88,88.14 L75.83,89.44 C77.19,90.29 78.45,91.07 79.74,91.82 C80.38,92.21 81,92.56 81.64,92.92 C80.49,92.47 78.64,91.8 78.49,91.75 C75.55,91.02 69.44,91.33 67.65,94.21 C67.0701737,95.1938116 66.9384884,96.3785407 67.2881257,97.4656643 C67.637763,98.5527879 68.4353812,99.4386373 69.48,99.9 C71.63,100.95 74.48,100.21 76.48,99.19 C78.71,98.06 82.06,93.92 82.48,93.41 C84.04,94.3 85.56,95.14 87,95.91 C90.84,97.97 94.2,99.61 96.8,100.83 C105.26,108.15 117.16,108.95 117.16,108.95 C117.16,108.95 117.79,94.69 109.4,85.31 C106.53291,82.217344 103.038274,79.7728033 99.15,78.14 L99.15,78.14 Z M84.05,92.05 C84.31,91.46 86.34,86.93 86.48,84.38 L87.88,84.09 C88.7393841,88.5925545 90.5273698,92.8666919 93.13,96.64 C91.59,95.9133333 89.9233333,95.1 88.13,94.2 C86.84,93.53 85.46,92.81 84.05,92.05 L84.05,92.05 Z" id="Shape" fill="#F2C30E"></path>
                    <path d="M161.530044,75.42 C161.530044,75.42 147.26,75.85 138.53,84.93 C129.8,94.01 129.909966,108.27 129.909966,108.27 C129.909966,108.27 144.17,107.83 152.91,98.76 C161.65,89.69 161.530044,75.42 161.530044,75.42 Z" id="Path" fill="#F2C30E"></path>
                    <g id="Group" opacity="0.5" fill="#FFFFFF">
                        <path d="M68.8,20.15 C68.8,20.15 73.48,16.46 74.67,14.09 C75.67,12.09 76.43,9.22 75.38,7.09 C74.9186373,6.04538121 74.0327879,5.24776296 72.9456643,4.89812567 C71.8585407,4.54848838 70.6738116,4.68017365 69.69,5.26 C66.81,7.05 66.5,13.16 67.24,16.1 C67.3,16.33 68.75,20.19 68.8,20.15 Z" id="Path"></path>
                        <path d="M25.55,50.93 C25.74,51.11 29.08,53.52 29.1,53.47 C29.12,53.42 30.96,47.81 30.65,45.17 C30.39,42.92 29.43,40.17 27.37,38.92 C26.4083679,38.3056389 25.2301216,38.1312427 24.1317527,38.4406962 C23.0333837,38.7501498 22.1194748,39.5139879 21.62,40.54 C20.2,43.62 23.32,48.88 25.55,50.93 Z" id="Path"></path>
                        <path d="M123.56,25.75 C123.56,25.75 106.44,43.43 106.56,65.14 C106.68,86.85 123.93,104.38 123.93,104.38 C123.93,104.38 141.06,86.71 140.93,64.99 C140.8,43.27 123.56,25.75 123.56,25.75 Z" id="Path"></path>
                        <path d="M99.15,78.14 C99.3752094,77.8988326 99.5824317,77.6414759 99.77,77.37 C101.01,75.48 102.08,72.73 101.28,70.47 C100.941273,69.3801281 100.153122,68.486851 99.1139287,68.0150112 C98.074735,67.5431714 96.8834768,67.5377094 95.84,68 C93.51,69.1 92.37,72.83 92.13,75.88 C91.2,75.67 90.36,75.51 89.64,75.38 C89.34,74.69 89.03,74 88.71,73.3 C88.39,72.6 88.14,71.85 87.84,71.11 C87.43,70.03 87.07,68.89 86.7,67.75 C88.05,67.15 91.99,65.3 93.46,63.68 C94.93,62.06 96.46,59.44 96,57.09 C95.8287478,55.9631094 95.184875,54.9628015 94.2300664,54.3402663 C93.2752577,53.7177311 92.1002127,53.5321046 91,53.83 C87.74,54.83 85.83,60.61 85.77,63.64 C85.77,63.73 85.77,64.37 85.88,65.14 C85.56,64.02 85.22,62.9 84.93,61.75 C84.09,58.5 83.34,55.16 82.58,51.82 C82.42,51.13 82.25,50.43 82.09,49.74 C83.23,49.23 87.52,47.27 89.09,45.57 C90.66,43.87 92.09,41.33 91.63,38.98 C91.4587478,37.8531094 90.814875,36.8528015 89.8600664,36.2302663 C88.9052577,35.6077311 87.7302127,35.4221046 86.63,35.72 C83.38,36.72 81.47,42.5 81.4,45.53 C81.4,45.63 81.46,46.4 81.54,47.26 C81.1,45.45 80.64,43.65 80.12,41.88 C79.2569824,38.8342402 78.1878495,35.8506913 76.92,32.95 C77.33,32.78 82.41,30.58 84.12,28.69 C85.63,27.01 87.12,24.45 86.65,22.1 C86.4787478,20.9731094 85.834875,19.9728015 84.8800664,19.3502663 C83.9252577,18.7277311 82.7502127,18.5421046 81.65,18.84 C78.4,19.84 76.49,25.62 76.42,28.65 C76.42,28.86 76.67,31.65 76.79,32.65 C76.7860176,32.6167856 76.7860176,32.5832144 76.79,32.55 C75.4777128,29.7341747 73.91827,27.0402874 72.13,24.5 C70.5394939,22.223545 68.8200163,20.0399753 66.98,17.96 C65.29,15.96 63.63,14.34 62.15,12.87 C61.34,12.08 60.58,11.37 59.87,10.72 L59.94,10.72 C60,10.72 58.36,6.94 58.23,6.72 C56.71,4.1 52.23,-0.07 48.92,0.65 C47.806004,0.895699175 46.849915,1.6053513 46.2921822,2.60048408 C45.7344494,3.59561687 45.6281437,4.78153907 46,5.86 C46.74,8.14 49.26,9.67 51.39,10.41 C53.52,11.15 58.39,10.8 59.56,10.69 C60.28,11.39 61.05,12.14 61.88,12.98 C63.33,14.48 64.95,16.19 66.59,18.16 C67.03,18.69 67.48,19.27 67.92,19.83 C66.98,19.04 65.66,17.99 65.52,17.9 C62.97,16.28 57.07,14.64 54.47,16.8 C53.6000592,17.5492393 53.0940057,18.6361669 53.080612,19.7841988 C53.0672183,20.9322307 53.5477758,22.0306688 54.4,22.8 C56.1,24.48 59.05,24.68 61.29,24.35 C63.53,24.02 67.79,21.35 68.7,20.82 C69.7,22.06 70.63,23.37 71.56,24.82 C73.2690894,27.3511805 74.7515045,30.0282281 75.99,32.82 C76.06,32.98 76.11,33.16 76.18,33.32 C75.78,32.85 73.4,30.45 73.18,30.32 C70.82,28.42 65.18,26.15 62.31,28.01 C61.3727144,28.6607622 60.7579686,29.6808375 60.6204362,30.813569 C60.4829039,31.9463004 60.8356786,33.0838488 61.59,33.94 C63.1,35.8 66,36.32 68.26,36.24 C70.87,36.15 76,33.56 76.19,33.46 C77.3431393,36.2944756 78.3118261,39.2005359 79.09,42.16 C79.67,44.35 80.18,46.59 80.66,48.84 C80.13,48.24 77.91,46.01 77.73,45.84 C75.37,43.95 69.73,41.67 66.86,43.54 C65.9227144,44.1907622 65.3079686,45.2108375 65.1704362,46.343569 C65.0329039,47.4763004 65.3856786,48.6138488 66.14,49.47 C67.65,51.32 70.55,51.85 72.81,51.77 C75.36,51.67 80.29,49.21 80.7,49 L81.36,52.08 C82.05,55.43 82.73,58.79 83.5,62.08 C83.77,63.22 84.07,64.34 84.37,65.46 C83.54,64.59 82,63.04 81.85,62.92 C79.49,61.03 73.85,58.75 70.98,60.62 C70.0427144,61.2707622 69.4279686,62.2908375 69.2904362,63.423569 C69.1529039,64.5563004 69.5056786,65.6938488 70.26,66.55 C71.77,68.4 74.67,68.93 76.93,68.84 C79.19,68.75 83.39,66.78 84.57,66.21 C85.08,68.07 85.63,69.9 86.26,71.68 C86.55,72.44 86.79,73.24 87.11,73.95 L87.59,75.09 L87,75 C87,75 86.95,76.06 87.05,77.78 C84.56,76.01 80.97,74.48 78.63,75.55 C77.6056853,76.0513374 76.8440649,76.9660563 76.5365733,78.0642405 C76.2290817,79.1624248 76.4049597,80.3396432 77.02,81.3 C77.1668831,81.5580361 77.3412292,81.7994384 77.54,82.02 C77.9812966,84.6494267 79.089992,87.121611 80.76,89.2 C80.89,89.34 82.58,90.91 83.46,91.69 C82.61,91.22 81.76,90.77 80.88,90.27 C79.61,89.57 78.29,88.78 77,88.02 L75,86.76 C74.32,86.35 73.72,85.87 73.07,85.42 C72.13,84.75 71.19,84 70.26,83.26 C71.05,82 73.32,78.26 73.65,76.12 C73.98,73.98 73.8,70.94 72.13,69.23 C71.3706678,68.3689983 70.2780023,67.8757513 69.13,67.8757513 C67.9819977,67.8757513 66.8893322,68.3689983 66.13,69.23 C63.95,71.83 65.56,77.73 67.18,80.29 C67.18,80.38 67.63,80.88 68.1,81.48 C67.21,80.73 66.32,79.98 65.44,79.18 C62.95,76.93 60.44,74.56 58,72.18 L56.44,70.71 C57.12,69.66 59.61,65.66 59.96,63.39 C60.31,61.12 60.11,58.21 58.44,56.49 C57.6806678,55.6289983 56.5880023,55.1357513 55.44,55.1357513 C54.2919977,55.1357513 53.1993322,55.6289983 52.44,56.49 C50.26,59.09 51.87,64.99 53.44,67.56 C53.5,67.65 53.98,68.25 54.52,68.92 C53.15,67.66 51.77,66.41 50.36,65.22 C47.9605529,63.1582089 45.4248004,61.2605707 42.77,59.54 C43.02,59.17 46.04,54.54 46.42,52.02 C46.76,49.78 46.57,46.84 44.9,45.12 C44.1406678,44.2589983 43.0480023,43.7657513 41.9,43.7657513 C40.7519977,43.7657513 39.6593322,44.2589983 38.9,45.12 C36.72,47.72 38.33,53.62 39.9,56.19 C40.01,56.37 41.75,58.54 42.39,59.29 L42.3,59.23 C39.6537662,57.5990098 36.8658026,56.2100483 33.97,55.08 C31.3886417,54.0599275 28.7509913,53.1885013 26.07,52.47 C23.59,51.78 21.28,51.3 19.23,50.89 C18.12,50.68 17.1,50.5 16.15,50.35 L16.15,50.35 C16.15,50.35 12.74,48.06 12.51,47.95 C9.8,46.6 3.76,45.59 1.4,48.02 C0.604415574,48.8571597 0.209493827,49.9973293 0.316817925,51.1472303 C0.424142024,52.2971314 1.02323644,53.3445261 1.96,54.02 C3.83,55.51 6.78,55.4 8.96,54.83 C11.14,54.26 14.96,51.31 15.96,50.57 C16.96,50.75 17.96,50.95 19.16,51.19 C21.16,51.65 23.49,52.19 25.94,52.92 C26.6,53.11 27.29,53.35 27.94,53.57 C26.72,53.44 25.04,53.29 24.88,53.29 C21.88,53.34 16.03,55.23 15.05,58.47 C14.7520065,59.5672337 14.935034,60.7394365 15.5533324,61.6936006 C16.1716307,62.6477647 17.1667693,63.2937195 18.29,63.47 C20.64,63.93 23.2,62.47 24.89,60.97 C26.58,59.47 28.69,54.91 29.12,53.97 C30.62,54.48 32.12,55.03 33.7,55.7 C36.5357477,56.8806231 39.2599783,58.3130195 41.84,59.98 C41.98,60.07 42.13,60.19 42.27,60.29 C41.68,60.12 38.37,59.43 38.13,59.41 C35.13,59.13 29.13,60.41 27.79,63.48 C27.3648818,64.5405101 27.4135597,65.7321947 27.9237565,66.7544991 C28.4339533,67.7768035 29.3569654,68.5321381 30.46,68.83 C32.75,69.54 35.46,68.38 37.3,67.06 C39.42,65.54 42.3,60.55 42.37,60.36 C44.8936942,62.092418 47.3051835,63.9828653 49.59,66.02 C51.28,67.52 52.94,69.12 54.59,70.73 C53.81,70.53 50.73,69.88 50.5,69.86 C47.5,69.58 41.5,70.86 40.16,73.94 C39.7383268,74.9993613 39.7887857,76.1883255 40.2986984,77.2081508 C40.808611,78.2279761 41.7295071,78.9817218 42.83,79.28 C45.12,79.99 47.83,78.83 49.67,77.51 C51.74,76.03 54.49,71.26 54.72,70.86 C55.47,71.59 56.22,72.32 56.96,73.06 C59.39,75.48 61.81,77.91 64.28,80.23 C65.13,81.04 66,81.8 66.87,82.57 C65.7,82.3 63.56,81.86 63.37,81.84 C60.37,81.56 54.37,82.84 53.03,85.92 C52.6083268,86.9793613 52.6587857,88.1683255 53.1686984,89.1881508 C53.678611,90.2079761 54.5995071,90.9617218 55.7,91.26 C57.98,91.98 60.7,90.81 62.53,89.5 C64.36,88.19 66.78,84.21 67.44,83.09 C68.9,84.35 70.37,85.58 71.88,86.72 C72.54,87.19 73.18,87.72 73.88,88.14 L75.83,89.44 C77.19,90.29 78.45,91.07 79.74,91.82 C80.38,92.21 81,92.56 81.64,92.92 C80.49,92.47 78.64,91.8 78.49,91.75 C75.55,91.02 69.44,91.33 67.65,94.21 C67.0701737,95.1938116 66.9384884,96.3785407 67.2881257,97.4656643 C67.637763,98.5527879 68.4353812,99.4386373 69.48,99.9 C71.63,100.95 74.48,100.21 76.48,99.19 C78.71,98.06 82.06,93.92 82.48,93.41 C84.04,94.3 85.56,95.14 87,95.91 C90.84,97.97 94.2,99.61 96.8,100.83 C105.26,108.15 117.16,108.95 117.16,108.95 C117.16,108.95 117.79,94.69 109.4,85.31 C106.53291,82.217344 103.038274,79.7728033 99.15,78.14 L99.15,78.14 Z M84.05,92.05 C84.31,91.46 86.34,86.93 86.48,84.38 L87.88,84.09 C88.7393841,88.5925545 90.5273698,92.8666919 93.13,96.64 C91.59,95.9133333 89.9233333,95.1 88.13,94.2 C86.84,93.53 85.46,92.81 84.05,92.05 L84.05,92.05 Z" id="Shape"></path>
                        <path d="M161.530044,75.42 C161.530044,75.42 147.26,75.85 138.53,84.93 C129.8,94.01 129.909966,108.27 129.909966,108.27 C129.909966,108.27 144.17,107.83 152.91,98.76 C161.65,89.69 161.530044,75.42 161.530044,75.42 Z" id="Path"></path>
                    </g>
                    <polygon id="Path" fill="#FFFFFF" points="124.27 84.61 138.28 72.01 137.68 71.34 124.26 83.4 124.19 66.9 124.26 66.95 136.12 49.62 135.37 49.11 124.19 65.47 124.01 25.75 123.12 25.75 123.23 52.71 114.31 44.99 113.72 45.67 123.24 53.91 123.32 73.18 109.8 61.22 109.2 61.89 123.32 74.39 123.4 91.94 113.24 83.97 112.69 84.67 123.41 93.09 123.45 104.38 124.35 104.38 124.27 84.6"></polygon>
                    <polygon id="Path" fill="#FFFFFF" points="111.36 89.47 110.47 89.37 109.34 99.34 103.32 92.62 103.34 92.62 101.81 80.54 100.92 80.66 102.28 91.46 87.33 74.74 86.66 75.34 96.81 86.68 90.38 86.76 90.4 87.66 97.6 87.57 104.72 95.52 94.67 95.53 94.67 96.43 105.52 96.42 111.99 103.65 104.9 104.08 104.96 104.97 112.75 104.5 117.06 109.32 117.73 108.72 110.14 100.24"></polygon>
                    <polygon id="Path" fill="#FFFFFF" points="145.22 93.03 157.14 90.6 156.96 89.72 146.3 91.89 161.85 75.73 161.2 75.11 150.65 86.07 150.09 79.67 149.2 79.75 149.82 86.93 142.42 94.62 141.66 84.6 140.76 84.67 141.59 95.49 134.86 102.47 133.91 95.44 133.01 95.56 134.06 103.3 129.58 107.96 130.23 108.58 138.12 100.38 148.96 100.79 148.99 99.9 138.96 99.51 145.21 93.01"></polygon>
                </g>
                <g id="freepik--Characters--inject-6" transform="translate(21.000000, 38.000000)">
                    <ellipse id="Oval" stroke="#1B212B" fill="#1B212B" fill-rule="nonzero" stroke-linecap="round" stroke-linejoin="round" cx="130.31" cy="11.69" rx="8.47" ry="8.56"></ellipse>
                    <path d="M153.82,35.109644 C153.82,35.109644 157.82,34.94 158.82,42.03 C159.82,49.12 164,67.61 164.35,70.2 C164.7,72.79 163.14,75.91 159.35,77.12 C155.56,78.33 153.47,74.7 153.12,72.97 C152.77,71.24 149.43,50.18 149.43,50.18 L153.82,35.109644 Z" id="Path" stroke="#1B212B" fill="#1B212B" fill-rule="nonzero" stroke-linecap="round" stroke-linejoin="round"></path>
                    <path d="M114.89,52.35 C114.89,52.35 97.37,59.76 97.37,62.45 C97.37,65.14 108.16,91.45 108.16,91.45 L154.65,79.32 L149.44,50.2 C149.44,50.2 142.52,41.57 114.89,52.35 Z" id="Path" stroke="#263238" fill="#F2C30E" fill-rule="nonzero" stroke-linecap="round" stroke-linejoin="round"></path>
                    <path d="M130.87,36.45 C130.87,36.45 125.87,39.56 121.87,41.8 C117.87,44.04 111.87,47.16 111.87,53.39 C111.87,59.62 116.37,84.33 116.37,86.92 C116.28752,88.0759754 116.344598,89.2376778 116.54,90.38 C116.54,89.86 146.96,79.83 146.96,79.83 C147.895991,75.852583 149.051085,71.9299347 150.42,68.08 C151.98,64.28 150.42,60.99 152.15,54.77 C153.88,48.55 157.15,44.4 155.78,39.77 C154.41,35.14 154.05,35.28 149.04,35.1 C144.03,34.92 135.71,34.89 130.87,36.45 Z" id="Path" stroke="#1B212B" fill="#1B212B" fill-rule="nonzero" stroke-linecap="round" stroke-linejoin="round"></path>
                    <path d="M128.59,33.73 C128.59,33.73 126.34,34.94 125.47,40.47 C124.906072,44.8843933 124.618844,49.329741 124.61,53.78 C124.61,53.78 133.94,48.6 135.33,48.42 C136.72,48.24 146.74,52.42 146.74,52.42 C145.926699,47.8429051 144.7701,43.3335052 143.28,38.93 C141.21,33.38 130.66,31.31 128.59,33.73 Z" id="Path" stroke="#263238" fill="#FFFFFF" fill-rule="nonzero" stroke-linecap="round" stroke-linejoin="round"></path>
                    <path d="M126.86,32.35 L127.03,32.94 C127.7,35.28 130.21,43.94 131.7,48.25 C133.43,53.25 136.02,55.34 136.02,55.34 L138.61,45 C138.61,45 128.41,35.11 126.86,32.35 Z" id="Path" stroke="#263238" fill="#FFFFFF" fill-rule="nonzero" stroke-linecap="round" stroke-linejoin="round"></path>
                    <path d="M136,10.22 C136,10.22 127.53,8.84 124.59,19.9 C121.65,30.96 131.16,40.47 133.92,44.1 C136.68,47.73 140.68,48.89 142.92,45.31 C146.38,39.78 147.42,37.01 147.92,29.75 C148.42,22.49 147.57,17.65 144.29,13.85 C142.14659,11.5470127 139.146074,10.2331557 136,10.22 L136,10.22 Z" id="Path" stroke="#263238" fill="#FFFFFF" fill-rule="nonzero" stroke-linecap="round" stroke-linejoin="round"></path>
                    <path d="M144.32,13.85 C142.174215,11.5444817 139.169555,10.2303953 136.02,10.22 C136.02,10.22 127.55,8.84 124.61,19.9 C123.80488,23.0369245 123.884491,26.3355671 124.84,29.43 C125.15,28.64 125.62,28.02 126.34,28.02 C128.41,28.02 128.59,30.96 129.28,30.79 C129.97,30.62 132.73,28.2 132.22,25.95 C131.71,23.7 132.39,22.67 136.02,22.67 C139.65,22.67 140.51,24.22 141.72,23.88 C142.93,23.54 143.8,21.11 145.01,21.11 C146.10186,21.1483034 147.132475,21.6239718 147.87,22.43 C147.603396,19.2714651 146.362998,16.2735465 144.32,13.85 L144.32,13.85 Z" id="Path" stroke="#1B212B" fill="#1B212B" fill-rule="nonzero" stroke-linecap="round" stroke-linejoin="round"></path>
                    <path d="M129.28,31.83 C129.28,31.83 127.89,28.37 126.34,28.02 C124.79,27.67 123.92,28.72 124.78,31.65 C125.64,34.58 126.86,35.8 127.55,35.8 C128.24,35.8 128.55,34.8 128.55,34.8" id="Path" stroke="#263238" fill="#FFFFFF" fill-rule="nonzero" stroke-linecap="round" stroke-linejoin="round"></path>
                    <path d="M116.66,67.26 C116.66,67.26 117.52,72.8 121.33,75.26 C125.14,77.72 130.33,76.47 130.33,76.47" id="Path" stroke="#263238" stroke-linecap="round" stroke-linejoin="round"></path>
                    <path d="M136,55.34 C136,55.34 138.42,64.5 137.9,68.47" id="Path" stroke="#263238" stroke-linecap="round" stroke-linejoin="round"></path>
                    <path d="M84.36,53 C84.36,53 86.46,53.87 88.04,59.3 C89.62,64.73 93.81,74.7 94.86,78.55 C95.91,82.4 95.56,87.3 91.01,88.55 C86.46,89.8 81.56,77.35 80.86,76.3 C80.16,75.25 78.41,65.45 79.29,60.2 C80.17,54.95 82.44,52.31 84.36,53 Z" id="Path" stroke="#263238" fill="#FFFFFF" fill-rule="nonzero" stroke-linecap="round" stroke-linejoin="round"></path>
                    <path d="M59.44,71.18 C59.44,71.18 32.1,97.85 32.1,101.85 C32.1,105.85 48.19,138.93 52.69,138.18 C57.19,137.43 77.44,115.85 77.44,115.85 L59.44,71.18 Z" id="Path" stroke="#263238" fill="#F2C30E" fill-rule="nonzero" stroke-linecap="round" stroke-linejoin="round"></path>
                    <path d="M60.21,57.21 C55.0151302,61.8059805 50.1059805,66.7151302 45.51,71.91 C39.38,79.08 39.91,91.16 41.83,99.38 C43.75,107.6 47.26,130.88 51.63,131.76 C56,132.64 59.51,123.36 67.21,116.76 C74.91,110.16 81.04,104.51 81.56,100.13 C82.08,95.75 81.39,81.76 81.74,80.71 C82.5724789,75.5560526 83.040307,70.3497946 83.14,65.13 C83.14,60.06 79.29,54.46 75.44,53.23 C71.59,52 61.78,56 60.21,57.21 Z" id="Path" stroke="#263238" fill="#FFFFFF" fill-rule="nonzero" stroke-linecap="round" stroke-linejoin="round"></path>
                    <path d="M95.66,221.83 C95.66,221.83 90,233.47 81.9,240.88 C73.8,248.29 61.09,257.46 61.09,257.46 C61.09,257.46 74.49,261.7 77.32,262.05 C80.15,262.4 79.43,263.81 76.26,265.23 C73.09,266.65 69.2,267.7 60.38,267.7 C51.56,267.7 45.92,267.7 45.56,265.58 C45.2,263.46 50.86,258.17 55.09,253.94 C59.32,249.71 75.55,223.24 76.96,221.83 C78.37,220.42 88.25,215.83 95.66,221.83 Z" id="Path" stroke="#263238" fill="#FFFFFF" fill-rule="nonzero" stroke-linecap="round" stroke-linejoin="round"></path>
                    <path d="M77.32,262.05 C74.99,261.76 65.5,258.84 62.22,257.82 L59.68,263.46 C55.7928522,264.088047 51.8367131,262.850828 49,260.12 C46.89,262.41 45.37,264.45 45.55,265.58 C45.91,267.7 51.55,267.7 60.37,267.7 C69.19,267.7 73.07,266.64 76.25,265.23 C79.43,263.82 80.14,262.4 77.32,262.05 Z" id="Path" stroke="#1B212B" fill="#1B212B" fill-rule="nonzero" stroke-linecap="round" stroke-linejoin="round"></path>
                    <path d="M196.88,221.83 C196.88,221.83 202.53,233.47 210.64,240.88 C218.75,248.29 231.46,257.46 231.46,257.46 C231.46,257.46 218.05,261.7 215.23,262.05 C212.41,262.4 213.11,263.81 216.29,265.23 C219.47,266.65 223.29,267.7 232.16,267.7 C241.03,267.7 246.63,267.7 246.98,265.58 C247.33,263.46 241.69,258.17 237.45,253.94 C233.21,249.71 216.99,223.24 215.58,221.83 C214.17,220.42 204.29,215.83 196.88,221.83 Z" id="Path" stroke="#263238" fill="#FFFFFF" fill-rule="nonzero" stroke-linecap="round" stroke-linejoin="round"></path>
                    <path d="M215.23,262.05 C217.55,261.76 227.05,258.84 230.33,257.82 L232.87,263.46 C236.753761,264.083152 240.704737,262.846389 243.54,260.12 C245.64,262.41 247.17,264.45 246.98,265.58 C246.63,267.7 240.98,267.7 232.16,267.7 C223.34,267.7 219.46,266.64 216.29,265.23 C213.12,263.82 212.41,262.4 215.23,262.05 Z" id="Path" stroke="#1B212B" fill="#1B212B" fill-rule="nonzero" stroke-linecap="round" stroke-linejoin="round"></path>
                    <path d="M14.16,226.77 C14.16,226.77 19.1,235.94 18.75,239.12 C18.46,241.71 12.29,261.49 10.04,268.65 C9.86049171,269.223939 9.97945455,269.84961 10.3570749,270.317618 C10.7346952,270.785626 11.3210867,271.034144 11.92,270.98 L11.92,270.98 C12.6384774,270.914638 13.2485176,270.426606 13.47,269.74 L23.34,239.47 C23.34,239.47 25.1,237.35 30.75,236.3 C35.07,235.48 56.59,234.47 66.41,234.04 C70.1764225,233.824861 73.4358301,236.63317 73.78,240.39 C73.78,240.44 73.78,240.48 73.78,240.53 C74.09,244.6 80.78,265.65 82.3,270.31 C82.4708177,270.838046 83.0025835,271.16136 83.55,271.07 L83.55,271.07 C83.8517413,271.019468 84.1196771,270.8477 84.291557,270.594602 C84.4634369,270.341504 84.5242979,270.02911 84.46,269.73 C83.26,264.27 78.11,240.73 76.25,228.89 C76.25,228.89 38.85,230.65 30.38,228.53 C25.2890958,227.25824 20.4157417,225.236102 15.92,222.53 C15.92,222.53 13.81,222.54 14.16,226.77 Z" id="Path" stroke="#1B212B" fill="#1B212B" fill-rule="nonzero" stroke-linecap="round" stroke-linejoin="round"></path>
                    <path d="M11,164.68 C11,164.68 -1.71,204.54 0.4,211.6 C2.51,218.66 12.75,228.53 16.63,228.53 C20.51,228.53 23.69,189.73 23.69,186.2 C23.69,182.67 17,170 14.87,164.68 C12.74,159.36 11,164.68 11,164.68 Z" id="Path" stroke="#263238" fill="#F2C30E" fill-rule="nonzero" stroke-linecap="round" stroke-linejoin="round"></path>
                    <path d="M80.44,224.3 C80.31,228.3 79.69,231.36 78.02,231.36 C74.85,231.36 40.27,234.88 32.16,234.53 C24.05,234.18 18.05,230 18.05,224 C18.05,218 18.4,191.54 24.4,188 C30.4,184.46 62.15,184.12 69.56,184.12 C78.68,184.12 79.07,201.74 79.46,207.71 C79.57,209.43 80.64,218 80.44,224.3 Z" id="Path" stroke="#263238" fill="#F2C30E" fill-rule="nonzero" stroke-linecap="round" stroke-linejoin="round"></path>
                    <path d="M71.32,224.65 C71.32,224.65 93.9,225.36 95.66,221.83 C97.42,218.3 95.66,210.89 91.08,209.48 C86.5,208.07 67.44,209.13 67.44,209.13 L71.32,224.65 Z" id="Path" stroke="#263238" fill="#FFFFFF" fill-rule="nonzero" stroke-linecap="round" stroke-linejoin="round"></path>
                    <path d="M16.63,191.49 C15.2871733,196.204671 14.6932682,201.101013 14.87,206 C15.22,213.77 17.34,221.53 27.87,227.88 C38.4,234.23 73.03,226.82 73.03,226.82 L70.56,180.6 C70.56,180.6 47.63,177.78 34.93,180.25 C22.23,182.72 17,190.08 16.63,191.49 Z" id="Path" stroke="#1B212B" fill="#1B212B" fill-rule="nonzero" stroke-linecap="round" stroke-linejoin="round"></path>
                    <path d="M182,28.87 C179.46057,31.5442702 177.469734,34.6901984 176.14,38.13 C174.25,43.43 168.01,59.31 168.2,62.33 C168.39,65.35 171.03,69.14 173.68,67.06 C176.33,64.98 182.75,53.83 183.13,53.26 C183.51,52.69 183.89,44.75 183.89,39.83 C183.89,34.91 184.22,28.68 182,28.87 Z" id="Path" stroke="#263238" fill="#FFFFFF" fill-rule="nonzero" stroke-linecap="round" stroke-linejoin="round"></path>
                    <path d="M188.1,45.85 C190.17,45.45 237.44,55.85 237.44,61.18 C237.44,66.51 226.77,95.85 226.77,95.85 L181.44,83.85 C181.44,83.85 182.35,47 188.1,45.85 Z" id="Path" stroke="#263238" fill="#F2C30E" fill-rule="nonzero" stroke-linecap="round" stroke-linejoin="round"></path>
                    <path d="M204.07,22.82 C204.07,22.82 193.86,21.68 186.67,25.28 C179.48,28.88 179.49,34.92 179.87,40.78 C180.25,46.64 182.2,78.25 182.77,80.52 C183.34,82.79 196.32,82.19 203.88,83.7 C211.44,85.21 216.74,78.97 217.88,76.51 C219.02,74.05 232.25,50.04 232.25,44.94 C232.25,39.84 226.77,30.19 219.01,25.65 C214.526876,22.9551048 209.228138,21.9513946 204.07,22.82 Z" id="Path" stroke="#263238" fill="#FFFFFF" fill-rule="nonzero" stroke-linecap="round" stroke-linejoin="round"></path>
                    <polygon id="Path" stroke="#1B212B" fill="#1B212B" fill-rule="nonzero" stroke-linecap="round" stroke-linejoin="round" points="196.88 42.29 198.96 46.83 190.83 75.19 192.72 80.67 198.21 76.51 201.23 47.4 205.39 42.86 203.31 37.75"></polygon>
                    <path d="M197.45,30.57 C196.331744,32.6990375 195.382167,34.9124892 194.61,37.19 C194.100561,39.6774842 193.84923,42.2109077 193.86,44.75 C193.86,44.75 199.91,41.91 201.61,41.91 C203.31,41.91 206.71,49.67 206.71,49.67 C206.71,49.67 211.82,42.1 212.58,36.67 C213.34,31.24 207.47,27.22 203.31,27.22 C200.895207,27.1971743 198.655538,28.4775311 197.45,30.57 Z" id="Path" stroke="#263238" fill="#FFFFFF" fill-rule="nonzero" stroke-linecap="round" stroke-linejoin="round"></path>
                    <path d="M219,25.09 C219,25.09 220.9,22.25 221.27,24.9 C221.64,27.55 219.38,29.62 218.06,30.38 C217.37663,30.8510043 216.47337,30.8510043 215.79,30.38" id="Path" stroke="#263238" fill="#FFFFFF" fill-rule="nonzero" stroke-linecap="round" stroke-linejoin="round"></path>
                    <path d="M199.72,14.12 C199.72,14.12 197.83,12.61 196.72,15.63 C195.61,18.65 197.48,22.44 197.48,22.44 L199.37,18.44" id="Path" stroke="#263238" fill="#FFFFFF" fill-rule="nonzero" stroke-linecap="round" stroke-linejoin="round"></path>
                    <path d="M199.72,39.46 C199.546533,40.0474787 199.66536,40.682512 200.03951,41.1675211 C200.41366,41.6525302 200.997731,41.9286608 201.61,41.91 C204.07,42.1 209.17,36.81 209.55,35.67 C209.93,34.53 199.72,39.46 199.72,39.46 Z" id="Path" stroke="#263238" fill="#FFFFFF" fill-rule="nonzero" stroke-linecap="round" stroke-linejoin="round"></path>
                    <path d="M208.61,2.59 C208.61,2.59 201.99,5.59 200.48,10.34 C198.97,15.09 196.48,24.71 196.48,28.34 C196.48,31.97 197.61,39.34 200.07,40.44 C202.53,41.54 210.66,36.28 212.92,34.77 C215.18,33.26 217.84,27.4 220.68,23.99 C223.52,20.58 225.78,14.35 224.68,9.25 C223.58,4.15 215.22,-1.95 208.61,2.59 Z" id="Path" stroke="#263238" fill="#FFFFFF" fill-rule="nonzero" stroke-linecap="round" stroke-linejoin="round"></path>
                    <path d="M224.68,9.21 C223.54,4.1 215.22,-1.95 208.61,2.59 C208.61,2.59 201.99,5.59 200.48,10.34 C199.76,12.59 198.83,15.94 198.05,19.23 C199.34,17.23 201.48,13.78 201.61,12.99 C201.8,11.85 201.8,11.66 203.12,11.66 C204.44,11.66 206.9,15.44 210.31,16.2 C213.72,16.96 218.25,16.39 218.25,18.28 C218.25,20.17 215.6,23.2 217.3,24.14 C218.63,24.88 217.44,27.43 217.56,28.54 C218.502129,26.9387022 219.554678,25.4049888 220.71,23.95 C223.54,20.55 225.81,14.31 224.68,9.21 Z" id="Path" stroke="#1B212B" fill="#1B212B" fill-rule="nonzero" stroke-linecap="round" stroke-linejoin="round"></path>
                    <path d="M199.91,20.93 C199.91,20.93 206.53,24.14 209.74,25.28 C212.95,26.42 216.17,27.73 215.03,29.81 C213.89,31.89 210.12,32.81 207.85,31.89 C205.58,30.97 206.15,26.22 204.85,26.03 C203.55,25.84 202.59,28.3 200.13,28.3 C197.67,28.3 195.02,24.52 195.4,21.87 C195.78,19.22 199.91,20.93 199.91,20.93 Z" id="Path" stroke="#263238" fill="#FFFFFF" fill-rule="nonzero" stroke-linecap="round" stroke-linejoin="round"></path>
                    <line x1="215.6" y1="27.92" x2="219.95" y2="23.57" id="Path" stroke="#263238" fill="#FFFFFF" fill-rule="nonzero" stroke-linecap="round" stroke-linejoin="round"></line>
                    <line x1="196.51" y1="20.74" x2="198.77" y2="15.63" id="Path" stroke="#263238" fill="#FFFFFF" fill-rule="nonzero" stroke-linecap="round" stroke-linejoin="round"></line>
                    <path d="M249.31,60.84 C249.31,60.84 236.77,72 233.52,75.23 C230.27,78.46 230.12,84.67 233.21,86.06 C236.3,87.45 246.06,81.73 247.6,80.49 C249.14,79.25 253.33,61.61 249.31,60.84 Z" id="Path" stroke="#1B212B" fill="#1B212B" fill-rule="nonzero" stroke-linecap="round" stroke-linejoin="round"></path>
                    <path d="M280.66,88.74 C280.66,88.74 297.51,105.58 294.14,110.97 C290.77,116.36 258.43,133.21 258.43,133.21 L252.36,106.93 L280.66,88.74 Z" id="Path" stroke="#263238" fill="#F2C30E" fill-rule="nonzero" stroke-linecap="round" stroke-linejoin="round"></path>
                    <path d="M259.05,59.76 C259.05,59.76 251.94,59.14 249.31,60.84 C246.68,62.54 244.82,78.33 244.31,87.77 C243.8,97.21 242.61,104.77 243.23,106.64 C243.85,108.51 259.94,128.77 262.23,131.56 C264.52,134.35 283.28,105.87 285.91,100.14 C288.54,94.41 286.84,89.14 283.43,81.27 C280.02,73.4 272.76,66.1 268.43,62.08 C265.909219,59.7471512 262.36761,58.8711881 259.05,59.76 Z" id="Path" stroke="#1B212B" fill="#1B212B" fill-rule="nonzero" stroke-linecap="round" stroke-linejoin="round"></path>
                    <path d="M258.9,78.48 L258.79,79.08 C258.59,80.19 258.16,82.73 257.79,85.6 C257.32,89.47 257.48,94.6 258.72,94.6 C259.96,94.6 276.2,82.84 276.51,72.17 C276.82,61.5 260.14,74 258.9,78.48 Z" id="Path" stroke="#263238" fill="#FFFFFF" fill-rule="nonzero" stroke-linecap="round" stroke-linejoin="round"></path>
                    <path d="M258.13,57.44 C258.13,57.44 256.58,63.16 256.58,64.09 C256.696912,65.1885442 256.904282,66.2755666 257.2,67.34 C257.2,67.34 254.57,71.52 254.88,71.98 C255.247266,72.4336366 255.659352,72.8490725 256.11,73.22 C256.11,73.22 255.81,79.1 257.04,80.34 C258.27,81.58 263.39,80.8 263.39,80.8 C263.39,80.8 260.91,83.9 263.7,84.05 C266.49,84.2 273.91,78.05 276.08,74.46 C278.25,70.87 278.08,64.4 276.08,61.15 C274.08,57.9 262.15,53.41 258.13,57.44 Z" id="Path" stroke="#263238" fill="#FFFFFF" fill-rule="nonzero" stroke-linecap="round" stroke-linejoin="round"></path>
                    <path d="M271.59,46.29 C271.59,46.29 259.67,47.84 257.51,52.48 C255.35,57.12 260.29,62.85 263.85,63.63 C265.775933,64.083452 267.751999,64.288452 269.73,64.24 C269.73,64.24 266.02,67.49 268.34,68.24 C270.66,68.99 271.74,68.55 271.74,69.32 C271.74,70.09 269.42,72.57 271.43,72.73 C273.44,72.89 274.06,69.32 275.3,70.1 C276.54,70.88 274.84,73.96 275.46,74.1 C276.08,74.24 281.96,68.1 284.46,61.56 C286.96,55.02 283.53,51.04 281.06,48.88 C278.59,46.72 274.53,45.52 271.59,46.29 Z" id="Path" stroke="#1B212B" fill="#1B212B" fill-rule="nonzero" stroke-linecap="round" stroke-linejoin="round"></path>
                    <path d="M271.59,73.37 C271.59,73.37 273.76,68.37 275.15,69.51 C276.54,70.65 276.08,74.15 274.53,75.39 C272.98,76.63 270.04,75.23 270.04,75.23" id="Path" stroke="#263238" fill="#FFFFFF" fill-rule="nonzero" stroke-linecap="round" stroke-linejoin="round"></path>
                    <polyline id="Path" stroke="#263238" fill="#FFFFFF" fill-rule="nonzero" stroke-linecap="round" stroke-linejoin="round" points="257.82 86.99 262.77 84.52 262 91.94"></polyline>
                    <path d="M297.2,218.42 C297.2,218.42 288.3,235.94 288.65,239.12 C288.94,241.71 295.11,261.49 297.37,268.65 C297.545089,269.22536 297.422959,269.850111 297.044091,270.317181 C296.665223,270.784251 296.079104,271.032633 295.48,270.98 L295.48,270.98 C294.761523,270.914638 294.151482,270.426606 293.93,269.74 L284.07,239.47 C284.07,239.47 282.3,237.35 276.66,236.3 C272.33,235.48 250.82,234.47 240.99,234.04 C237.227351,233.83045 233.9741,236.637263 233.63,240.39 C233.625037,240.436535 233.625037,240.483465 233.63,240.53 C233.31,244.6 226.63,265.65 225.1,270.31 C224.929182,270.838046 224.397417,271.16136 223.85,271.07 L223.85,271.07 C223.548259,271.019468 223.280323,270.8477 223.108443,270.594602 C222.936563,270.341504 222.875702,270.02911 222.94,269.73 C224.14,264.27 229.29,240.73 231.16,228.89 C231.16,228.89 268.55,230.65 277.02,228.53 C285.49,226.41 295.45,214.18 295.45,214.18 C295.45,214.18 297.55,214.18 297.2,218.42 Z" id="Path" stroke="#1B212B" fill="#1B212B" fill-rule="nonzero" stroke-linecap="round" stroke-linejoin="round"></path>
                    <path d="M303.17,160.33 C303.17,160.33 312.91,201.02 310.28,207.9 C307.65,214.78 296.73,223.9 292.86,223.6 C288.99,223.3 288.66,184.38 288.92,180.86 C289.18,177.34 296.8,165.17 299.3,160 C301.8,154.83 303.17,160.33 303.17,160.33 Z" id="Path" stroke="#263238" fill="#F2C30E" fill-rule="nonzero" stroke-linecap="round" stroke-linejoin="round"></path>
                    <path d="M227,224.3 C227.12,228.3 227.75,231.36 229.41,231.36 C232.59,231.36 267.16,234.88 275.28,234.53 C283.4,234.18 289.36,230 289.36,224 C289.36,218 289,191.49 283,188 C277,184.51 245.25,184.12 237.84,184.12 C228.72,184.12 228.32,201.74 227.94,207.71 C227.83,209.43 226.77,218 227,224.3 Z" id="Path" stroke="#263238" fill="#F2C30E" fill-rule="nonzero" stroke-linecap="round" stroke-linejoin="round"></path>
                    <path d="M286.84,191.48 C286.84,191.48 283.92,198.61 283.92,204.27 C283.92,209.93 281.18,221.07 275.52,224.35 C269.86,227.63 263.52,229.47 254.15,228.19 C244.78,226.91 224.39,223.62 224.39,223.62 C224.39,223.62 245.39,208.62 250.68,201.16 C255.97,193.7 257.8,187.47 262,183.27 C266.2,179.07 286.47,174.87 286.84,191.48 Z" id="Path" stroke="#1B212B" fill="#1B212B" fill-rule="nonzero" stroke-linecap="round" stroke-linejoin="round"></path>
                    <ellipse id="Oval" stroke="#263238" fill="#263238" fill-rule="nonzero" stroke-linecap="round" stroke-linejoin="round" cx="161.19" cy="161.43" rx="112.25" ry="86.75"></ellipse>
                    <ellipse id="Oval" stroke="#263238" fill="#F2C30E" fill-rule="nonzero" stroke-linecap="round" stroke-linejoin="round" cx="161.19" cy="158.83" rx="112.25" ry="86.75"></ellipse>
                    <polygon id="Path" stroke="#263238" fill="#FFFFFF" fill-rule="nonzero" stroke-linecap="round" stroke-linejoin="round" points="216.81 105.56 231.05 121.19 205.82 139.29 191.28 121.65"></polygon>
                    <polygon id="Path" stroke="#263238" fill="#FFFFFF" fill-rule="nonzero" stroke-linecap="round" stroke-linejoin="round" points="139.79 106.91 116.49 118.89 137.13 144.18 161.09 128.21"></polygon>
                    <polygon id="Path" stroke="#263238" fill="#FFFFFF" fill-rule="nonzero" stroke-linecap="round" stroke-linejoin="round" points="175.12 132.24 151.83 144.22 172.46 169.51 196.42 153.54"></polygon>
                    <polygon id="Path" stroke="#263238" fill="#FFFFFF" fill-rule="nonzero" stroke-linecap="round" stroke-linejoin="round" points="172.52 134.08 147.43 141.58 163.07 170.23 189.55 158.92"></polygon>
                    <path d="M142.58,92.7 C142.58,92.7 147.11,91.01 147.11,92.14 C147.11,93.27 147.11,94.4 145.11,94.97 C143.11,95.54 136.34,94.12 138.04,93.27 C139.490223,92.7369234 141.043008,92.5419702 142.58,92.7 L142.58,92.7 Z" id="Path" stroke="#263238" fill="#FFFFFF" fill-rule="nonzero" stroke-linecap="round" stroke-linejoin="round"></path>
                    <path d="M117.52,44.1 C117.52,44.1 111.65,46.17 108.71,49.81 C105.77,53.45 104.39,62.94 103.71,67.09 C103.03,71.24 99.91,86.97 101.64,88.87 C103.37,90.77 121.86,97.17 125.49,98.21 C129.12,99.25 133.49,100.8 135.87,100.63 C137.608809,100.380432 139.265771,99.7299718 140.71,98.73 C140.71,98.73 144.86,100.63 145.89,100.63 C146.92,100.63 148.31,98.73 147.1,96.82 C145.89,94.91 142.52,92.14 140.62,92.14 C138.72,92.14 131.72,93.19 131.72,93.19 C131.72,93.19 119.79,87.14 116.33,84.72 C114.161255,83.1793056 112.136336,81.4455734 110.28,79.54 L117.37,57.41" id="Path" stroke="#1B212B" fill="#1B212B" fill-rule="nonzero" stroke-linecap="round" stroke-linejoin="round"></path>
                    <path d="M140.6,92.14 C138.7,92.14 131.7,93.19 131.7,93.19 C131.7,93.19 130.38,92.53 128.5,91.55 C127.03996,92.5407257 125.922188,93.9588985 125.3,95.61 C125.078269,96.4053396 124.954024,97.2246803 124.93,98.05 L125.47,98.21 C129.1,99.21 133.47,100.8 135.85,100.63 C137.588809,100.380432 139.245771,99.7299718 140.69,98.73 C140.69,98.73 144.84,100.63 145.87,100.63 C146.9,100.63 148.29,98.73 147.08,96.82 C145.87,94.91 142.5,92.14 140.6,92.14 Z" id="Path" stroke="#263238" fill="#FFFFFF" fill-rule="nonzero" stroke-linecap="round" stroke-linejoin="round"></path>
                    <path d="M61.43,61.23 C60.9,61.39 56.88,65.78 56.53,70.86 C56.18,75.94 60.03,84.33 60.73,85.73 C61.43,87.13 60.56,89.58 62.31,89.58 C64.06,89.58 69.49,81.53 69.49,81.53 C69.49,81.53 75.61,81.88 76.31,80.31 C77.01,78.74 71.41,69.98 70.19,66.31 C68.97,62.64 64.41,60.36 61.43,61.23 Z" id="Path" stroke="#263238" fill="#FFFFFF" fill-rule="nonzero" stroke-linecap="round" stroke-linejoin="round"></path>
                    <path d="M61.08,58.61 C61.0921436,61.0176341 60.8575856,63.4201777 60.38,65.78 C59.68,68.23 59.51,69.46 62.13,73.31 C64.7609295,76.7703359 67.6277534,80.0447968 70.71,83.11 C70.71,83.11 71.06,79.11 71.24,76.81 C71.42,74.51 74.91,73.13 75.61,72.08 C76.31,71.03 71.76,70.33 70.01,67.18 C68.26,64.03 68.26,58.61 65.81,58.08 C63.36,57.55 62,56.16 61.08,58.61 Z" id="Path" stroke="#263238" fill="#FFFFFF" fill-rule="nonzero" stroke-linecap="round" stroke-linejoin="round"></path>
                    <path d="M84.54,47.93 C84.54,47.93 89.44,46.53 88.54,41.63 C87.64,36.73 78.74,33.06 69.12,33.93 C59.5,34.8 55.12,41.11 54.24,47.41 C53.36,53.71 60.01,59.83 60.71,60.88 C61.41,61.93 60.54,62.98 62.64,63.68 C64.0690155,64.0813904 65.5809845,64.0813904 67.01,63.68 C68.0672155,65.2009238 69.9205486,65.9571464 71.74,65.61 C74.74,64.91 73.84,58.96 75.07,58.26 C76.3,57.56 77.17,55.26 80.84,53.18 C84.51,51.1 84.54,47.93 84.54,47.93 Z" id="Path" stroke="#1B212B" fill="#1B212B" fill-rule="nonzero" stroke-linecap="round" stroke-linejoin="round"></path>
                    <path d="M69.66,62.46 C69.66,62.46 70.01,59.66 66.51,59.31 C63.01,58.96 63.89,62.31 64.59,63.86 C65.29,65.41 67.73,66.66 67.73,66.66 C67.73,66.66 68.61,70.66 69.84,71.03 C71.07,71.4 78.41,74.53 79.84,74.03 C81.27,73.53 82.64,67.03 82.64,67.03 C82.64,67.03 85.09,65.8 85.09,64.58 C85.09,63.36 84,59.83 84,59 C84,58.17 85.93,55.67 86.28,53.75 C86.63,51.83 84.53,47.97 84.53,47.97 C84.53,47.97 83.65,51.12 80.85,51.12 C78.9532974,51.0763898 77.0705343,50.7838891 75.25,50.25 C75.25,50.25 76.65,53.92 75.6,55.5 C74.55,57.08 72.8,56.72 72.45,57.42 C72.1,58.12 72.28,61.27 72.1,61.97 C71.92,62.67 70.71,65.08 69.66,62.46 Z" id="Path" stroke="#263238" fill="#FFFFFF" fill-rule="nonzero" stroke-linecap="round" stroke-linejoin="round"></path>
                    <path d="M86.64,81.53 C86.64,81.53 87.51,88.53 89.26,91.33 C91.01,94.13 98.36,104.98 98.36,104.98 C98.36,104.98 97.84,108.66 98.36,109.71 C99.4078503,111.913563 100.287039,114.193437 100.99,116.53 C100.99,117.23 102.39,117.76 102.56,116.71 C102.677056,115.89853 102.737203,115.079865 102.74,114.26 L105.74,118.81 C105.74,118.81 107.32,120.03 107.84,118.98 C108.36,117.93 108.02,112.33 108.37,110.06 C108.72,107.79 106.97,104.63 105.57,103.23 C104.17,101.83 102.42,99.38 101.89,98.86 C101.36,98.34 99.09,90.11 98.04,84.51 C96.99,78.91 94.19,75.41 92.09,75.06" id="Path" stroke="#263238" fill="#FFFFFF" fill-rule="nonzero" stroke-linecap="round" stroke-linejoin="round"></path>
                    <path d="M107.81,119 C108.34,118 107.99,112.35 108.34,110.08 C108.69,107.81 106.94,104.65 105.54,103.25 C104.530798,102.178102 103.579448,101.053173 102.69,99.88 C100.573748,100.476674 98.674508,101.671077 97.22,103.32 L98.36,105 C98.36,105 97.84,108.68 98.36,109.73 C99.4078503,111.933563 100.287039,114.213437 100.99,116.55 C100.99,117.25 102.39,117.78 102.56,116.73 C102.677056,115.91853 102.737203,115.099865 102.74,114.28 L105.74,118.83 C105.74,118.83 107.29,120 107.81,119 Z" id="Path" stroke="#263238" fill="#FFFFFF" fill-rule="nonzero" stroke-linecap="round" stroke-linejoin="round"></path>
                    <path d="M44.63,74.53 C42.3457163,76.3405561 40.741937,78.8713551 40.08,81.71 C38.86,86.61 42.88,106.56 43.93,112.33 C44.98,118.1 50.23,137.33 51.81,138.58 C53.39,139.83 71.76,137.53 78.41,136.31 C85.06,135.09 99.41,130.01 102.41,129.13 C105.41,128.25 106.96,123.71 107.83,122.83 C108.7,121.95 110.63,118.98 109.58,117.93 C108.53,116.88 105.58,117.93 104.33,117.93 C103.08,117.93 100.83,117.76 98.38,117.76 C95.8871126,117.826888 93.7424753,119.542597 93.13,121.96 C92.7948039,123.286916 92.2000181,124.534267 91.38,125.63 C91.38,125.63 73.38,128.08 69.51,128.08 C66.9916956,128.06166 64.4769204,127.887996 61.98,127.56 C61.98,127.56 59.88,115.48 58.3,107.96 C56.72,100.44 55.3,94.66 54.1,92.73" id="Path" stroke="#263238" fill="#FFFFFF" fill-rule="nonzero" stroke-linecap="round" stroke-linejoin="round"></path>
                    <path d="M104.31,117.93 C103.09,117.93 100.81,117.76 98.36,117.76 C95.8671126,117.826888 93.7224753,119.542597 93.11,121.96 C92.7748039,123.286916 92.1800181,124.534267 91.36,125.63 L90.09,125.8 C90.5948928,126.845467 90.906574,127.973617 91.01,129.13 C91.0624156,130.394546 90.9853479,131.661138 90.78,132.91 C95.96,131.27 100.78,129.6 102.39,129.13 C105.39,128.26 106.94,123.71 107.81,122.83 C108.68,121.95 110.61,118.98 109.56,117.93 C108.51,116.88 105.54,117.93 104.31,117.93 Z" id="Path" stroke="#263238" fill="#FFFFFF" fill-rule="nonzero" stroke-linecap="round" stroke-linejoin="round"></path>
                    <path d="M92.47,150.91 C92.47,150.91 96.98,151.28 98.47,151.28 C99.96,151.28 110.31,150.16 108.81,148.47 C107.31,146.78 96.01,145.27 96.01,145.27 L92.47,150.91 Z" id="Path" stroke="#263238" fill="#FFFFFF" fill-rule="nonzero" stroke-linecap="round" stroke-linejoin="round"></path>
                    <polygon id="Path" stroke="#263238" fill="#FFFFFF" fill-rule="nonzero" stroke-linecap="round" stroke-linejoin="round" points="115.01 140.76 82.14 155.98 94.91 181.9 127.22 165.56"></polygon>
                    <path d="M93,149.4 C93,149.4 96.94,149.4 97.88,149.97 C98.82,150.54 102.76,154.1 103.33,153.16 C103.9,152.22 101.64,149.97 100.7,149.03 C99.76,148.09 98.82,147.34 98.82,147.34" id="Path" stroke="#263238" fill="#FFFFFF" fill-rule="nonzero" stroke-linecap="round" stroke-linejoin="round"></path>
                    <path d="M62.15,136.45 L96,145.27 L90.7,153.03 L55.07,148.8 C55.07,148.8 46.62,137.16 62.15,136.45 Z" id="Path" stroke="#263238" fill="#FFFFFF" fill-rule="nonzero" stroke-linecap="round" stroke-linejoin="round"></path>
                    <path d="M38.19,137.93 C38.19,137.93 29.94,144.93 27.19,153.43 C24.44,161.93 22.69,178.93 22.69,178.93 C22.69,178.93 13.94,191.43 13.94,192.68 C13.94,193.93 21.19,192.68 21.19,192.68 L14.19,204.68 C14.19,204.68 14.19,214.68 19.69,219.93 C24.8325838,224.815125 31.9085693,227.112523 38.94,226.18 C44.94,225.18 55.94,211.68 57.19,210.93 C58.44,210.18 54.19,198.68 53.19,194.43 C52.19,190.18 54.19,187.18 55.44,186.43 C56.69,185.68 63.94,181.18 65.44,177.93 C66.94,174.68 66.69,169.18 66.19,164.93 C65.69,160.68 59.44,145.93 53.94,141.43 C48.44,136.93 43.44,133.93 38.19,137.93 Z" id="Path" stroke="#263238" fill="#FFFFFF" fill-rule="nonzero" stroke-linecap="round" stroke-linejoin="round"></path>
                    <path d="M43.19,136.68 C43.19,136.68 39.44,142.18 39.44,146.18 C39.44,150.18 42.69,156.68 45.19,159.68 C46.6594519,161.451268 48.2463661,163.121704 49.94,164.68 L55.44,163.43 L55.69,167.68 C55.69,167.68 56.94,165.43 60.44,166.93 C63.94,168.43 66.19,167.43 66.19,166.68 C67.3854627,161.836001 67.3854627,156.773999 66.19,151.93 C64.19,143.18 61.94,141.68 58.69,138.43 C55.44,135.18 47.94,133.93 43.19,136.68 Z" id="Path" stroke="#263238" fill="#FFFFFF" fill-rule="nonzero" stroke-linecap="round" stroke-linejoin="round"></path>
                    <path d="M45.69,137.93 C45.69,137.93 42.94,142.68 44.44,146.43 C45.94,150.18 50.69,154.68 54.44,157.93 C58.19,161.18 62.94,164.68 62.94,164.68 C64.6539653,159.090539 64.0222875,153.04448 61.19,147.93 C56.44,138.93 47.94,136.18 45.69,137.93 Z" id="Path" stroke="#263238" fill="#FFFFFF" fill-rule="nonzero" stroke-linecap="round" stroke-linejoin="round"></path>
                    <path d="M67.44,115.18 C68.1407208,116.803232 68.7255191,118.474084 69.19,120.18 L69.19,121.93 C69.19,121.93 72.69,123.93 72.19,124.68 C71.69,125.43 69.69,128.68 69.69,128.68 C69.963834,131.429238 69.8797992,134.202387 69.44,136.93 C68.69,140.18 69.69,141.68 66.94,141.68 L59.94,141.68 C59.94,141.68 59.19,152.18 57.44,152.18 C55.69,152.18 47.69,148.43 46.19,146.43 C44.69,144.43 44.19,142.43 44.69,140.93 C46.2458653,136.922715 47.5811964,132.833264 48.69,128.68 C49.69,124.18 57.19,120.68 58.94,119.93 C60.69,119.18 67.44,115.18 67.44,115.18 Z" id="Path" stroke="#263238" fill="#FFFFFF" fill-rule="nonzero" stroke-linecap="round" stroke-linejoin="round"></path>
                    <path d="M39.69,132.93 C39.69,132.93 33.69,131.93 30.69,132.43 C27.69,132.93 23.94,137.18 23.94,141.43 C23.94,145.68 27.19,148.18 32.44,148.68 C37.69,149.18 41.1900117,144.68 41.1900117,142.18 C41.1928172,139.035893 40.6862552,135.912095 39.69,132.93 L39.69,132.93 Z" id="Path" stroke="#1B212B" fill="#1B212B" fill-rule="nonzero" stroke-linecap="round" stroke-linejoin="round"></path>
                    <path d="M54.94,131.68 C54.94,131.68 64.44,121.43 67.44,115.18 C70.44,108.93 69.44,102.43 64.69,102.43 C59.94,102.43 54.69,100.93 45.69,104.18 C36.69,107.43 32.94,117.93 33.44,123.43 C33.94,128.93 42.19,140.18 46.44,140.93 C50.69,141.68 50.69,134.18 50.69,134.18 L54.94,131.68 Z" id="Path" stroke="#1B212B" fill="#1B212B" fill-rule="nonzero" stroke-linecap="round" stroke-linejoin="round"></path>
                    <path d="M56.19,133.43 C56.19,133.43 53.94,128.43 51.19,129.93 C48.44,131.43 50.94,136.93 52.69,138.18 C54.44,139.43 57.19,137.43 57.19,137.43" id="Path" stroke="#263238" fill="#FFFFFF" fill-rule="nonzero" stroke-linecap="round" stroke-linejoin="round"></path>
                    <path d="M69.19,121.93 C69.19,121.93 68.19,125.18 66.94,125.68" id="Path" stroke="#263238" stroke-linecap="round" stroke-linejoin="round"></path>
                    <path d="M88.36,167.2 C88.36,167.2 86.44,165.92 86.19,167.58 C85.94,169.24 87.85,171.03 87.85,171.03 C87.85,171.03 85.42,168.35 85.29,169.88 C85.16,171.41 86.7,173.08 86.7,173.08 C86.7,173.08 84.78,172.18 84.78,172.95 C84.78,173.72 87.47,176.4 87.59,177.67 C87.71,178.94 90.15,174.99 90.66,171.93 C90.8812635,170.039729 89.9834138,168.193282 88.36,167.2 Z" id="Path" stroke="#263238" fill="#FFFFFF" fill-rule="nonzero" stroke-linecap="round" stroke-linejoin="round"></path>
                    <path d="M84.69,186.18 C85.2936249,183.96867 85.7117412,181.710842 85.94,179.43 C85.94,177.43 88.19,173.93 89.19,171.93 C90.19,169.93 85.94,166.43 87.94,165.43 C89.94,164.43 91.44,166.43 93.19,168.68 C94.94,170.93 95.44,175.68 93.94,178.93 C92.5255209,181.937299 90.6719379,184.717674 88.44,187.18 C87.7076934,187.963974 86.865603,188.637646 85.94,189.18 L84.69,186.18 Z" id="Path" stroke="#263238" fill="#FFFFFF" fill-rule="nonzero" stroke-linecap="round" stroke-linejoin="round"></path>
                    <path d="M86.58,181.38 L86.58,175.05 C86.58,171.88 88.36,167.2 88.36,167.2 C88.9547006,167.119896 89.549734,167.344826 89.942739,167.798293 C90.3357439,168.25176 90.4738163,168.872722 90.31,169.45 C90.1462307,171.507227 90.2707685,173.577247 90.68,175.6" id="Path" stroke="#263238" fill="#FFFFFF" fill-rule="nonzero" stroke-linecap="round" stroke-linejoin="round"></path>
                    <path d="M31.19,177.68 C31.19,177.68 27.69,182.68 29.44,188.18 C31.19,193.68 56.19,226.93 59.69,226.93 C63.19,226.93 88.44,194.18 89.94,192.18 C91.44,190.18 84.94,185.18 84.94,185.18 L59.69,208.18 C59.69,208.18 52.94,181.18 50.19,176.18 C47.44,171.18 40.94,170.68 40.94,170.68" id="Path" stroke="#263238" fill="#FFFFFF" fill-rule="nonzero" stroke-linecap="round" stroke-linejoin="round"></path>
                    <path d="M152.1,71.76 C152.1,71.76 155.55,67.96 159.18,67.26 C162.81,66.56 164.71,68.99 163.68,73.31 C162.65,77.63 159.36,78.67 157.45,78.5 C155.54,78.33 152.45,77.5 151.58,75.22 C151.008802,74.0720215 151.216599,72.6893682 152.1,71.76 Z" id="Path" stroke="#263238" fill="#263238" fill-rule="nonzero" stroke-linecap="round" stroke-linejoin="round"></path>
                    <path d="M154.17,70.72 C154.17,70.72 146.74,71.72 145.01,72.97 C143.28,74.22 139.3,80.92 139.3,81.78 C139.3,82.64 141.72,83.51 142.93,83.51 C144.14,83.51 147.26,79.36 147.26,79.36 L145.7,83.69 C145.7,83.69 147.26,83.51 147.43,82.82 C147.6,82.13 150.02,77.46 150.02,77.46 C150.02,77.46 154.52,77.64 155.73,75.56 C156.94,73.48 157.8,72.1 154.17,70.72 Z" id="Path" stroke="#263238" fill="#FFFFFF" fill-rule="nonzero" stroke-linecap="round" stroke-linejoin="round"></path>
                    <path d="M169.09,59.31 C169.09,59.31 167.01,66.31 167.01,70.65 C167.01,74.99 170,89 170,89 C169.586118,91.3708865 168.550938,93.5896221 167,95.43 C164.54,98.08 165.3,101.67 166.43,102.8 C167.56,103.93 169.84,106.02 170.59,104.69 C171.34,103.36 170.78,100.91 171.54,99.97 C172.3,99.03 175.13,97.51 175.54,94.67 C175.95,91.83 175.35,83.14 175.35,78.41 C175.35,73.68 177.81,66.69 175.16,61.78" id="Path" stroke="#263238" fill="#FFFFFF" fill-rule="nonzero" stroke-linecap="round" stroke-linejoin="round"></path>
                    <path d="M175.55,86.76 C172.48,86.15 170.79,87.19 169.89,88.31 C169.98,88.74 170.04,88.99 170.04,88.99 C169.626118,91.3608865 168.590938,93.5796221 167.04,95.42 C164.58,98.07 165.34,101.66 166.47,102.79 C167.6,103.92 169.88,106.01 170.63,104.68 C171.38,103.35 170.82,100.9 171.58,99.96 C172.34,99.02 175.17,97.5 175.58,94.66 C175.728113,92.0284394 175.718094,89.3903598 175.55,86.76 Z" id="Path" stroke="#263238" fill="#FFFFFF" fill-rule="nonzero" stroke-linecap="round" stroke-linejoin="round"></path>
                    <polygon id="Path" stroke="#263238" fill="#FFFFFF" fill-rule="nonzero" stroke-linecap="round" stroke-linejoin="round" points="180.81 86.53 162.66 107.14 181 120.19 198.58 97.88"></polygon>
                    <path d="M172.87,95 C172.87,95 173.06,101.43 173.06,102.38 C173.06,103.33 175.14,104.46 175.33,102.19 C175.360609,100.922186 175.487642,99.658538 175.71,98.41 C175.9,97.84 177.03,94.25 175.52,91.6" id="Path" stroke="#263238" fill="#FFFFFF" fill-rule="nonzero" stroke-linecap="round" stroke-linejoin="round"></path>
                    <path d="M223.92,44.94 C223.92,44.94 218.82,50.61 216.36,55.94 C213.9,61.27 212.01,74.84 212.01,74.84 C212.01,74.84 202.18,90.91 200.85,92.24 C199.52,93.57 200.29,93.37 197.07,94.88 C193.85,96.39 189.7,97.15 189.13,98.1 C188.56,99.05 186.48,103.58 185.92,104.15 C185.36,104.72 186.67,105.85 187.43,105.09 C188.19,104.33 190.83,101.31 190.83,101.31 L187.62,108.87 C187.631626,109.150574 187.760687,109.41333 187.975633,109.594037 C188.190579,109.774744 188.4716,109.856747 188.75,109.82 C190.136633,109.561907 191.482104,109.117901 192.75,108.5 C192.75,108.5 195.97,107.74 197.1,106.23 C198.23,104.72 202.4,96.58 202.4,96.58 C202.4,96.58 213.4,89.58 217.33,84.86 C220.406433,81.1304652 222.836697,76.9121475 224.52,72.38 C225.08,70.49 232.08,49.51 231.89,46.1 C231.7,42.69 230,42.1 230,42.1" id="Path" stroke="#263238" fill="#FFFFFF" fill-rule="nonzero" stroke-linecap="round" stroke-linejoin="round"></path>
                    <path d="M200.29,92.81 C199.67,93.52 199.69,93.62 197.07,94.81 C193.86,96.33 189.7,97.08 189.13,98.03 C188.56,98.98 186.48,103.51 185.92,104.08 C185.36,104.65 186.67,105.78 187.43,105.02 C188.19,104.26 190.83,101.24 190.83,101.24 L187.62,108.8 C187.631626,109.080574 187.760687,109.34333 187.975633,109.524037 C188.190579,109.704744 188.4716,109.786747 188.75,109.75 C190.136633,109.491907 191.482104,109.047901 192.75,108.43 C192.75,108.43 195.97,107.67 197.1,106.16 C198.23,104.65 202.4,96.51 202.4,96.51 C202.4,96.51 203.08,96.08 204.18,95.35 C203.17229,94.1269059 201.815097,93.2407182 200.29,92.81 L200.29,92.81 Z" id="Path" stroke="#263238" fill="#FFFFFF" fill-rule="nonzero" stroke-linecap="round" stroke-linejoin="round"></path>
                    <path d="M275.3,98.75 C275.3,98.75 271.12,106.64 270.35,109.75 C269.58,112.86 268.35,116.25 268.35,116.25 C268.35,116.25 260.61,115.01 253.96,114.25 C247.31,113.49 237.87,111.77 235.54,111.31 C233.21,110.85 228.89,109.6 227.96,110.38 C227.03,111.16 227.65,111 228.74,111.46 C229.64049,111.73515 230.593889,111.790022 231.52,111.62 C231.52,111.62 229.97,112.08 228.27,112.7 C226.57,113.32 223.47,114.4 223.01,115.02 C222.55,115.64 223.63,117.81 225.33,117.81 C226.618703,117.728184 227.911297,117.728184 229.2,117.81 C230.13,117.96 230.59,118.89 233.69,118.89 C236.79,118.89 241.11,116.41 241.11,116.41 C241.11,116.41 255.66,123.07 263.86,124.46 C272.06,125.85 273.3,124 276.71,121.36 C280.12,118.72 290.01,102.49 289.24,99.24 C288.736366,97.2058376 287.89829,95.2694772 286.76,93.51" id="Path" stroke="#1B212B" fill="#1B212B" fill-rule="nonzero" stroke-linecap="round" stroke-linejoin="round"></path>
                    <path d="M244.44,112.86 C240.39,112.2 236.84,111.55 235.53,111.29 C233.21,110.82 228.88,109.58 227.95,110.36 C227.02,111.14 227.64,110.98 228.73,111.44 C229.63049,111.71515 230.583889,111.770022 231.51,111.6 C231.51,111.6 229.96,112.06 228.26,112.68 C226.56,113.3 223.46,114.38 223,115 C222.54,115.62 223.62,117.79 225.32,117.79 C226.608703,117.708184 227.901297,117.708184 229.19,117.79 C230.12,117.94 230.58,118.87 233.68,118.87 C236.78,118.87 241.1,116.39 241.1,116.39 C241.1,116.39 242.24,116.91 244.05,117.69 L244.44,112.86 Z" id="Path" stroke="#263238" fill="#FFFFFF" fill-rule="nonzero" stroke-linecap="round" stroke-linejoin="round"></path>
                    <path d="M234.45,74.92 C234.45,74.92 227.18,78.48 224.39,80.92 C221.6,83.36 214.64,99.02 214.49,100.1 C214.34,101.18 219.75,101.81 220.37,101.5 C220.99,101.19 231.98,88.5 234.76,86.33 C236.34269,85.2994734 236.988935,83.3023674 236.31,81.54" id="Path" stroke="#1B212B" fill="#1B212B" fill-rule="nonzero" stroke-linecap="round" stroke-linejoin="round"></path>
                    <path d="M217.12,96.9 C214.816774,97.3871077 212.543105,98.0047711 210.31,98.75 C208.45,99.53 204.12,105.1 205.2,105.41 C206.28,105.72 209.2,102.16 209.2,102.16 C208.172345,103.616076 207.291381,105.170324 206.57,106.8 C206.26,108.04 205.95,110.8 207.19,110.36 C208.43,109.92 210.9,106.49 210.9,106.49 C210.9,106.49 213.99,104.63 216.47,104.63 C218.95,104.63 220.65,99.99 220.65,99.99 C220.65,99.99 222.65,97.99 221.89,95.81 C221.13,93.63 217.12,96.9 217.12,96.9 Z" id="Path" stroke="#263238" fill="#FFFFFF" fill-rule="nonzero" stroke-linecap="round" stroke-linejoin="round"></path>
                    <path d="M221.3,95.66 C220.060404,95.7103973 218.864934,95.1954258 218.05,94.26 C216.81,92.72 216.05,94.26 216.05,95.81 C216.088865,96.7352064 216.705452,97.5359691 217.59,97.81 C217.59,97.81 214.96,100.29 216.51,101.06 C217.551218,101.472275 218.733363,101.29686 219.61,100.6" id="Path" stroke="#263238" fill="#FFFFFF" fill-rule="nonzero" stroke-linecap="round" stroke-linejoin="round"></path>
                    <path d="M275.7,136 C275.7,136 268.03,134.54 265.29,134 C262.55,133.46 253.6,137.11 251.05,138 C248.5,138.89 251.05,139.65 253.79,140.19 C256.53,140.73 262,139.65 262,139.65 C262,139.65 256,142.2 257.44,142.57 C258.88,142.94 261.82,142.2 264.38,142.02 C266.94,141.84 269.49,139.46 269.49,139.46 C269.49,139.46 281.73,145.46 283.19,145.46 C284.65,145.46 286.84,141.08 283.73,139.25 C281.166753,137.90517 278.477054,136.816562 275.7,136 L275.7,136 Z" id="Path" stroke="#263238" fill="#FFFFFF" fill-rule="nonzero" stroke-linecap="round" stroke-linejoin="round"></path>
                    <path d="M278.44,142.73 C273.645855,146.360294 269.40193,150.664846 265.84,155.51 C260.54,163 259.63,178.15 260.73,182.51 C261.83,186.87 262.55,192 267.85,195.51 C273.15,199.02 276.98,200.44 286.11,195.51 C295.24,190.58 299.99,174.15 299.11,161.51 C298.23,148.87 290.53,140.14 286.51,139.05 C282.49,137.96 278.44,142.73 278.44,142.73 Z" id="Path" stroke="#263238" fill="#FFFFFF" fill-rule="nonzero" stroke-linecap="round" stroke-linejoin="round"></path>
                    <path d="M279,145.1 C279,145.1 275.71,145.47 274.07,147.66 C272.43,149.85 272.97,150.58 274.07,151.13 C274.766426,151.577886 275.230819,152.309213 275.34,153.13 C275.34,153.13 271.51,159.34 273.52,160.61 C275.53,161.88 284.47,157.69 286.85,154.61 C289.23,151.53 288.13,146.39 286.67,144.93 C285.21,143.47 279,145.1 279,145.1 Z" id="Path" stroke="#263238" fill="#FFFFFF" fill-rule="nonzero" stroke-linecap="round" stroke-linejoin="round"></path>
                    <path d="M276.79,121.37 C275.732852,122.628784 274.504191,123.732896 273.14,124.65 C271.68,125.38 269.86,126.11 271.32,127.21 C272.154095,127.822589 272.945894,128.490774 273.69,129.21 C273.69,129.21 271.86,135.21 272.6,138.7 C272.730778,139.602112 273.247122,140.402869 274.014887,140.894239 C274.782653,141.385608 275.726054,141.519088 276.6,141.26 C276.6,141.26 276.05,150.39 275.32,153.13 C274.59,155.87 278.06,155.68 280.8,154.04 C283.54,152.4 283.91,145.64 285,140.71 C286.09,135.78 292.67,129.94 288.11,124.46 C283.55,118.98 276.79,121.37 276.79,121.37 Z" id="Path" stroke="#263238" fill="#FFFFFF" fill-rule="nonzero" stroke-linecap="round" stroke-linejoin="round"></path>
                    <path d="M306.56,115.16 C299.8,108.22 289.56,109.86 288.12,110.23 C288.12,110.23 282.42,108.84 279.12,109.39 C275.82,109.94 274.59,119.39 276.6,124.65 C277.31683,126.538212 278.671799,128.11606 280.43,129.11 C280.1,128.82 278.15,126.98 280.03,125.52 C281.146514,124.603702 282.472713,123.978395 283.89,123.7 C283.89,123.7 282.3,128.92 282.98,129.84 C285.76,133.54 273.26,150.99 272.77,150.71 C272.77,150.71 276.42,152.77 280.99,154.96 C291.08,159.81 302.99,149.46 306.73,140.72 C309.71,133.82 312.58,121.34 306.56,115.16 Z" id="Path" stroke="#1B212B" fill="#1B212B" fill-rule="nonzero" stroke-linecap="round" stroke-linejoin="round"></path>
                    <polygon id="Path" stroke="#263238" fill="#FFFFFF" fill-rule="nonzero" stroke-linecap="round" stroke-linejoin="round" points="208.24 141.18 199.02 179.75 217.88 188.34 225.01 152.08"></polygon>
                    <polygon id="Path" stroke="#1B212B" fill="#1B212B" fill-rule="nonzero" stroke-linecap="round" stroke-linejoin="round" points="208.88 145.17 201.22 177.22 216.89 184.36 222.82 154.22"></polygon>
                    <polygon id="Path" stroke="#263238" fill="#FFFFFF" fill-rule="nonzero" stroke-linecap="round" stroke-linejoin="round" points="225.01 152.08 250.79 153.34 245.76 190.44 217.88 188.34"></polygon>
                    <polygon id="Path" fill="#263238" fill-rule="nonzero" points="232.6 168.56 234.47 168.64 234.66 167.44 232.82 167.31"></polygon>
                    <polygon id="Path" fill="#263238" fill-rule="nonzero" points="236.94 176.98 237.24 175.15 234.64 175.03 234.36 176.8"></polygon>
                    <polygon id="Path" fill="#263238" fill-rule="nonzero" points="232.34 163.31 232.57 162.02 230.23 161.86 229.99 163.21"></polygon>
                    <polygon id="Path" fill="#263238" fill-rule="nonzero" points="233.5 163.37 235.28 163.45 235.47 162.23 233.72 162.11"></polygon>
                    <polygon id="Path" fill="#263238" fill-rule="nonzero" points="232.12 171.37 234.02 171.51 234.29 169.78 232.4 169.7"></polygon>
                    <polygon id="Path" fill="#263238" fill-rule="nonzero" points="238.65 166.56 238.95 164.77 236.26 164.64 235.99 166.38"></polygon>
                    <polygon id="Path" fill="#263238" fill-rule="nonzero" points="230.91 158.02 233.24 158.13 233.58 156.13 231.27 156.01"></polygon>
                    <polygon id="Path" fill="#263238" fill-rule="nonzero" points="236.09 158.26 236.4 156.28 234.74 156.19 234.4 158.18"></polygon>
                    <polygon id="Path" fill="#263238" fill-rule="nonzero" points="230.71 159.16 230.43 160.73 232.76 160.89 233.04 159.26"></polygon>
                    <polygon id="Path" fill="#263238" fill-rule="nonzero" points="235.11 164.59 233.3 164.51 233.01 166.17 234.84 166.3"></polygon>
                    <polygon id="Path" fill="#263238" fill-rule="nonzero" points="235.92 159.4 234.2 159.32 233.91 160.97 235.65 161.09"></polygon>
                    <polygon id="Path" fill="#263238" fill-rule="nonzero" points="237.8 171.77 238.1 169.96 235.45 169.84 235.18 171.59"></polygon>
                    <polygon id="Path" fill="#263238" fill-rule="nonzero" points="227.23 172.18 225.32 172.05 225.07 173.44 226.99 173.53"></polygon>
                    <polygon id="Path" fill="#263238" fill-rule="nonzero" points="226.79 174.67 224.87 174.58 224.61 176.11 226.51 176.25"></polygon>
                    <polygon id="Path" fill="#263238" fill-rule="nonzero" points="226.31 177.38 224.41 177.25 224.17 178.63 226.07 178.72"></polygon>
                    <polygon id="Path" fill="#263238" fill-rule="nonzero" points="225.87 179.86 223.96 179.77 223.69 181.31 225.58 181.45"></polygon>
                    <polygon id="Path" fill="#263238" fill-rule="nonzero" points="227.71 169.48 225.78 169.39 225.52 170.91 227.43 171.05"></polygon>
                    <polygon id="Path" fill="#263238" fill-rule="nonzero" points="228.63 164.29 226.69 164.2 226.43 165.71 228.36 165.84"></polygon>
                    <polygon id="Path" fill="#263238" fill-rule="nonzero" points="229.56 159.1 227.6 159.01 227.34 160.51 229.28 160.64"></polygon>
                    <polygon id="Path" fill="#263238" fill-rule="nonzero" points="228.15 166.98 226.23 166.85 225.98 168.25 227.91 168.34"></polygon>
                    <polygon id="Path" fill="#263238" fill-rule="nonzero" points="229.08 161.78 227.14 161.64 226.89 163.06 228.83 163.15"></polygon>
                    <polygon id="Path" fill="#263238" fill-rule="nonzero" points="239.8 159.58 237.07 159.45 236.8 161.17 239.51 161.36"></polygon>
                    <polygon id="Path" fill="#263238" fill-rule="nonzero" points="225.38 182.58 223.5 182.45 223.12 184.57 225 184.76"></polygon>
                    <polygon id="Path" fill="#263238" fill-rule="nonzero" points="235.63 168.7 238.28 168.82 238.47 167.7 235.81 167.52"></polygon>
                    <polygon id="Path" fill="#263238" fill-rule="nonzero" points="234 179.08 236.58 179.2 236.76 178.11 234.18 177.93"></polygon>
                    <polygon id="Path" fill="#263238" fill-rule="nonzero" points="234.81 173.89 237.43 174.01 237.61 172.91 235 172.73"></polygon>
                    <polygon id="Path" fill="#263238" fill-rule="nonzero" points="233.85 172.64 231.92 172.51 231.7 173.75 233.66 173.84"></polygon>
                    <polygon id="Path" fill="#263238" fill-rule="nonzero" points="236.39 180.34 233.83 180.22 233.55 182 236.09 182.18"></polygon>
                    <polygon id="Path" fill="#263238" fill-rule="nonzero" points="233.37 183.14 232.99 185.57 235.49 185.82 235.9 183.32"></polygon>
                    <polygon id="Path" fill="#263238" fill-rule="nonzero" points="229.51 165.93 231.86 166.09 232.15 164.45 229.79 164.35"></polygon>
                    <polygon id="Path" fill="#263238" fill-rule="nonzero" points="229.76 157.96 230.12 155.95 228.15 155.85 227.8 157.88"></polygon>
                    <polygon id="Path" fill="#263238" fill-rule="nonzero" points="236.44 163.5 239.14 163.63 239.32 162.5 236.62 162.31"></polygon>
                    <polygon id="Path" fill="#263238" fill-rule="nonzero" points="237.25 158.31 239.99 158.44 240.31 156.48 237.55 156.34"></polygon>
                    <polygon id="Path" fill="#263238" fill-rule="nonzero" points="233.48 174.98 231.51 174.88 231.21 176.57 233.21 176.71"></polygon>
                    <polygon id="Path" fill="#263238" fill-rule="nonzero" points="230.35 174.83 227.94 174.72 227.66 176.33 230.06 176.49"></polygon>
                    <polygon id="Path" fill="#263238" fill-rule="nonzero" points="231.02 177.71 230.81 178.93 232.85 179.03 233.04 177.85"></polygon>
                    <polygon id="Path" fill="#263238" fill-rule="nonzero" points="232.67 180.17 230.61 180.07 230.31 181.78 232.4 181.92"></polygon>
                    <polygon id="Path" fill="#263238" fill-rule="nonzero" points="226.74 181.53 229.16 181.7 229.45 180.02 227.02 179.91"></polygon>
                    <polygon id="Path" fill="#263238" fill-rule="nonzero" points="229.87 177.63 227.46 177.46 227.23 178.77 229.65 178.88"></polygon>
                    <polygon id="Path" fill="#263238" fill-rule="nonzero" points="228.15 173.58 230.55 173.69 230.77 172.43 228.38 172.26"></polygon>
                    <polygon id="Path" fill="#263238" fill-rule="nonzero" points="226.53 182.66 226.14 184.87 228.57 185.12 228.97 182.83"></polygon>
                    <polygon id="Path" fill="#263238" fill-rule="nonzero" points="232.22 183.06 230.12 182.91 229.72 185.24 231.85 185.45"></polygon>
                    <polygon id="Path" fill="#263238" fill-rule="nonzero" points="231.67 167.23 229.31 167.06 229.07 168.39 231.45 168.5"></polygon>
                    <polygon id="Path" fill="#263238" fill-rule="nonzero" points="231.25 169.64 228.87 169.53 228.58 171.13 230.96 171.29"></polygon>
                    <path d="M279.35,175.78 C279.35,175.78 277,176 273,179.25 C269,182.5 253.1,210.25 253.1,210.25 C253.1,210.25 238.67,201.25 235.02,198.75 C231.37,196.25 228.45,191.63 226.44,188.89 C224.43,186.15 224.06,185.78 221.32,185.6 C218.58,185.42 216.58,183.6 216.21,184.87 C215.84,186.14 216.94,186.7 217.67,187.06 C218.308245,187.30526 218.986254,187.430692 219.67,187.43 C217.947036,187.689695 216.189154,187.29747 214.74,186.33 C212,184.69 211.27,184.33 211.27,186.15 C211.27,187.97 213.27,190.9 214.74,192.72 C216.21,194.54 224.6,195.28 224.6,195.28 C227.645116,201.158391 231.062052,206.836583 234.83,212.28 C240.3,219.95 251.99,228.17 255.28,227.07 C258.57,225.97 275.91,204.25 280.66,198.22 C285.41,192.19 291.66,185.07 290.15,181.06" id="Path" stroke="#263238" fill="#FFFFFF" fill-rule="nonzero" stroke-linecap="round" stroke-linejoin="round"></path>
                    <path d="M230.06,193.91 C228.63,192.12 227.4,190.29 226.4,188.91 C224.4,186.17 224.02,185.8 221.28,185.62 C218.54,185.44 216.54,183.62 216.17,184.89 C215.8,186.16 216.9,186.72 217.63,187.08 C218.268245,187.32526 218.946254,187.450692 219.63,187.45 C217.907036,187.709695 216.149154,187.31747 214.7,186.35 C211.96,184.71 211.23,184.35 211.23,186.17 C211.23,187.99 213.23,190.92 214.7,192.74 C216.17,194.56 224.56,195.3 224.56,195.3 C224.56,195.3 224.93,196.02 225.56,197.19 C226.747179,195.721771 228.298853,194.590773 230.06,193.91 Z" id="Path" stroke="#263238" fill="#FFFFFF" fill-rule="nonzero" stroke-linecap="round" stroke-linejoin="round"></path>
                </g>
            </g>
        </g>
    </g>
</svg>