<?xml version="1.0" encoding="UTF-8"?>
<svg width="343px" height="344px" viewBox="0 0 343 344" version="1.1" xmlns="http://www.w3.org/2000/svg" xmlns:xlink="http://www.w3.org/1999/xlink">
    <title>Revenue-bro (1)</title>
    <g id="Page-1" stroke="none" stroke-width="1" fill="none" fill-rule="evenodd">
        <g id="Desktop-HD" transform="translate(-447.000000, -826.000000)">
            <g id="Revenue-bro-(1)" transform="translate(448.000000, 826.000000)">
                <g id="freepik--Shadow--inject-14" transform="translate(49.000000, 264.000000)" fill="#F2C30E" fill-rule="nonzero">
                    <ellipse id="Oval" cx="146.581389" cy="40.2040816" rx="145.954694" ry="39.4285714"></ellipse>
                </g>
                <g id="freepik--Window--inject-14" transform="translate(34.000000, 0.000000)">
                    <rect id="Rectangle" fill="#FFFFFF" fill-rule="nonzero" x="0.1469869" y="20.6148148" width="186.77952" height="110.888148" rx="8.95"></rect>
                    <path d="M186.926671,27.9074074 L186.926671,30.7918519 L0.1469869,30.7918519 L0.1469869,27.9074074 C0.1469869,23.8731763 3.41252509,20.5964865 7.45550218,20.5740741 L179.650655,20.5740741 C181.591098,20.5805278 183.449128,21.3575654 184.814323,22.7335465 C186.179519,24.1095276 186.939541,25.9712251 186.926671,27.9074074 Z" id="Path" fill="#F2C30E" fill-rule="nonzero"></path>
                    <rect id="Rectangle" stroke="#263238" stroke-linecap="round" stroke-linejoin="round" x="0.1469869" y="20.6148148" width="186.77952" height="110.888148" rx="8.95"></rect>
                    <path d="M186.926671,27.9074074 L186.926671,30.7918519 L0.1469869,30.7918519 L0.1469869,27.9074074 C0.1469869,23.8731763 3.41252509,20.5964865 7.45550218,20.5740741 L179.650655,20.5740741 C181.591098,20.5805278 183.449128,21.3575654 184.814323,22.7335465 C186.179519,24.1095276 186.939541,25.9712251 186.926671,27.9074074 Z" id="Path" stroke="#263238" stroke-linecap="round" stroke-linejoin="round"></path>
                    <path d="M21.1253018,25.6992593 C21.1285899,26.4546886 20.6750811,27.1375696 19.9765782,27.4289486 C19.2780753,27.7203276 18.4724193,27.5627044 17.9359086,27.0297002 C17.3993978,26.4966961 17.2379062,25.6934928 17.5268616,24.9952432 C17.8158171,24.2969936 18.4981979,23.8414815 19.2552838,23.8414815 C20.2848757,23.8414815 21.1207878,24.6719203 21.1253018,25.6992593 Z" id="Path" fill="#1B212B" fill-rule="nonzero"></path>
                    <path d="M30.8835987,25.6992593 C30.8868868,26.4546886 30.4333781,27.1375696 29.7348752,27.4289486 C29.0363723,27.7203276 28.2307163,27.5627044 27.6942055,27.0297002 C27.1576948,26.4966961 26.9962031,25.6934928 27.2851586,24.9952432 C27.574114,24.2969936 28.2564948,23.8414815 29.0135808,23.8414815 C30.0431727,23.8414815 30.8790848,24.6719203 30.8835987,25.6992593 L30.8835987,25.6992593 Z" id="Path" fill="#1B212B" fill-rule="nonzero"></path>
                    <ellipse id="Oval" fill="#1B212B" fill-rule="nonzero" cx="38.7718777" cy="25.6992593" rx="1.87" ry="1.86592593"></ellipse>
                    <rect id="Rectangle" stroke="#263238" fill="#1B212B" stroke-linecap="round" stroke-linejoin="round" x="11.22" y="38.8666667" width="58.8355895" height="31.3622222" rx="3.69"></rect>
                    <rect id="Rectangle" fill="#F2C30E" fill-rule="nonzero" x="18.4713537" y="60.2962963" width="5.92030568" height="5.90740741"></rect>
                    <rect id="Rectangle" fill="#F2C30E" fill-rule="nonzero" x="27.1354148" y="52.5311111" width="5.92030568" height="13.7540741"></rect>
                    <rect id="Rectangle" fill="#F2C30E" fill-rule="nonzero" x="36.8937118" y="54.8940741" width="5.92030568" height="11"></rect>
                    <rect id="Rectangle" fill="#F2C30E" fill-rule="nonzero" x="47.150131" y="43.4133333" width="5.92030568" height="22.6111111"></rect>
                    <rect id="Rectangle" fill="#F2C30E" fill-rule="nonzero" x="57.3983843" y="43.5925926" width="5.92030568" height="22.6111111"></rect>
                    <line x1="14.6823581" y1="66.2851852" x2="65.6949782" y2="66.2851852" id="Path" stroke="#F2C30E" stroke-linecap="round" stroke-linejoin="round"></line>
                    <ellipse id="Oval" stroke="#263238" fill="#F2C30E" fill-rule="nonzero" cx="143.001921" cy="55.3340741" rx="16.5523581" ry="16.5162963"></ellipse>
                    <path d="M144.357467,65.6333333 L144.357467,67.3281481 L141.581048,67.3281481 L141.581048,65.6333333 C139.229009,65.0656127 137.611899,62.9118847 137.726725,60.5 L137.726725,59.7340741 L140.870611,59.3918519 L140.870611,60.2066667 C140.870611,61.7792593 141.687205,62.7325926 142.969258,62.7325926 C143.532372,62.7792135 144.087782,62.5779435 144.48968,62.1816206 C144.891578,61.7852977 145.09982,61.2335089 145.059738,60.6711111 C145.059738,59.1637037 143.647031,57.8681481 141.981179,56.4911111 C140.005022,54.8614815 138.037031,52.9222222 138.037031,50.1844444 C138.037031,47.4466667 139.327249,45.597037 141.581048,45.042963 L141.581048,43.34 L144.357467,43.34 L144.357467,45.0266667 C146.635764,45.5562963 147.958646,47.4711111 147.958646,50.2007407 L147.958646,50.7548148 L144.81476,51.0888889 L144.81476,50.5185185 C144.81476,48.8888889 144.169651,47.9925926 143.026419,47.9925926 C141.883188,47.9925926 141.238079,48.7014815 141.238079,50.0540741 C141.238079,51.5614815 142.691616,52.8244444 144.324803,54.2340741 C146.268297,55.8637037 148.268952,57.802963 148.268952,60.5407407 C148.367937,62.957817 146.722279,65.1003965 144.357467,65.6333333 L144.357467,65.6333333 Z" id="Path" fill="#263238" fill-rule="nonzero"></path>
                    <line x1="9.84812227" y1="86.2481481" x2="14.6823581" y2="86.2481481" id="Path" stroke="#263238" stroke-linecap="round" stroke-linejoin="round"></line>
                    <line x1="9.84812227" y1="95.5696296" x2="14.6823581" y2="95.5696296" id="Path" stroke="#263238" stroke-linecap="round" stroke-linejoin="round"></line>
                    <line x1="9.84812227" y1="104.899259" x2="14.6823581" y2="104.899259" id="Path" stroke="#263238" stroke-linecap="round" stroke-linejoin="round"></line>
                    <line x1="9.84812227" y1="114.220741" x2="14.6823581" y2="114.220741" id="Path" stroke="#263238" stroke-linecap="round" stroke-linejoin="round"></line>
                    <line x1="25.3389083" y1="121.260741" x2="25.3389083" y2="117.512593" id="Path" stroke="#263238" stroke-linecap="round" stroke-linejoin="round"></line>
                    <line x1="32.998559" y1="121.260741" x2="32.998559" y2="117.512593" id="Path" stroke="#263238" stroke-linecap="round" stroke-linejoin="round"></line>
                    <line x1="40.6582096" y1="121.260741" x2="40.6582096" y2="117.512593" id="Path" stroke="#263238" stroke-linecap="round" stroke-linejoin="round"></line>
                    <line x1="48.3260262" y1="121.260741" x2="48.3260262" y2="117.512593" id="Path" stroke="#263238" stroke-linecap="round" stroke-linejoin="round"></line>
                    <line x1="55.9856769" y1="121.260741" x2="55.9856769" y2="117.512593" id="Path" stroke="#263238" stroke-linecap="round" stroke-linejoin="round"></line>
                    <line x1="63.6453275" y1="121.260741" x2="63.6453275" y2="117.512593" id="Path" stroke="#263238" stroke-linecap="round" stroke-linejoin="round"></line>
                    <line x1="71.3049782" y1="121.260741" x2="71.3049782" y2="117.512593" id="Path" stroke="#263238" stroke-linecap="round" stroke-linejoin="round"></line>
                    <line x1="78.9727948" y1="121.260741" x2="78.9727948" y2="117.512593" id="Path" stroke="#263238" stroke-linecap="round" stroke-linejoin="round"></line>
                    <line x1="86.6324454" y1="121.260741" x2="86.6324454" y2="117.512593" id="Path" stroke="#263238" stroke-linecap="round" stroke-linejoin="round"></line>
                    <line x1="94.2920961" y1="121.260741" x2="94.2920961" y2="117.512593" id="Path" stroke="#263238" stroke-linecap="round" stroke-linejoin="round"></line>
                    <line x1="101.951747" y1="121.260741" x2="101.951747" y2="117.512593" id="Path" stroke="#263238" stroke-linecap="round" stroke-linejoin="round"></line>
                    <line x1="109.619563" y1="121.260741" x2="109.619563" y2="117.512593" id="Path" stroke="#263238" stroke-linecap="round" stroke-linejoin="round"></line>
                    <line x1="117.279214" y1="121.260741" x2="117.279214" y2="117.512593" id="Path" stroke="#263238" stroke-linecap="round" stroke-linejoin="round"></line>
                    <line x1="124.938865" y1="121.260741" x2="124.938865" y2="117.512593" id="Path" stroke="#263238" stroke-linecap="round" stroke-linejoin="round"></line>
                    <line x1="132.598515" y1="121.260741" x2="132.598515" y2="117.512593" id="Path" stroke="#263238" stroke-linecap="round" stroke-linejoin="round"></line>
                    <line x1="139.972358" y1="121.260741" x2="139.972358" y2="117.512593" id="Path" stroke="#263238" stroke-linecap="round" stroke-linejoin="round"></line>
                    <line x1="147.346201" y1="121.260741" x2="147.346201" y2="117.512593" id="Path" stroke="#263238" stroke-linecap="round" stroke-linejoin="round"></line>
                    <line x1="154.711878" y1="121.260741" x2="154.711878" y2="117.512593" id="Path" stroke="#263238" stroke-linecap="round" stroke-linejoin="round"></line>
                    <path d="M174.21214,80.5444444 L174.21214,116.771111 C174.21214,119.256296 171.680699,121.260741 168.56131,121.260741 L15.5152838,121.260741 C13.6263265,121.327525 11.8143427,120.510896 10.6157205,119.052593 C10.1048316,118.399451 9.81848171,117.599418 9.79912664,116.771111 L9.79912664,80.5444444 C9.79912664,78.1 12.3305677,76.0548148 15.4499563,76.0548148 L168.56131,76.0548148 C171.680699,76.0548148 174.21214,78.0592593 174.21214,80.5444444 Z" id="Path" stroke="#1B212B" stroke-linecap="round" stroke-linejoin="round"></path>
                    <path d="M127.633624,10.3807407 L78.7768122,76.0548148 L60.0931441,101.167407 L39.6782969,88.1955556 L14.69869,121.260742 L14.3393886,121.260742 C12.7457868,121.262029 11.2703832,120.422106 10.4605677,119.052593 L38.5268996,81.8888889 L58.9417467,94.8362963 L72.9136681,76.0955556 L123.860961,7.65111111 L127.633624,10.3807407 Z" id="Path" fill="#1B212B" fill-rule="nonzero"></path>
                    <polygon id="Path" fill="#1B212B" fill-rule="nonzero" points="115.237729 11.2118519 133.194629 0.35037037 128.229738 19.14 125.061354 10.4459259"></polygon>
                </g>
                <g id="freepik--Floor--inject-14" transform="translate(0.000000, 67.000000)">
                    <polyline id="Path" stroke="#263238" stroke-linecap="round" stroke-linejoin="round" points="318.373393 151.102262 32.1766837 151.102262 0.0976530612 179.649774"></polyline>
                    <line x1="32.3557143" y1="131.114932" x2="32.3557143" y2="75.6081448" id="Path" stroke="#263238" stroke-linecap="round" stroke-linejoin="round"></line>
                    <line x1="32.3557143" y1="147.876923" x2="32.3557143" y2="137.142081" id="Path" stroke="#263238" stroke-linecap="round" stroke-linejoin="round"></line>
                    <g id="freepik--freepik--Plants--inject-120--inject-14" transform="translate(260.408163, 0.000000)">
                        <path d="M40.737602,16.0615385 C40.737602,16.0615385 40.737602,12.7058824 36.0421173,8.01447964 C31.3466327,3.32307692 28.3356633,0.635294118 28.3356633,0.635294118 C28.3356633,0.635294118 25.983852,8.34841629 30.3456888,13.0479638 C33.5495898,16.3584221 37.0257934,19.3935369 40.737602,22.121267 L40.737602,16.0615385 Z" id="Path" fill="#F2C30E" fill-rule="nonzero"></path>
                        <path d="M33.926301,37.0180995 C33.926301,37.0180995 33.926301,33.6624434 29.2308163,28.9628959 C24.5353316,24.2633484 21.5243622,21.5837104 21.5243622,21.5837104 C21.5243622,21.5837104 19.1806888,29.2968326 23.5343878,33.9963801 C26.7422031,37.3051817 30.2180292,40.342691 33.926301,43.0778281 L33.926301,37.0180995 Z" id="Path" fill="#F2C30E" fill-rule="nonzero"></path>
                        <path d="M40.4365051,21.7791855 C40.4365051,21.7791855 40.7945663,18.439819 45.9539031,14.2615385 C51.1132398,10.0832579 54.4008929,7.74570136 54.4008929,7.74570136 C54.4008929,7.74570136 55.9145153,15.6868778 51.0888265,19.8733032 C47.5530774,22.8194876 43.7775929,25.464886 39.8017602,27.7819005 L40.4365051,21.7791855 Z" id="Path" fill="#F2C30E" fill-rule="nonzero"></path>
                        <path d="M32.2092347,46.5230769 C32.2092347,46.5230769 32.9172194,43.2651584 38.4834439,39.6325792 C44.0496684,36 47.5570408,34.0289593 47.5570408,34.0289593 C47.5570408,34.0289593 48.2324745,42.0678733 43.0161735,45.7493213 C39.1927848,48.3070845 35.1612381,50.5384779 30.9641582,52.4199095 L32.2092347,46.5230769 Z" id="Path" fill="#F2C30E" fill-rule="nonzero"></path>
                        <path d="M33.7635459,73.4904977 C33.7635459,73.4904977 33.7635459,70.1348416 38.4508929,65.4434389 C43.1382398,60.7520362 46.1573469,58.0642534 46.1573469,58.0642534 C46.1573469,58.0642534 48.5091582,65.7855204 44.1473214,70.4769231 C40.9484222,73.7920375 37.4747504,76.8300432 33.7635459,79.558371 L33.7635459,73.4904977 Z" id="Path" fill="#F2C30E" fill-rule="nonzero"></path>
                        <path d="M33.6821684,80.079638 C33.6821684,80.079638 34.1541582,76.7565611 30.1747959,71.4461538 C26.1954337,66.1357466 23.5994898,63.040724 23.5994898,63.040724 C23.5994898,63.040724 20.1979082,70.3710407 23.8354847,75.6162896 C26.5396342,79.3417828 29.5502375,82.8344889 32.8358418,86.0579186 L33.6821684,80.079638 Z" id="Path" fill="#F2C30E" fill-rule="nonzero"></path>
                        <path d="M29.0517857,99.5864253 C29.0517857,99.5864253 29.0517857,96.238914 33.7472704,91.5393665 C38.4427551,86.839819 41.4537245,84.2090498 41.4537245,84.2090498 C41.4537245,84.2090498 43.8055357,91.9221719 39.443699,96.6135747 C36.2401297,99.9268524 32.7639165,102.9647 29.0517857,105.695023 L29.0517857,99.5864253 Z" id="Path" fill="#F2C30E" fill-rule="nonzero"></path>
                        <path d="M32.1848214,117.285068 C32.1848214,117.285068 31.3710459,114.027149 34.6993878,108.325792 C38.0277296,102.624434 40.2900255,99.2443439 40.2900255,99.2443439 C40.2900255,99.2443439 44.5053827,106.118552 41.4862755,111.762896 C39.221415,115.774275 36.6245135,119.588539 33.7228571,123.165611 L32.1848214,117.285068 Z" id="Path" fill="#F2C30E" fill-rule="nonzero"></path>
                        <path d="M41.1607653,15.2307692 C40.9238331,18.721485 40.4945919,22.1964527 39.875,25.639819 C38.0195918,35.2343891 33.3647959,41.4244344 31.5256633,50.0742081 C29.6865306,58.7239819 35.0004847,69.9067873 33.5763776,81.0244344 C32.1522704,92.1420814 27.8148469,98.3402715 29.0355102,105.768326 C30.2561735,113.19638 36.7663776,133.297738 36.7663776,133.297738" id="Path" stroke="#263238" stroke-width="1.17749" stroke-linecap="round" stroke-linejoin="round"></path>
                        <line x1="40.3958163" y1="24.0108597" x2="45.4493622" y2="20.1176471" id="Path" stroke="#263238" stroke-width="1.17749" stroke-linecap="round" stroke-linejoin="round"></line>
                        <line x1="40.6236735" y1="19.5393665" x2="38.5159949" y2="15.7683258" id="Path" stroke="#263238" stroke-width="1.17749" stroke-linecap="round" stroke-linejoin="round"></line>
                        <path d="M31.8104847,49.6832579 C31.8104847,49.6832579 36.0421173,46.4986425 40.3958163,43.3221719" id="Path" stroke="#263238" stroke-width="1.17749" stroke-linecap="round" stroke-linejoin="round"></path>
                        <path d="M33.926301,43.0371041 C33.926301,43.0371041 30.3945153,36.1140271 26.3988776,31.520362" id="Path" stroke="#263238" stroke-width="1.17749" stroke-linecap="round" stroke-linejoin="round"></path>
                        <path d="M33.926301,78.2633484 C36.3508823,73.8066072 39.407085,69.7244865 42.999898,66.1438914" id="Path" stroke="#263238" stroke-width="1.17749" stroke-linecap="round" stroke-linejoin="round"></path>
                        <path d="M33.1043878,82.9710407 C31.8066,79.9407574 30.2605799,77.0231164 28.4821429,74.2479638 C26.0408163,70.599095 25.6502041,70.1266968 25.6502041,70.1266968" id="Path" stroke="#263238" stroke-width="1.17749" stroke-linecap="round" stroke-linejoin="round"></path>
                        <path d="M29.0517857,105.760181 C30.1264162,103.093237 31.4023037,100.512026 32.8683929,98.038914 C34.3322621,95.7362318 35.98157,93.5570437 37.7998724,91.5230769" id="Path" stroke="#263238" stroke-width="1.17749" stroke-linecap="round" stroke-linejoin="round"></path>
                        <path d="M33.7147194,123.124887 C33.4691996,120.579892 33.9074738,118.015456 34.9842092,115.696833 C36.750102,112.284163 38.743852,107.804525 39.5739031,106.045249" id="Path" stroke="#263238" stroke-width="1.17749" stroke-linecap="round" stroke-linejoin="round"></path>
                        <path d="M10.0094388,60.8742081 C10.0094388,60.8742081 9.6432398,58.7809955 12.0764286,55.319457 C14.5096173,51.8579186 16.1453061,49.8461538 16.1453061,49.8461538 C16.1453061,49.8461538 18.4482908,54.4235294 16.2266837,57.8443439 C14.5761704,60.2653259 12.725085,62.5430412 10.6930102,64.6533937 L10.0094388,60.8742081 Z" id="Path" fill="#F2C30E" fill-rule="nonzero"></path>
                        <path d="M16.5521939,73.3031674 C16.5521939,73.3031674 16.1859949,71.1936652 18.6191837,67.7402715 C21.0523724,64.2868778 22.6880612,62.2751131 22.6880612,62.2751131 C22.6880612,62.2751131 24.9910459,66.8606335 22.7694388,70.2733032 C21.120984,72.6958211 19.2697617,74.9737048 17.2357653,77.0823529 L16.5521939,73.3031674 Z" id="Path" fill="#F2C30E" fill-rule="nonzero"></path>
                        <path d="M10.8150765,64.4253394 C10.8150765,64.4253394 10.2454337,62.3728507 6.5427551,60.3529412 C2.84007653,58.3330317 0.537091837,57.1764706 0.537091837,57.1764706 C0.537091837,57.1764706 0.447576531,62.2832579 3.93867347,64.4253394 C6.47425456,65.8892548 9.12838288,67.1370934 11.8729847,68.1556561 L10.8150765,64.4253394 Z" id="Path" fill="#F2C30E" fill-rule="nonzero"></path>
                        <path d="M18.6598724,79.0452489 C18.6598724,79.0452489 17.8460969,77.0660633 13.9725255,75.4126697 C10.0989541,73.759276 7.66576531,72.8877828 7.66576531,72.8877828 C7.66576531,72.8877828 8.11334184,77.9945701 11.7997449,79.7375566 C14.4762331,80.9254285 17.2473047,81.8871521 20.0839796,82.6126697 L18.6598724,79.0452489 Z" id="Path" fill="#F2C30E" fill-rule="nonzero"></path>
                        <path d="M20.6129337,96.1085973 C20.6129337,96.1085973 20.2467347,94.0072398 16.7963265,91.5719457 C13.3459184,89.1366516 11.1568622,87.7764706 11.1568622,87.7764706 C11.1568622,87.7764706 10.5221173,92.8832579 13.7690816,95.3429864 C16.1354513,97.0634754 18.6426339,98.5810748 21.2639541,99.879638 L20.6129337,96.1085973 Z" id="Path" fill="#F2C30E" fill-rule="nonzero"></path>
                        <path d="M21.3697449,100.254299 C21.3697449,100.254299 20.7105867,98.2262443 22.6310969,94.4633484 C24.5516071,90.7004525 25.886199,88.4769231 25.886199,88.4769231 C25.886199,88.4769231 28.8157908,92.679638 27.1068622,96.3855204 C25.8037065,99.0154412 24.2848789,101.532665 22.5659949,103.911312 L21.3697449,100.254299 Z" id="Path" fill="#F2C30E" fill-rule="nonzero"></path>
                        <path d="M27.2614796,117.21991 C27.2614796,117.21991 27.5056122,115.102262 30.8095408,112.471493 C34.1134694,109.840724 36.221148,108.399095 36.221148,108.399095 C36.221148,108.399095 37.148852,113.448869 34.0483673,116.104072 C31.7839701,117.95745 29.3695986,119.619277 26.8301786,121.072398 L27.2614796,117.21991 Z" id="Path" fill="#F2C30E" fill-rule="nonzero"></path>
                        <path d="M26.3907398,111.99095 C26.3907398,111.99095 26.0245408,109.881448 22.5741327,107.446154 C19.1237245,105.01086 16.9428061,103.658824 16.9428061,103.658824 C16.9428061,103.658824 16.3080612,108.765611 19.5468878,111.225339 C21.9168351,112.944744 24.4266267,114.462275 27.049898,115.761991 L26.3907398,111.99095 Z" id="Path" fill="#F2C30E" fill-rule="nonzero"></path>
                        <path d="M26.3419133,123.426244 C26.3419133,123.426244 26.5290816,121.292308 23.8029337,118.066968 C21.0767857,114.841629 19.3108929,112.960181 19.3108929,112.960181 C19.3108929,112.960181 17.4066582,117.724887 19.9212245,120.942081 C21.7784782,123.210816 23.8198625,125.322072 26.0245408,127.254299 L26.3419133,123.426244 Z" id="Path" fill="#F2C30E" fill-rule="nonzero"></path>
                        <path d="M9.6432398,60.3855204 C10.1728957,62.5511055 10.8222015,64.685608 11.5881633,66.7791855 C13.7853571,72.5864253 17.3659694,75.9665158 19.4655102,81.1954751 C21.565051,86.4244344 19.4655102,94.0072398 21.5406378,100.824434 C23.6157653,107.641629 27.0336224,111.038009 27.0580357,115.851584 C27.082449,120.665158 25.2270408,133.965611 25.2270408,133.965611" id="Path" stroke="#263238" stroke-width="1.17749" stroke-linecap="round" stroke-linejoin="round"></path>
                        <line x1="11.0836224" y1="65.8180995" x2="7.49487245" y2="63.9366516" id="Path" stroke="#263238" stroke-width="1.17749" stroke-linecap="round" stroke-linejoin="round"></line>
                        <line x1="10.4488776" y1="63.040724" x2="11.3684439" y2="60.4506787" id="Path" stroke="#263238" stroke-width="1.17749" stroke-linecap="round" stroke-linejoin="round"></line>
                        <path d="M19.2539286,80.9755656 C19.2539286,80.9755656 16.2510969,79.4443439 13.1831633,77.921267" id="Path" stroke="#263238" stroke-width="1.17749" stroke-linecap="round" stroke-linejoin="round"></path>
                        <path d="M17.2032143,77.0823529 C18.0858881,74.2942297 19.2501776,71.6034036 20.6780357,69.0515837" id="Path" stroke="#263238" stroke-width="1.17749" stroke-linecap="round" stroke-linejoin="round"></path>
                        <path d="M21.0279592,99.1384615 C19.0255072,96.6081376 16.6683412,94.3806086 14.0294898,92.5248869" id="Path" stroke="#263238" stroke-width="1.17749" stroke-linecap="round" stroke-linejoin="round"></path>
                        <path d="M22.0533163,102.00543 C22.5286036,99.970295 23.1737516,97.9786863 23.9819643,96.0515837 C25.1131122,93.4859729 25.3084184,93.1520362 25.3084184,93.1520362" id="Path" stroke="#263238" stroke-width="1.17749" stroke-linecap="round" stroke-linejoin="round"></path>
                        <path d="M26.9034184,119.484163 C28.0679005,118.036566 29.3587547,116.695533 30.7607143,115.476923 C31.6535118,114.815023 32.4916888,114.082345 33.2671429,113.285973" id="Path" stroke="#263238" stroke-width="1.17749" stroke-linecap="round" stroke-linejoin="round"></path>
                        <path d="M27.0580357,115.851584 C26.0853906,114.297733 24.9972837,112.81935 23.8029337,111.428959 C22.634334,110.151668 21.3633203,108.972171 20.002602,107.902262" id="Path" stroke="#263238" stroke-width="1.17749" stroke-linecap="round" stroke-linejoin="round"></path>
                        <path d="M26.0408163,127.254299 C25.9113913,125.624053 25.3495356,124.057931 24.4132653,122.717647 C22.9321939,120.762896 21.1581633,118.172851 20.4908673,117.154751" id="Path" stroke="#263238" stroke-width="1.17749" stroke-linecap="round" stroke-linejoin="round"></path>
                        <path d="M41.6490306,156.901358 L20.2792857,156.901358 C19.3960673,156.901634 18.6738151,156.196829 18.6517347,155.313122 L15.583801,131.644344 L46.2794133,131.644344 L43.2114796,155.313122 C43.1906941,156.172114 42.5068546,156.86724 41.6490306,156.901358 Z" id="Path" fill="#1B212B" fill-rule="nonzero"></path>
                        <path d="M46.0352806,135.643453 L15.616352,135.643453 C14.2981684,135.647957 13.2246738,134.58446 13.2157143,133.265158 L13.2157143,133.265158 C13.2373516,131.950406 14.2946796,130.888564 15.6082143,130.86243 L46.0352806,130.86243 C46.6712199,130.860278 47.2818543,131.111607 47.7322967,131.560911 C48.182739,132.010215 48.4359184,132.62052 48.4359184,133.257014 L48.4359184,133.257014 C48.4337638,133.892094 48.1796288,134.500307 47.7294211,134.947849 C47.2792134,135.395391 46.6698122,135.645603 46.0352806,135.643453 Z" id="Path" fill="#1B212B" fill-rule="nonzero"></path>
                    </g>
                </g>
                <g id="freepik--Coins--inject-14" transform="translate(178.000000, 33.000000)">
                    <path d="M59.8367347,75.1360465 C59.8342277,88.8915422 50.3144327,100.826712 36.8734694,103.925581 L36.7836735,103.925581 C36.0081633,104.096512 35.2326531,104.251163 34.4326531,104.365116 C33.029223,104.564299 31.6134936,104.664934 30.1959184,104.666279 C14.0803643,104.60876 0.963693338,91.7233708 0.66625151,75.6572985 C0.368809682,59.5912262 12.9995953,46.2319246 29.1020408,45.5813953 C29.3714286,45.5813953 29.6571429,45.5813953 29.9183673,45.5813953 C30.005253,45.5733014 30.0927062,45.5733014 30.1795918,45.5813953 C30.2801087,45.5733076 30.3811158,45.5733076 30.4816327,45.5813953 C34.480743,45.6071216 38.4318755,46.4521232 42.0897959,48.0639535 C52.8719417,52.7736954 59.8367347,63.3988654 59.8367347,75.1360465 Z" id="Path" fill="#F2C30E" fill-rule="nonzero"></path>
                    <path d="M42.1061224,48.072093 C7.87755102,46.2976744 7.71428571,84.1872093 7.71428571,84.1872093 C7.71428571,84.1872093 2.48979592,71.8232558 11.0204082,58.1406977 C15.7877551,50.4813953 24.0816327,47.1034884 30.4979592,45.605814 C34.4959251,45.6264092 38.4470096,46.4658595 42.1061224,48.072093 L42.1061224,48.072093 Z" id="Path" fill="#FFFFFF" fill-rule="nonzero" opacity="0.4"></path>
                    <path d="M59.8367347,75.1360465 C59.8360288,88.9273494 50.2692453,100.884844 36.7836735,103.95 C34.6231479,104.445877 32.4129405,104.694383 30.1959184,104.690698 C13.8257478,104.991885 0.31022997,92.0039782 0.00816403032,75.6813953 C-0.293901909,59.3588125 12.7318703,45.8825836 29.1020408,45.5813953 C29.4612245,45.5813953 29.8285714,45.5813953 30.1959184,45.5813953 C46.5642224,45.5858883 59.8322286,58.8153248 59.8367347,75.1360465 Z" id="Path" stroke="#263238" stroke-linecap="round" stroke-linejoin="round"></path>
                    <path d="M59.8367347,75.1360465 C59.8360288,88.9273494 50.2692453,100.884844 36.7836735,103.95 C36.4244898,103.95 36.0571429,103.95 35.6897959,103.95 C20.628058,103.910361 7.98942357,92.617142 6.30505309,77.6933397 C4.62068261,62.7695374 14.4258661,48.9579098 29.1020408,45.5813953 C29.4612245,45.5813953 29.8285714,45.5813953 30.1959184,45.5813953 C46.5642224,45.5858883 59.8322286,58.8153248 59.8367347,75.1360465 Z" id="Path" stroke="#263238" stroke-linecap="round" stroke-linejoin="round"></path>
                    <path d="M40.4081633,93.6046512 L41.1755102,96.7302326 L36.0489796,97.9755814 L35.2816327,94.8581395 C30.6938776,94.8581395 27.0122449,91.8872093 25.8367347,87.1174419 L25.4857143,85.7011628 L31.1428571,83.6581395 L31.5020408,85.1313953 C32.2122449,88.0290698 34.1306122,89.4209302 36.522449,88.8348837 C37.5849675,88.6699968 38.5216786,88.0491928 39.0855087,87.1362195 C39.6493389,86.2232461 39.7836668,85.1097867 39.4530612,84.0895349 C38.7673469,81.305814 35.5673469,79.5639535 31.8612245,77.7651163 C27.477551,75.6488372 22.955102,72.9627907 21.7142857,67.9081395 C20.5061224,62.9755814 22.0244898,58.8651163 25.9346939,56.8302326 L25.1673469,53.7046512 L30.2857143,52.4593023 L31.0530612,55.5767442 C35.5020408,55.5116279 38.8163265,58.4337209 40.0326531,63.4802326 L40.2857143,64.505814 L34.6367347,66.5488372 L34.3510204,65.4174419 C33.6,62.3488372 32.0163265,61.0546512 29.9102041,61.5674419 C27.8040816,62.0802326 26.9306122,63.6837209 27.5428571,66.1744186 C28.2285714,68.9581395 31.4693878,70.6348837 35.1346939,72.5069767 C39.4693878,74.6965116 44.0408163,77.3093023 45.2816327,82.355814 C46.5306122,87.2151163 44.5387755,91.5453488 40.4081633,93.6046512 Z" id="Path" stroke="#263238"></path>
                    <path d="M40.4081633,93.6046512 L41.1755102,96.7302326 L36.0489796,97.9755814 L35.2816327,94.8581395 C30.6938776,94.8581395 27.0122449,91.8872093 25.8367347,87.1174419 L25.4857143,85.7011628 L31.1428571,83.6581395 L31.5020408,85.1313953 C32.2122449,88.0290698 34.1306122,89.4209302 36.522449,88.8348837 C37.5849675,88.6699968 38.5216786,88.0491928 39.0855087,87.1362195 C39.6493389,86.2232461 39.7836668,85.1097867 39.4530612,84.0895349 C38.7673469,81.305814 35.5673469,79.5639535 31.8612245,77.7651163 C27.477551,75.6488372 22.955102,72.9627907 21.7142857,67.9081395 C20.5061224,62.9755814 22.0244898,58.8651163 25.9346939,56.8302326 L25.1673469,53.7046512 L30.2857143,52.4593023 L31.0530612,55.5767442 C35.5020408,55.5116279 38.8163265,58.4337209 40.0326531,63.4802326 L40.2857143,64.505814 L34.6367347,66.5488372 L34.3510204,65.4174419 C33.6,62.3488372 32.0163265,61.0546512 29.9102041,61.5674419 C27.8040816,62.0802326 26.9306122,63.6837209 27.5428571,66.1744186 C28.2285714,68.9581395 31.4693878,70.6348837 35.1346939,72.5069767 C39.4693878,74.6965116 44.0408163,77.3093023 45.2816327,82.355814 C46.5306122,87.2151163 44.5387755,91.5453488 40.4081633,93.6046512 Z" id="Path" fill="#000000" fill-rule="nonzero" opacity="0.3"></path>
                    <line x1="15.044898" y1="100.547674" x2="21.3061224" y2="100.262791" id="Path" stroke="#263238" stroke-linecap="round" stroke-linejoin="round"></line>
                    <line x1="12.0326531" y1="98.472093" x2="17.4938776" y2="98.0081395" id="Path" stroke="#263238" stroke-linecap="round" stroke-linejoin="round"></line>
                    <line x1="9.58367347" y1="96.2825581" x2="15.044898" y2="95.8186047" id="Path" stroke="#263238" stroke-linecap="round" stroke-linejoin="round"></line>
                    <line x1="8.83265306" y1="54.6406977" x2="13.5102041" y2="54.6406977" id="Path" stroke="#263238" stroke-linecap="round" stroke-linejoin="round"></line>
                    <line x1="11.1428571" y1="52.4918605" x2="15.8040816" y2="52.2802326" id="Path" stroke="#263238" stroke-linecap="round" stroke-linejoin="round"></line>
                    <line x1="14.0653061" y1="50.3348837" x2="18.9795918" y2="49.8709302" id="Path" stroke="#263238" stroke-linecap="round" stroke-linejoin="round"></line>
                    <path d="M36.8734694,103.925581 L36.7836735,103.925581 C34.6231479,104.421459 32.4129405,104.669964 30.1959184,104.666319 C14.0803643,104.60876 0.963693338,91.7233708 0.66625151,75.6572985 C0.368809682,59.5912262 12.9995953,46.2319246 29.1020408,45.5813953 C29.3714286,45.5813953 29.6571429,45.5813953 29.9183673,45.5813953 C22.6938776,47.8523256 10.5714286,53.655814 7.33061224,65.7593023 C2.75102041,82.9581395 13.0612245,102.484884 36.8734694,103.925581 Z" id="Path" fill="#000000" fill-rule="nonzero" opacity="0.3"></path>
                    <path d="M59.836745,75.1360465 C59.8342277,88.8915422 50.3144327,100.826712 36.8734694,103.925581 L36.7836735,103.925581 C36.0081633,104.096512 35.2326531,104.251163 34.4326531,104.365116 L42.1061224,48.0476744 C52.8873098,52.7647009 59.8465311,63.3968197 59.836745,75.1360465 Z" id="Path" fill="#000000" fill-rule="nonzero" opacity="0.1"></path>
                    <path d="M76.6530612,28.6104651 C71.8198495,35.4174968 62.9135123,37.9962354 55.1755102,34.8290698 L55.0693878,34.7802326 C54.5120508,34.5359058 53.9671681,34.2642564 53.4367347,33.9662791 C52.8375776,33.6451282 52.2595374,33.2862626 51.7061224,32.8918605 C44.202884,27.1783462 42.4174181,16.6476926 47.620075,8.79240816 C52.8227319,0.937123749 63.2369488,-1.56043001 71.4530612,3.07674419 L71.8530612,3.32906977 C72.0408163,3.43488372 72.2204082,3.56511628 72.4081633,3.69534884 C72.5959184,3.8255814 72.955102,4.09418605 73.2244898,4.30581395 C80.631534,10.2297108 82.1338042,20.8790882 76.6530612,28.6104651 Z" id="Path" fill="#F2C30E" fill-rule="nonzero"></path>
                    <path d="M49.6,28.8546512 C49.6,28.8546512 46.6693878,20.2511628 50.5632653,13.9186047 C55.4612245,5.98255814 62.9632653,2.36046512 73.1755102,4.31395349 C73.1755102,4.31395349 67.6408163,0.586046512 58.3755102,3.23139535 C49.1102041,5.87674419 44.1387755,18.5906977 49.6,28.8546512 Z" id="Path" fill="#FFFFFF" fill-rule="nonzero" opacity="0.4"></path>
                    <path d="M76.6530612,28.6186047 C71.8152171,35.4197074 62.9097877,37.9914332 55.1755102,34.8209302 C53.9359335,34.3159139 52.7582387,33.6714302 51.6653061,32.9 C44.1106706,27.1215637 42.3918674,16.4686618 47.7477063,8.61926507 C53.1035453,0.769868342 63.672338,-1.54757477 71.8367347,3.3372093 C72.0163265,3.44302326 72.2040816,3.56511628 72.3836735,3.69534884 C80.4507181,9.41118199 82.3600062,20.5569664 76.6530612,28.6186047 Z" id="Path" stroke="#263238" stroke-linecap="round" stroke-linejoin="round"></path>
                    <path d="M76.6530612,28.6186047 C71.8152171,35.4197074 62.9097877,37.9914332 55.1755102,34.8209302 L54.6285714,34.4627907 C47.2900171,29.1588286 45.0653033,19.2338084 49.440918,11.319335 C53.8165327,3.40486154 63.4209295,-0.0182555417 71.8367347,3.3372093 C72.0163265,3.44302326 72.2040816,3.56511628 72.3836735,3.69534884 C80.4507181,9.41118199 82.3600062,20.5569664 76.6530612,28.6186047 Z" id="Path" stroke="#263238" stroke-linecap="round" stroke-linejoin="round"></path>
                    <path d="M60.5795918,30.9953488 L59.8693878,32.8023256 L56.8979592,31.6383721 L57.6081633,29.8232558 C55.3343459,28.2269683 54.513102,25.2483777 55.6489796,22.7174419 L55.9755102,21.9034884 L59.4857143,22.855814 L59.1510204,23.7186047 C58.4897959,25.3953488 58.9387755,26.7465116 60.3265306,27.2918605 C60.9095198,27.5811546 61.590486,27.6006895 62.1891919,27.3452948 C62.7878979,27.0899001 63.2439843,26.5853237 63.4367347,25.9651163 C64.0734694,24.3372093 63.1020408,22.3755814 61.9020408,20.2023256 C60.4816327,17.6302326 59.1918367,14.7325581 60.3428571,11.8023256 C61.4938776,8.87209302 63.6653061,7.43953488 66.3020408,7.79767442 L67.0204082,5.99069767 L69.9836735,7.15465116 L69.2734694,8.95348837 C71.4938776,10.4674419 72.1061224,13.0232558 70.955102,15.994186 L70.7183673,16.5802326 L67.2081633,15.627907 L67.4693878,14.9686047 C68.1714286,13.194186 67.844898,11.9976744 66.6530612,11.5174419 C65.4612245,11.0372093 64.4408163,11.5174419 63.8693878,12.9744186 C63.2326531,14.6023256 64.2530612,16.5395349 65.4040816,18.7372093 C66.7836735,21.3337209 68.122449,24.2151163 66.9714286,27.1372093 C66.0702182,29.8059471 63.3688926,31.4364786 60.5795918,30.9953488 Z" id="Path" stroke="#263238"></path>
                    <path d="M60.5795918,30.9953488 L59.8693878,32.8023256 L56.8979592,31.6383721 L57.6081633,29.8232558 C55.3343459,28.2269683 54.513102,25.2483777 55.6489796,22.7174419 L55.9755102,21.9034884 L59.4857143,22.855814 L59.1510204,23.7186047 C58.4897959,25.3953488 58.9387755,26.7465116 60.3265306,27.2918605 C60.9095198,27.5811546 61.590486,27.6006895 62.1891919,27.3452948 C62.7878979,27.0899001 63.2439843,26.5853237 63.4367347,25.9651163 C64.0734694,24.3372093 63.1020408,22.3755814 61.9020408,20.2023256 C60.4816327,17.6302326 59.1918367,14.7325581 60.3428571,11.8023256 C61.4938776,8.87209302 63.6653061,7.43953488 66.3020408,7.79767442 L67.0204082,5.99069767 L69.9836735,7.15465116 L69.2734694,8.95348837 C71.4938776,10.4674419 72.1061224,13.0232558 70.955102,15.994186 L70.7183673,16.5802326 L67.2081633,15.627907 L67.4693878,14.9686047 C68.1714286,13.194186 67.844898,11.9976744 66.6530612,11.5174419 C65.4612245,11.0372093 64.4408163,11.5174419 63.8693878,12.9744186 C63.2326531,14.6023256 64.2530612,16.5395349 65.4040816,18.7372093 C66.7836735,21.3337209 68.122449,24.2151163 66.9714286,27.1372093 C66.0702182,29.8059471 63.3688926,31.4364786 60.5795918,30.9953488 Z" id="Path" fill="#000000" fill-rule="nonzero" opacity="0.3"></path>
                    <path d="M71.4122449,3.08488372 C66.5142857,2.21395349 60.3102041,1.73372093 56.9632653,3.89883721 C50.8163265,7.83023256 46.9877551,12.7872093 47.044898,20.8209302 C47.1020408,28.8546512 54.6285714,34.4872093 54.6285714,34.4872093 L55.0693878,34.8046512 C53.8687692,34.3046976 52.7271632,33.6741355 51.6653061,32.9244186 C44.1620677,27.2109044 42.3766017,16.6802507 47.5792586,8.8249663 C52.7819155,0.969681888 63.1961324,-1.52787187 71.4122449,3.10930233 L71.4122449,3.08488372 Z" id="Path" fill="#000000" fill-rule="nonzero" opacity="0.3"></path>
                    <path d="M76.6530612,28.6104651 C71.8198495,35.4174968 62.9135123,37.9962354 55.1755102,34.8290698 L55.0693878,34.7802326 C54.5120508,34.5359058 53.9671681,34.2642564 53.4367347,33.9662791 L73.1755102,4.31395349 C80.593745,10.2228873 82.1174268,20.868354 76.6530612,28.6104651 Z" id="Path" fill="#000000" fill-rule="nonzero" opacity="0.1"></path>
                </g>
                <g id="freepik--Character--inject-14" transform="translate(50.000000, 80.000000)">
                    <path d="M195.485521,210.190162 C187.890519,219.28509 178.836313,227.066378 168.689693,233.218803 C165.528031,235.101972 162.258669,236.799853 158.898282,238.303786 C135.717117,248.676828 109.296626,249.351036 84.5896319,243.38877 C32.6380368,230.855016 5.07521472,185.203883 1.57478528,134.524628 C0.636441718,120.829288 -1.46871166,106.037346 4.10423313,93.0080906 C9.67717791,79.978835 20.9454601,71.8883495 33.6906135,66.2672492 C42.9434969,62.1651456 52.9388957,59.4114563 62.0204294,57.1613916 C78.4554033,53.119538 95.7911789,54.9002101 111.05092,62.1976375 C121.731718,67.2420065 129.33638,76.006699 138.32,83.3904854 C139.271943,84.1702913 140.229325,84.9473894 141.192147,85.7217799 C150.267033,92.9934999 159.806518,99.6710891 169.750429,105.712427 C184.853681,114.883269 200.315951,123.534239 209.96865,138.935405 C225.365644,163.483042 212.375706,190.207638 195.485521,210.190162 Z" id="Path" fill="#F2C30E" fill-rule="nonzero"></path>
                    <path d="M195.485521,210.190162 C187.890519,219.28509 178.836313,227.066378 168.689693,233.218803 C165.528031,235.101972 162.258669,236.799853 158.898282,238.303786 C135.717117,248.676828 109.296626,249.351036 84.5896319,243.38877 C32.6380368,230.855016 5.07521472,185.203883 1.57478528,134.524628 C0.636441718,120.829288 -1.46871166,106.037346 4.10423313,93.0080906 C9.67717791,79.978835 20.9454601,71.8883495 33.6906135,66.2672492 C42.9434969,62.1651456 52.9388957,59.4114563 62.0204294,57.1613916 C78.4554033,53.119538 95.7911789,54.9002101 111.05092,62.1976375 C121.731718,67.2420065 129.33638,76.006699 138.32,83.3904854 C139.271943,84.1702913 140.229325,84.9473894 141.192147,85.7217799 C150.267033,92.9934999 159.806518,99.6710891 169.750429,105.712427 C184.853681,114.883269 200.315951,123.534239 209.96865,138.935405 C225.365644,163.483042 212.375706,190.207638 195.485521,210.190162 Z" id="Path" fill="#FFFFFF" fill-rule="nonzero" opacity="0.4"></path>
                    <path d="M141.159509,85.7217799 C140.196687,84.9528047 139.239305,84.1729989 138.287362,83.3823625 C129.311902,75.9823301 121.69092,67.2420065 111.018282,62.1976375 C95.7574141,54.9041819 78.4230537,53.1236551 61.9877914,57.1613916 C40.3895706,62.4981877 13.6019018,70.7186408 4.05527607,93.0162136 C-1.51766871,106.012977 0.587484663,120.829288 1.53398773,134.524628 C5.07521472,185.203883 32.6380368,230.855016 84.5896319,243.38877 C112.854172,250.212071 143.338098,248.343786 168.689693,233.218803 C178.836313,227.066378 187.890519,219.28509 195.485521,210.190162 C212.375706,190.207638 225.365644,163.483042 209.984969,138.935405 C200.340429,123.501748 184.87816,114.883269 169.766748,105.712427 C159.806059,99.6728685 150.250174,92.9952469 141.159509,85.7217799 Z" id="Path" stroke="#263238"></path>
                    <path d="M62.4610429,176.089903 C58.1357768,177.393043 53.9381847,179.084137 49.9198773,181.142395" id="Path" stroke="#263238" stroke-linecap="round" stroke-linejoin="round"></path>
                    <path d="M88.9386503,171.069903 C82.620357,171.614234 76.3489263,172.605027 70.1717791,174.03479" id="Path" stroke="#263238" stroke-linecap="round" stroke-linejoin="round"></path>
                    <path d="M83.4309816,169.770227 C83.4309816,169.770227 59.0503681,155.652492 29.6271779,166.967799" id="Path" stroke="#263238" stroke-linecap="round" stroke-linejoin="round"></path>
                    <path d="M195.485521,210.190162 C187.890519,219.28509 178.836313,227.066378 168.689693,233.218803 C165.528031,235.101972 162.258669,236.799853 158.898282,238.303786 C156.245361,237.495153 153.638621,236.543357 151.089632,235.452621 C135.863988,228.954239 123.086196,217.963851 110.602147,207.127799 C103.07092,200.629417 95.4173006,193.968576 86.4010429,189.687767 C74.2084703,183.948445 60.3374485,182.811172 47.3659509,186.487314 C54.0747442,178.949149 63.1958116,173.952726 73.182638,172.34521 C66.7366258,166.50479 57.7693252,164.05165 49.0549693,163.897314 C40.3406135,163.742977 35.5428221,164.807087 27.0242945,166.707864 C29.8719632,161.492913 37.4276687,156.773463 43.3922699,156.911553 C37.7221602,156.836714 32.0610353,156.438033 26.4368098,155.717476 C18.7423926,154.482783 15.2990798,145.466278 14.148589,137.798188 C10.9663804,116.678447 14.1893865,94.1859223 25.7677301,76.2341424 C28.0599967,72.6535003 30.7118626,69.3140452 33.682454,66.2672492 C42.9353374,62.1651456 52.9307362,59.4114563 62.0122699,57.1613916 C78.4472438,53.119538 95.7830194,54.9002101 111.042761,62.1976375 C121.723558,67.2420065 129.328221,76.006699 138.31184,83.3904854 C139.263783,84.1702913 140.221166,84.9473894 141.183988,85.7217799 C150.258874,92.9934999 159.798359,99.6710891 169.74227,105.712427 C184.845521,114.883269 200.307791,123.534239 209.960491,138.935405 C225.365644,163.483042 212.375706,190.207638 195.485521,210.190162 Z" id="Path" fill="#000000" fill-rule="nonzero" opacity="0.1"></path>
                    <path d="M203.98773,209.572816 C208.562656,213.35906 213.349054,216.884648 218.323988,220.132686 C228.025644,220.782524 223.676626,232.455243 223.676626,232.455243 L215.370245,237.775793 C215.370245,237.775793 201.148221,226.525469 193.380368,222.878252 C185.612515,219.231036 203.98773,209.572816 203.98773,209.572816 Z" id="Path" fill="#FFFFFF" fill-rule="nonzero"></path>
                    <path d="M135.048037,86.6721683 C135.048037,86.6721683 133.718037,73.5698058 131.596564,69.8900971 L99.3828221,63.3592233 L99.3828221,60.8735922 C99.3828221,60.8735922 100.125337,56.5521683 92.9449693,53.8472168 C85.7646012,51.1422654 70.8000613,54.6595146 66.9406135,57.5675405 C63.0811656,60.4755663 64.4927607,65.4793204 64.4927607,65.4793204 C64.4927607,65.4793204 51.5191411,72.0020712 45.6932515,74.4877023 C40.9241924,76.6782772 36.2749297,79.1185832 31.7649693,81.7983819 C31.7649693,81.7983819 29.1212883,111.918382 29.6434969,118.912265 C30.1657055,125.906149 29.2192025,132.485761 29.8230061,136.360421 C30.4268098,140.235081 30.9000613,142.436408 34.979816,145.734337 C39.0595706,149.032265 42.7721472,153.857314 53.4692638,149.07288 L51.9760736,147.895049 L122.392638,124.281553 L135.048037,86.6721683 Z" id="Path" fill="#000000" fill-rule="nonzero" opacity="0.3"></path>
                    <path d="M135.048037,86.6721683 C135.048037,86.6721683 133.718037,73.5698058 131.596564,69.8900971 L99.3828221,63.3592233 L99.3828221,60.8735922 C99.3828221,60.8735922 100.125337,56.5521683 92.9449693,53.8472168 C85.7646012,51.1422654 70.8000613,54.6595146 66.9406135,57.5675405 C63.0811656,60.4755663 64.4927607,65.4793204 64.4927607,65.4793204 C64.4927607,65.4793204 51.5191411,72.0020712 45.6932515,74.4877023 C40.9241924,76.6782772 36.2749297,79.1185832 31.7649693,81.7983819 C31.7649693,81.7983819 29.1212883,111.918382 29.6434969,118.912265 C30.1657055,125.906149 29.2192025,132.485761 29.8230061,136.360421 C30.4268098,140.235081 30.9000613,142.436408 34.979816,145.734337 C39.0595706,149.032265 42.7721472,153.857314 53.4692638,149.07288 L51.9760736,147.895049 L122.392638,124.281553 L135.048037,86.6721683 Z" id="Path" fill="#F2C30E" fill-rule="nonzero"></path>
                    <path d="M135.048037,86.6721683 C135.048037,86.6721683 133.718037,73.5698058 131.596564,69.8900971 L99.3828221,63.3592233 L99.3828221,60.8735922 C99.3828221,60.8735922 100.125337,56.5521683 92.9449693,53.8472168 C85.7646012,51.1422654 70.8000613,54.6595146 66.9406135,57.5675405 C63.0811656,60.4755663 64.4927607,65.4793204 64.4927607,65.4793204 C64.4927607,65.4793204 51.5191411,72.0020712 45.6932515,74.4877023 C40.9241924,76.6782772 36.2749297,79.1185832 31.7649693,81.7983819 C31.7649693,81.7983819 29.1212883,111.918382 29.6434969,118.912265 C30.1657055,125.906149 29.2192025,132.485761 29.8230061,136.360421 C30.4268098,140.235081 30.9000613,142.436408 34.979816,145.734337 C39.0595706,149.032265 42.7721472,153.857314 53.4692638,149.07288 L51.9760736,147.895049 L122.392638,124.281553 L135.048037,86.6721683 Z" id="Path" fill="#000000" fill-rule="nonzero" opacity="0.05"></path>
                    <path d="M132.020859,71.4822006 L118.54135,71.4822006 C115.924029,71.486415 113.692389,73.3715544 113.262147,75.9417152 L106.620307,115.744304 C106.620307,115.744304 97.4734969,116.499741 90.9948466,121.202945 C84.5161963,125.906149 68.5806748,92.3501294 43.4004294,92.3338835 C43.4004294,92.3338835 50.6460736,108.823528 52.2534969,121.982751 C52.2534969,121.982751 36.5138037,120.276926 33.9027607,126.409773 C31.2917178,132.542621 35.0858896,144.036634 41.7440491,139.585243 C48.4022086,135.133851 54.6687117,127.70945 59.1156442,132.404531 C63.5625767,137.099612 83.4309816,139.625858 83.4309816,139.625858 L114.004663,124.281553 L125.860429,118.73356 L132.020859,71.4822006 Z" id="Path" fill="#000000" fill-rule="nonzero" opacity="0.1"></path>
                    <path d="M89.2242331,51.7514887 C89.2242331,51.7514887 96.8778528,53.8634628 98.1180982,56.4222006 C99.3583436,58.9809385 99.2277914,65.4549515 99.2277914,65.4549515 C97.3704483,69.7819255 94.5562388,73.6358742 90.9948466,76.729644 L85.2831902,65.4549515 L85.7972393,78.2405178 C85.7972393,78.2405178 74.961411,76.4453398 70.3594479,73.0011974 L65.7656442,69.548932 C65.7656442,69.548932 63.7828834,63.0505502 64.0684663,60.8492233 C64.3540491,58.6478964 72.6196319,54.1802589 72.6196319,54.1802589 L89.2242331,51.7514887 Z" id="Path" fill="#FFFFFF" fill-rule="nonzero" opacity="0.4"></path>
                    <path d="M216.708405,248.904272 C216.496258,248.441262 219.849816,242.543981 217.222454,236.5411 C214.595092,230.53822 210.409264,232.853269 210.409264,232.853269 C210.409264,232.853269 198.488221,225.2989 193.478282,222.910744 C189.86863,221.105772 186.392117,219.048204 183.074908,216.753528 L177.779387,223.85301 L182.675092,238.929256 L216.708405,248.904272 Z" id="Path" fill="#F2C30E" fill-rule="nonzero"></path>
                    <path d="M209.97681,232.487735 L225.284049,241.796667 C225.284049,241.796667 236.046442,234.924628 241.178773,230.180809 C246.311104,225.43699 257.840491,215.332006 257.840491,215.332006 L265.184049,205.495081 C265.184049,205.495081 260.092515,199.224142 251.606626,204.260388 C240.640245,210.75877 227.26681,220.19767 218.348466,220.108317 C218.348466,220.108317 220.102761,231.017476 210.033926,232.487735" id="Path" fill="#F2C30E" fill-rule="nonzero"></path>
                    <path d="M86.6295092,12.3712945 C86.6295092,12.3712945 93.5732515,22.8336893 94.8379755,26.2209709 C96.1026994,29.6082524 97.122638,34.6201294 96.8696933,37.0326537 C96.6167485,39.445178 94.0709816,52.368835 92.7899387,52.7424919 L91.5578528,54.131521 L92.3738037,59.6064078 C92.3738037,59.6064078 86.9395706,68.9559547 70.9632515,62.1001618 C70.9632515,62.1001618 70.3431288,51.1828803 68.4011656,47.7549838 C66.4592025,44.3270874 63.5544172,48.404822 60.6414724,38.5029126 C57.7285276,28.6010032 67.0058896,18.1954693 67.0058896,18.1954693 L86.6295092,12.3712945 Z" id="Path" fill="#FFFFFF" fill-rule="nonzero"></path>
                    <path d="M258.51773,202.440841 C258.51773,202.440841 250.643804,203.805502 248.089877,208.443722 C245.535951,213.081942 240.632086,221.700421 238.959387,225.867508 C237.286687,230.034595 223.456319,240.098964 223.456319,240.098964 L225.292209,241.796667 C225.292209,241.796667 236.552331,234.867767 243.349202,228.280032 C250.146074,221.692298 265.135092,205.121424 265.135092,205.121424 C265.135092,205.121424 264.058037,204.057314 258.51773,202.440841 Z" id="Path" fill="#FFFFFF" fill-rule="nonzero" opacity="0.5"></path>
                    <path d="M179.729509,221.245534 L177.779387,223.85301 L183.768466,236.216181 L216.708405,248.002621 L218.234233,243.201942 C218.234233,243.201942 218.740123,238.328155 207.178098,234.624078 C195.616074,230.92 188.566258,228.474984 185.277975,225.932492 C181.989693,223.39 179.729509,221.245534 179.729509,221.245534 Z" id="Path" fill="#FFFFFF" fill-rule="nonzero" opacity="0.5"></path>
                    <path d="M70.9877301,129.423398 C70.9877301,129.423398 60.9025767,127.912524 56.1945399,136.124854 C51.4865031,144.337184 51.9679141,147.895049 51.9679141,147.895049 C51.9679141,147.895049 58.6342331,153.922298 67.797362,153.581133 C76.9604908,153.239968 90.3012883,142.793819 94.6503067,139.390291 C98.9993252,135.986764 109.965706,126.247314 117.447975,128.261812 L118.263926,121.219191 C118.263926,121.219191 117.529571,118.059353 111.132515,118.912265 C104.73546,119.765178 102.222331,123.396149 100.157975,123.396149 C98.0936196,123.396149 96.1434969,121.422265 91.9984663,128.47301 C91.9903067,128.47301 77.4419018,131.039871 70.9877301,129.423398 Z" id="Path" fill="#FFFFFF" fill-rule="nonzero"></path>
                    <path d="M84.0919018,27.4150485 C84.3065498,28.7313428 84.6118921,30.0313797 85.0057669,31.3059547 C85.153291,31.9281631 85.4313617,32.5122655 85.8217178,33.0199029 C86.5887117,33.8322006 87.8289571,34.0433981 88.9631288,34.2139806 C89.1504524,34.2272797 89.3281975,34.3014843 89.4690184,34.425178 C89.5605226,34.5706812 89.60337,34.7413035 89.591411,34.9125566 C89.5846198,36.1919996 89.1985904,37.440978 88.4817178,38.5029126" id="Path" stroke="#263238" stroke-linecap="round" stroke-linejoin="round"></path>
                    <path d="M186.493742,212.822006 L179.729509,221.213042 C179.729509,221.213042 187.154663,228.044466 194.84092,230.578835 C202.527178,233.113204 215.982209,237.889515 218.234233,241.569223 L217.369325,237.190939 C217.369325,237.190939 196.325951,224.340388 191.495521,221.269903 C188.600991,219.379939 186.752817,216.258414 186.493742,212.822006 L186.493742,212.822006 Z" id="Path" fill="#000000" fill-rule="nonzero" opacity="0.1"></path>
                    <path d="M209.97681,232.487735 L223.44816,240.098964 C223.44816,240.098964 230.09816,235.566343 233.361963,232.227799 C236.625767,228.889256 240.648405,225.185178 243.153374,217.703916 C246.572209,207.363366 256.36362,202.440841 256.36362,202.440841 C256.36362,202.440841 242.745399,208.825502 235.654785,213.81301 C228.564172,218.800518 221.653067,220.912492 217.638589,220.571327 C217.597791,220.595696 220.820798,230.749417 209.97681,232.487735 Z" id="Path" fill="#000000" fill-rule="nonzero" opacity="0.1"></path>
                    <path d="M79.3430675,40.3468285 C79.3430675,40.3468285 84.638589,44.4814239 90.1380982,42.9299353 C90.1380982,42.9299353 84.9486503,53.1648867 79.3430675,40.3468285 Z" id="Path" stroke="#263238" fill="#FFFFFF" fill-rule="nonzero" stroke-linecap="round" stroke-linejoin="round"></path>
                    <path d="M79.1472393,31.4115534 C79.3022699,32.5487702 78.951411,33.5316505 78.3802454,33.6128803 C77.8090798,33.69411 77.2134356,32.8005825 77.0584049,31.6877346 C76.9033742,30.5748867 77.2460736,29.5676375 77.8253988,29.4864078 C78.4047239,29.405178 79.0248466,30.2743366 79.1472393,31.4115534 Z" id="Path" fill="#263238" fill-rule="nonzero"></path>
                    <path d="M90.6766258,29.3401942 C90.8234969,30.485534 90.4807975,31.4684142 89.9096319,31.541521 C89.3384663,31.6146278 88.7346626,30.7292233 88.5877914,29.6244984 C88.4409202,28.5197735 88.7754601,27.4962783 89.3547853,27.4231715 C89.9341104,27.3500647 90.5215951,28.2029773 90.6766258,29.3401942 Z" id="Path" fill="#263238" fill-rule="nonzero"></path>
                    <path d="M78.3312883,26.5865049 C78.3312883,26.5865049 75.2469939,25.0025243 73.0520859,28.3979288" id="Path" stroke="#263238" stroke-linecap="round" stroke-linejoin="round"></path>
                    <path d="M86.2378528,24.4745307 C86.2378528,24.4745307 89.5016564,21.6883495 91.3865031,24.4745307" id="Path" stroke="#263238" stroke-linecap="round" stroke-linejoin="round"></path>
                    <path d="M67.8544785,37.0407767 C67.8544785,37.0407767 65.8717178,34.1246278 63.7747239,34.2139806 C61.6777301,34.3033333 60.8454601,37.2276052 61.596135,40.0544013 C62.3468098,42.8811974 65.4719018,46.8289644 67.8381595,46.4553074 C69.1728923,46.2840603 70.3907542,45.6095304 71.2406748,44.5707767" id="Path" stroke="#263238" stroke-linecap="round" stroke-linejoin="round"></path>
                    <path d="M86.866135,14.7269579 C89.093681,16.5708738 91.4517791,18.5772492 92.5777914,21.2903236 C93.5732515,23.5972492 93.7935583,26.16411 94.7074233,28.4954045 C95.6784049,30.9891586 96.7391411,33.5966343 96.8207362,36.3178317 C96.7776302,38.8354337 96.4463918,41.3399392 95.8334356,43.7828479 C95.4945911,45.9010255 94.9898829,47.9895816 94.3239264,50.0294175 C93.2223926,52.9455663 91.1906748,54.7407443 88.4653988,56.1216505 C86.482638,57.1288997 83.1780368,58.5585437 81.0320859,57.2101294 C79.783681,56.3978317 77.9069939,54.0746602 76.3485276,51.9383172" id="Path" stroke="#263238" stroke-linecap="round" stroke-linejoin="round"></path>
                    <path d="M67.8544785,46.4553074 C67.8544785,46.4553074 71.3630675,55.0169256 70.5144785,61.0360518" id="Path" stroke="#263238" stroke-linecap="round" stroke-linejoin="round"></path>
                    <path d="M66.9569325,35.6030097 C67.9067633,34.9034136 68.4203956,33.7606158 68.311411,32.5893851 C68.1808589,31.2734628 67.2669939,30.0550162 67.4465031,28.7390939 C67.5965937,28.1089134 67.8326945,27.5021725 68.1482209,26.9357929 C69.1119946,24.7192976 68.9543341,22.1778403 67.7239264,20.096246 C67.7239264,20.096246 78.869816,20.6161165 84.0919018,17.3100647 C89.3139877,14.0040129 93.2958282,5.54799353 90.1380982,1.51087379 C86.9803681,-2.52624595 80.8280982,2.98113269 76.2669325,3.59035599 C71.7057669,4.19957929 55.4846626,6.77456311 52.8980982,12.9967638 C50.3115337,19.2189644 54.2525767,21.4527832 54.3749693,27.3906796 C54.497362,33.3285761 54.497362,44.5788997 63.4157055,43.5472816 C63.4157055,43.5472816 60.0784663,39.2502265 62.3957669,34.8232039 C63.9705521,32.9630421 66.9569325,35.6030097 66.9569325,35.6030097 Z" id="Path" fill="#1B212B" fill-rule="nonzero"></path>
                    <path d="M88.8162577,8.52912621 C91.8755608,10.9013035 93.8081822,14.4315212 94.1525767,18.276699 C94.6503067,22.7280906 102.58135,31.3790615 96.8615337,36.3097087 C96.8615337,36.3097087 95.5315337,31.0703883 94.7482209,28.4872816 C93.964908,25.9041748 92.9612883,21.1766019 91.6476074,19.5520065 C90.3339264,17.927411 83.3657055,12.2413269 83.3657055,12.2413269 L88.8162577,8.52912621 Z" id="Path" fill="#1B212B" fill-rule="nonzero"></path>
                    <path d="M68.8825767,60.8492233 C68.8825767,60.8492233 74.3820859,64.4558252 84.5977914,64.6020388 L85.7972393,78.2405178 C85.7972393,78.2405178 74.3086503,77.3713592 65.7656442,69.548932 C65.7656442,69.548932 63.4565031,63.464822 64.0684663,60.8492233 C64.6804294,58.2336246 70.1717791,55.6423948 70.1717791,55.6423948" id="Path" stroke="#263238" stroke-linecap="round" stroke-linejoin="round"></path>
                    <path d="M91.9903067,54.7488673 L92.3166871,59.6226537 C90.1630965,61.855728 87.5218879,63.5651051 84.5977914,64.6182848 L90.9948466,76.74589 C90.9948466,76.74589 98.6239877,70.8323625 99.3828221,64.6182848 C99.3828221,64.6182848 99.4480982,58.2579935 98.1180982,56.4384466 C96.7880982,54.6188997 91.9413497,53.7659871 91.9413497,53.7659871" id="Path" stroke="#263238" stroke-linecap="round" stroke-linejoin="round"></path>
                    <path d="M61.0331288,17.0582524 C61.8490798,15.0193851 64.0847853,13.8090615 66.2633742,13.4841424 C68.4419632,13.1592233 70.6776687,13.3866667 72.8807362,13.3298058 C75.9312532,13.305339 78.918869,12.4635731 81.529816,10.8929126 C84.149778,9.30455723 86.0283176,6.74481824 86.7519018,3.77718447" id="Path" stroke="#FFFFFF" opacity="0.8" stroke-linecap="round" stroke-linejoin="round"></path>
                    <path d="M55.7702454,16.6602265 C57.1492025,12.4931392 61.6206135,9.91815534 66.018589,9.55262136 C68.1971779,9.36579288 70.4002454,9.61760518 72.5461963,9.36579288 C74.6921472,9.11398058 76.9768098,8.22045307 78.1109816,6.36029126" id="Path" stroke="#FFFFFF" opacity="0.8" stroke-linecap="round" stroke-linejoin="round"></path>
                    <path d="M53.4529448,149.07288 C42.8455828,154.547767 39.0758896,148.910421 33.1684049,144.247832 C27.2609202,139.585243 31.1366871,131.251068 29.9046012,117.88877 C28.6725153,104.526472 31.7404908,81.7983819 31.7404908,81.7983819 C31.7404908,81.7983819 34.3841718,81.1972816 41.7195706,76.729644 C49.0549693,72.2620065 64.4927607,65.4549515 64.4927607,65.4549515" id="Path" stroke="#263238" stroke-linecap="round" stroke-linejoin="round"></path>
                    <path d="M63.9623926,128.846667 C63.9623926,128.846667 62.2815337,123.542362 57.5326994,123.404272 C52.783865,123.266181 45.2934356,125.394401 39.9571166,135.442524" id="Path" stroke="#263238" stroke-linecap="round" stroke-linejoin="round"></path>
                    <path d="M56.4474847,123.087476 C56.1524587,123.068256 55.8628075,122.9996 55.5907362,122.884401 C51.675958,121.482049 47.4269874,121.289521 43.4004294,122.332039" id="Path" stroke="#263238" stroke-linecap="round" stroke-linejoin="round"></path>
                    <path d="M40.6669939,89.0522006 C49.3079141,98.5560841 53.5182209,111.130453 57.5082209,123.314919" id="Path" stroke="#263238" stroke-linecap="round" stroke-linejoin="round"></path>
                    <path d="M99.3828221,63.3592233 C99.3828221,63.3592233 115.04908,67.0795469 122.702699,67.9649515 C130.356319,68.850356 131.596564,69.914466 131.596564,69.914466 L133.024479,75.2268932" id="Path" stroke="#263238" stroke-linecap="round" stroke-linejoin="round"></path>
                    <polygon id="Path" fill="#FFFFFF" fill-rule="nonzero" points="172.385951 72.6031715 119.03092 74.6420388 114.673742 129.269061 123.812393 129.269061 170.142086 118.944757 175.967975 73.9109709"></polygon>
                    <polygon id="Path" fill="#F2C30E" fill-rule="nonzero" points="117.447975 130.885534 175.804785 75.2025243 170.142086 118.944757"></polygon>
                    <polygon id="Path" fill="#FFFFFF" fill-rule="nonzero" opacity="0.7" points="117.447975 130.885534 175.804785 75.2025243 170.142086 118.944757"></polygon>
                    <polygon id="Path" stroke="#263238" stroke-linecap="round" stroke-linejoin="round" points="117.447975 129.423398 122.115215 76.729644 175.967975 73.9109709 170.142086 118.944757"></polygon>
                    <path d="M153.268221,99.4414887 C152.909202,102.650065 151.187546,105.086958 149.425092,104.892006 C147.662638,104.697055 146.536626,101.92712 146.895644,98.7185437 C147.254663,95.5099676 148.984479,93.0730744 150.746933,93.2680259 C152.509387,93.4629773 153.635399,96.2329126 153.268221,99.4414887 Z" id="Path" fill="#1B212B" fill-rule="nonzero"></path>
                    <path d="M170.142086,118.944757 C170.142086,118.944757 194.800123,118.246181 202.510859,123.314919 C210.221595,128.383657 214.750123,153.800453 213.681227,167.300841 C212.612331,180.80123 203.310491,211.782265 203.310491,211.782265 L185.490123,191.702265 C185.490123,191.702265 176.710491,159.925178 181.500123,147.480777 C181.500123,147.480777 157.837546,148.804822 148.519387,145.896796 C148.519387,145.896796 140.172209,132.290809 125.860429,127.79068 L170.142086,118.944757 Z" id="Path" fill="#1B212B" fill-rule="nonzero"></path>
                    <path d="M207.072025,212.310259 C200.742621,206.428011 195.058902,199.892952 190.116564,192.815113 C181.491963,179.550291 169.57092,166.821586 157.307178,156.887184 C147.426012,148.910421 145.190307,135.913657 133,129.390906 C112.805215,118.611715 95.343865,140.032006 88.8162577,144.369676 C82.2886503,148.707346 70.9877301,153.621748 70.9877301,153.621748 C70.9877301,153.621748 75.1164417,169.055405 87.2414724,170.883074 C99.3665031,172.710744 111.630245,164.384693 117.431656,168.405566 C123.233067,172.42644 127.524969,190.37822 146.683497,200.897476 C162.341595,209.491586 183.678712,217.874498 194.68589,223.528091 C197.133742,224.795275 198.961472,226.127443 200.348589,226.88288 C204.15092,228.946117 208.214356,231.374887 212.049325,233.779288 L225.259571,241.788544 C225.259571,241.788544 238.518773,233.982362 243.610307,226.785405 C244.287546,225.81877 245.699141,223.243786 247.020982,220.758155 C249.901288,215.323883 253.548589,210.450097 258.599325,207.761392 C262.091595,205.884984 265.200368,205.324498 265.128208,205.129547 C264.792393,204.512201 258.460613,201.287379 254.160552,203.050065 C245.05454,206.794757 226.850675,221.18055 218.258712,220.108317 C214.262412,217.911527 210.512386,215.297444 207.072025,212.310259 L207.072025,212.310259 Z" id="Path" stroke="#1B212B"></path>
                    <path d="M207.072025,212.310259 C199.132822,215.502589 195.934294,220.433236 194.710368,223.536214 C183.70319,217.850129 162.366074,209.499709 146.707975,200.905599 C127.549448,190.345728 123.290184,172.42644 117.456135,168.413689 C111.622086,164.400939 99.350184,172.751359 87.2659509,170.891197 C75.1817178,169.031036 70.9877301,153.613625 70.9877301,153.613625 C70.9877301,153.613625 82.2968098,148.739838 88.8244172,144.402168 C95.3520245,140.064498 110.406319,118.636084 133,129.423398 C145.47589,135.37754 147.426012,148.918544 157.307178,156.919676 C169.546442,166.821586 181.491963,179.582783 190.116564,192.847605 C195.046784,199.924918 200.731683,206.450439 207.072025,212.310259 Z" id="Path" fill="#1B212B" fill-rule="nonzero"></path>
                    <path d="M147.409693,143.443657 C147.409693,143.443657 141.298221,131.080485 131.49865,128.684207" id="Path" stroke="#FFFFFF" stroke-linecap="round" stroke-linejoin="round"></path>
                    <path d="M115.37546,118.831036 C108.635706,117.3689 101.235031,124.785178 98.1180982,123.396149 C95.8007975,122.364531 91.9903067,128.47301 91.9903067,128.47301 C85.7181687,129.374566 79.3753283,129.692735 73.0439264,129.423398 C63.9623926,128.846667 59.6623313,130.609353 56.4474847,135.442524 L51.9597546,147.277702 C51.9597546,147.277702 63.7992025,157.837573 76.4382822,151.688479 C89.077362,145.539385 105.869632,126.986505 117.439816,127.051489" id="Path" stroke="#263238" stroke-linecap="round" stroke-linejoin="round"></path>
                    <path d="M209.462761,232.170939 C209.462761,232.170939 220.527055,233.072589 217.932331,219.913366" id="Path" stroke="#1B212B"></path>
                    <path d="M261.602025,211.782265 C260.786074,213.406861 250.643804,222.000971 241.904969,229.514725 C241.904969,229.401003 244.352822,224.811521 245.364601,222.853883 C247.690061,218.53246 253.69546,206.681036 265.126933,205.121424 C266.750675,206.096181 261.602025,211.782265 261.602025,211.782265 Z" id="Path" fill="#1B212B" fill-rule="nonzero"></path>
                    <path d="M257.253006,202.530194 C245.690982,204.820874 243.06362,219.588447 238.959387,225.867508 C234.855153,232.14657 223.456319,240.683819 223.456319,240.683819" id="Path" stroke="#1B212B"></path>
                    <path d="M217.222454,236.914757 C219.107301,240.342654 218.217914,244.322913 217.222454,246.816667 C216.73478,248.055177 216.128163,249.243936 215.411043,250.366408 C199.043067,247.685825 182.675092,238.929256 182.675092,238.929256 L178.456626,225.932492 L177.779387,223.85301 L184.135644,215.332006" id="Path" stroke="#1B212B"></path>
                    <path d="M217.222454,246.816667 C216.73478,248.055177 216.128163,249.243936 215.411043,250.366408 C199.043067,247.685825 182.675092,238.929256 182.675092,238.929256 L178.456626,225.932492 C180.569939,228.678058 184.486503,232.698932 190.36135,234.347896 C198.33319,236.597961 213.044785,239.229806 217.222454,246.816667 Z" id="Path" fill="#1B212B" fill-rule="nonzero"></path>
                    <polyline id="Path" stroke="#263238" stroke-linecap="round" stroke-linejoin="round" points="114.673742 127.368285 119.03092 74.6420388 172.385951 72.6031715 175.967975 73.9109709"></polyline>
                    <path d="M217.858896,225.867508 C217.858896,225.867508 225.153497,227.167184 230.75908,222.618317 C236.364663,218.06945 245.397239,207.777638 245.397239,207.777638" id="Path" stroke="#263238"></path>
                    <path d="M225.284049,219.320388 C225.284049,219.320388 223.521595,221.960356 225.284049,227.256537" id="Path" stroke="#263238" stroke-linecap="round" stroke-linejoin="round"></path>
                    <path d="M230.457178,216.794142 C229.655204,219.426888 229.891559,222.26497 231.118098,224.730291" id="Path" stroke="#263238" stroke-linecap="round" stroke-linejoin="round"></path>
                    <path d="M236.625767,213.236278 C236.625767,213.236278 235.148896,217.647055 236.625767,221.537961" id="Path" stroke="#263238" stroke-linecap="round" stroke-linejoin="round"></path>
                    <path d="M185.579877,214.235405 L179.729509,221.245534 C179.729509,221.245534 185.620675,227.654563 193.935215,230.3189 C202.249755,232.983236 217.100061,237.507735 218.332147,242.32466" id="Path" stroke="#263238"></path>
                </g>
            </g>
        </g>
    </g>
</svg>