<?xml version="1.0" encoding="UTF-8"?>
<svg width="298px" height="275px" viewBox="0 0 298 275" version="1.1" xmlns="http://www.w3.org/2000/svg" xmlns:xlink="http://www.w3.org/1999/xlink">
    <title>Select-bro</title>
    <g id="Page-1" stroke="none" stroke-width="1" fill="none" fill-rule="evenodd">
        <g id="Desktop-HD" transform="translate(-1005.000000, -213.000000)">
            <g id="Select-bro" transform="translate(1005.000000, 214.000000)">
                <g id="freepik--Plants--inject-1--inject-10" transform="translate(6.000000, 112.000000)" fill="#F2C30E" fill-rule="nonzero">
                    <path d="M105.18,58.58 C101.32,64.31 95.94,71.76 93.07,77.74 C94.16,73.8 95.23,70.07 96.2,66.74 C97.67,63.85 101.61,56.56 106.2,51.74 C111.97,45.56 114.44,41.59 111.33,41.25 C109.18,41.01 102.88,49.4 98.93,57.73 C99.79,54.88 100.47,52.73 100.93,51.44 C101.12,50.86 101.3,50.23 101.48,49.56 C105.565896,43.8438366 109.286638,37.8752861 112.62,31.69 C118.45,20.8 120.33,10.52 116.44,14.94 C112.86,19.01 106.63,39.25 101.68,48.77 C102.1,47.13 102.5,45.32 102.85,43.53 C103.55,41.8 104.47,40.04 104.99,38.44 C105.8,35.98 106.51,33.5 107.08,30.97 C108.020134,27.039144 108.496713,23.0117164 108.5,18.97 C108.600323,14.222697 107.307013,9.55009387 104.78,5.53 C104.11,4.53 100.01,-1.6 98.78,1.53 C98.6197585,2.05140522 98.588869,2.6039839 98.69,3.14 C99.29,8.35 101.18,13.14 102.35,18.21 C104.1,25.8 102.94,38.54 102.35,43.96 C102.13,44.82 101.85,45.88 101.52,47.11 C102.33,37.67 98.24,26.48 94.45,24.52 C89.76,22.1 94.36,31.6 97.98,39.9 C99.6947834,43.5323148 100.501253,47.5269132 100.33,51.54 C99.59,54.26 98.74,57.33 97.86,60.43 C97.68,60.85 97.52,61.28 97.36,61.7 C97.7668367,59.6767126 97.9313278,57.6121818 97.85,55.55 C97.51,50.13 91.37,39.28 87.29,40.81 C83.21,42.34 90.12,48.06 93.81,54.72 C95.7460707,58.4027297 96.4903634,62.5959283 95.94,66.72 C95.94,66.97 95.86,67.21 95.83,67.44 C95.4,68.86 94.98,70.22 94.58,71.52 C93.58,74.52 92.73,77.4 91.88,80.18 C92.9242565,76.1466368 93.3822899,71.9839217 93.24,67.82 C92.73,59.88 88.08,52.38 84.24,51.35 C80.4,50.32 87.73,63.28 90.19,70.56 C91.5275621,74.8119384 91.7547696,79.335433 90.85,83.7 C89.66,87.64 88.54,91.53 87.39,95.64 C87.7111954,90.2560773 87.5941432,84.8549525 87.04,79.49 C86.29,70.65 81.04,65.01 77.42,65.24 C73.8,65.47 77.58,70.49 82.8,81.24 C85.5562646,86.8843453 86.7837782,93.15294 86.36,99.42 C85.89,101.15 85.36,102.93 84.92,104.79 C84.36,106.91 83.92,109.22 83.52,111.58 C83,109.47 82.22,106.39 81.31,102.99 C80.2502818,99.2313169 79.4813456,95.3966655 79.01,91.52 C78.52,87.01 77.33,81.38 72.91,79.04 C72.3018957,78.616423 71.5376899,78.4832253 70.8221416,78.6760955 C70.1065933,78.8689656 69.5128509,79.3681871 69.2,80.04 C68.7944786,81.0074702 68.7035202,82.0779807 68.94,83.1 C69.5268257,86.1679105 70.5364503,89.1395722 71.94,91.93 C71.0716371,93.5948715 70.6772904,95.4662888 70.8,97.34 C70.8,98.04 70.86,98.74 70.91,99.44 C70.52,98.72 70.15,98.06 69.8,97.44 C69.1645482,96.3796434 68.3836191,95.4135803 67.48,94.57 C67.7065424,92.9129674 67.8201378,91.2424469 67.82,89.57 C67.82,87.38 65.25,81.79 62.93,85.93 C62,87.59 62.18,90.84 62.09,93 C61.46,93.6 61.27,94.82 61.8,96.74 C61.44,101.74 61.37,106.86 62.58,111.74 L61.78,110.35 C60.6528726,104.565063 59.9841291,98.7001822 59.78,92.81 C59.49,83.08 61.04,75.1 58.39,72.1 C55.74,69.1 54.26,79.65 55.39,91.15 C55.9223545,96.3974681 57.3213365,101.52031 59.53,106.31 C56.93,101.64 54.36,96.88 51.93,92.31 C50.93,89.86 48.45,83.23 49.06,76.51 C49.83,68.04 50.39,61.1 47.17,56.33 C43.95,51.56 43.28,54.66 44.86,64.6 C45.94,71.42 47.09,80.54 49.07,86.87 C47.19,83.24 45.42,79.79 43.84,76.67 C42.94,73.55 40.84,65.54 40.84,58.89 C40.84,50.43 39.94,45.89 37.44,47.72 C35.7,49.01 36.82,59.45 39.62,68.23 C38.31,65.56 37.32,63.51 36.75,62.3 C36.49,61.75 36.2,61.16 35.87,60.55 C34.9550292,53.5851445 33.6023522,46.6848219 31.82,39.89 C28.65,27.95 23,19.15 23.18,25.04 C23.34,30.46 32.6,49.5 35.49,59.84 C34.67,58.35 33.72,56.76 32.76,55.21 C32.09,53.46 31.56,51.55 30.85,50.03 C29.76,47.68 28.59,45.38 27.28,43.14 C25.2794498,39.6177616 22.8730394,36.3420901 20.11,33.38 C16.9092363,29.735222 12.6920601,27.1303931 8,25.9 C6.82,25.62 -0.34,23.9 0.88,27.1 C1.10810447,27.5881493 1.45125578,28.0136569 1.88,28.34 C5.88,31.74 10.52,33.95 14.88,36.86 C21.34,41.22 29.19,51.32 32.43,55.71 L33.97,58.58 C28.12,51.12 17.49,45.74 13.39,46.9 C8.31,48.33 18.15,52.13 26.46,55.72 C30.1939005,57.2037119 33.5096769,59.5755561 36.12,62.63 C37.44,65.13 38.91,67.94 40.38,70.81 C40.55,71.24 40.71,71.66 40.88,72.08 C39.7993797,70.3238209 38.5136793,68.7024285 37.05,67.25 C33.1,63.53 21.2,59.78 19.27,63.68 C17.34,67.58 26.27,67.06 33.53,69.4 C37.4401596,70.7720843 40.8312857,73.3180482 43.24,76.69 C43.38,76.89 43.51,77.1 43.65,77.29 C44.31,78.61 44.93,79.9 45.52,81.12 C46.88,83.99 48.18,86.68 49.45,89.29 C47.467724,85.6163186 44.9652215,82.2482129 42.02,79.29 C36.22,73.83 27.7,71.53 24.17,73.43 C20.64,75.33 34.86,79.76 41.63,83.43 C45.5104718,85.6263356 48.7638212,88.7798468 51.08,92.59 C52.9,96.28 54.73,99.89 56.7,103.68 C53.260377,99.5267241 49.4915008,95.6575229 45.43,92.11 C38.84,86.16 31.15,85.62 28.66,88.26 C26.17,90.9 32.36,91.99 43.5,96.26 C49.3623431,98.5035264 54.5342103,102.24451 58.5,107.11 C59.34,108.7 60.2,110.33 61.12,112.03 C62.12,113.95 63.39,115.95 64.73,117.94 C62.91,116.76 60.23,115.04 57.25,113.18 C53.9058668,111.156138 50.726065,108.872432 47.74,106.35 C44.3,103.4 39.59,100.09 34.74,101.4 C34.0090604,101.506594 33.3631765,101.932217 32.9769033,102.561843 C32.5906301,103.191468 32.5038442,103.960096 32.74,104.66 C33.0931919,105.64902 33.7560159,106.497715 34.63,107.08 C39.19,110.61 45.32,112.31 50.63,114.4 C55.4960724,116.314677 60.4836637,117.904827 65.56,119.16 C66.82,120.97 68.13,122.76 69.45,124.46 L67.07,124.53 C64.25,124.62 51.53,118.85 45.07,117 C38.61,115.15 32.57,118.65 39.34,122.29 C46.11,125.93 64.52,125.12 64.52,125.12 L69.83,124.96 C71.08,126.56 72.3,128.08 73.46,129.47 L48.23,129.47 L48.23,136.47 L53.23,136.47 L57.23,161.36 L90.76,161.36 L94.81,136.47 L99.81,136.47 L99.81,129.47 L83.1,129.47 C82.9649184,126.4448 83.0451206,123.413823 83.34,120.4 C84.4549454,119.266258 85.6925568,118.26007 87.03,117.4 C94.37,112.33 106.81,111.91 110.12,102.14 C110.92,99.79 110.01,96.77 107.2,96.9 C105.2,96.99 103.03,98.77 101.77,100.22 C97.57,105.07 94.41,110.1 88.95,113.78 C87.0741729,115.222022 85.2719056,116.757287 83.55,118.38 C83.74,116.79 83.98,115.09 84.29,113.27 C85.6093751,110.930003 87.114194,108.699527 88.79,106.6 C93.26,101.05 100.06,97.8 104.89,92.51 C106.37,90.89 108.32,85.07 103.8,86.51 C101.8,87.15 99.42,90.2 97.8,91.59 C93.35,95.59 88.8,99.85 85.9,105.11 C86.02,104.59 86.15,104.11 86.27,103.55 C89.3897481,98.5475872 92.9042679,93.8024838 96.78,89.36 C103.2,82.06 109.78,77.28 109.89,73.28 C110,69.28 101.72,75.98 94.69,85.14 C91.5010008,89.3421543 89.0277358,94.0420336 87.37,99.05 C88.66,93.87 90.03,88.63 91.37,83.61 C92.29,81.11 95.02,74.61 100.05,70.1 C106.4,64.43 111.54,59.75 112.45,54.1 C113.36,48.45 110.81,50.24 105.18,58.58 Z M69.67,122.9 C68.72,121.61 67.73,120.21 66.67,118.66 C66.0386007,116.030949 65.6172727,113.355851 65.41,110.66 C65.2818958,108.36508 65.3891217,106.063075 65.73,103.79 C67.4366701,105.903446 69.2489779,107.92936 71.16,109.86 C71.1143996,111.85932 70.8698602,113.849133 70.43,115.8 C70.0554549,118.152118 69.8017883,120.521897 69.67,122.9 Z M75.11,129.49 C73.82,128.12 72.41,126.49 70.88,124.49 C70.9184165,122.903809 71.1364746,121.327081 71.53,119.79 C72.1406034,117.366589 73.0193593,115.018768 74.15,112.79 C76.52,115.04 78.26,116.53 78.26,116.53 L82.26,120.04 C81.95,123.53 81.77,126.81 81.66,129.47 L75.11,129.49 Z M82.31,119.43 L80.52,117.86 C79.52,116.96 77.72,113.48 75.76,109.47 C76.5960347,107.782674 77.3371886,106.049976 77.98,104.28 C80.1,108.21 81.98,111.28 83.09,112.91 C82.77,115.08 82.52,117.29 82.31,119.43 L82.31,119.43 Z" id="Shape"></path>
                </g>
                <g id="freepik--Device--inject-1--inject-10">
                    <path d="M0.93,64.67 C4.5090478,67.3933241 6.75412955,71.5159783 7.1,76" id="Path" stroke="#2E353A" stroke-linecap="round" stroke-linejoin="round"></path>
                    <path d="M260.150004,118.68 L259.52,11.91 C259.51448,5.43008262 254.25992,0.18 247.78,0.18 L14.13,0.18 C7.65169988,0.18 2.4,5.43169988 2.4,11.91 L1.75999577,118.68 C1.75734378,121.823629 3.00496934,124.839266 5.22785148,127.062149 C7.45073362,129.285031 10.4663711,130.532656 13.61,130.530004 L248.3,130.530004 C251.443629,130.532656 254.459266,129.285031 256.682149,127.062149 C258.905031,124.839266 260.152656,121.823629 260.150004,118.68 Z" id="Path" stroke="#363636" stroke-width="0.868674" fill="#1B212B" fill-rule="nonzero" stroke-linecap="round" stroke-linejoin="round"></path>
                    <polygon id="Path" stroke="#363636" stroke-width="0.651505" fill="#FFFFFF" fill-rule="nonzero" stroke-linecap="round" stroke-linejoin="round" points="247.02 124.73 246.51 5.92 15.4 5.92 14.9 124.73"></polygon>
                    <polygon id="Path" stroke="#2E353A" fill="#F2C30E" fill-rule="nonzero" stroke-linecap="round" stroke-linejoin="round" points="246.51 5.92 15.4 5.92 15.38 11.85 37.58 11.85 43.26 19.97 246.57 19.97"></polygon>
                    <polygon id="Path" fill="#F2C30E" fill-rule="nonzero" opacity="0.5" style="mix-blend-mode: multiply;" points="246.51 29.56 84.06 124.73 247.02 124.73"></polygon>
                    <circle id="Oval" fill="#FFFFFF" fill-rule="nonzero" transform="translate(252.973368, 65.269825) rotate(-89.260000) translate(-252.973368, -65.269825) " cx="252.973368" cy="65.2698253" r="1.79"></circle>
                    <circle id="Oval" stroke="#2E353A" fill="#F2C30E" fill-rule="nonzero" stroke-linecap="round" stroke-linejoin="round" cx="33.2" cy="39.76" r="9.57"></circle>
                    <circle id="Oval" stroke="#2E353A" fill="#FFFFFF" fill-rule="nonzero" stroke-linecap="round" stroke-linejoin="round" cx="33.2" cy="79.11" r="9.57"></circle>
                    <circle id="Oval" stroke="#2E353A" fill="#FFFFFF" fill-rule="nonzero" stroke-linecap="round" stroke-linejoin="round" cx="98.6" cy="39.76" r="9.57"></circle>
                    <circle id="Oval" stroke="#2E353A" fill="#F2C30E" fill-rule="nonzero" stroke-linecap="round" stroke-linejoin="round" cx="98.6" cy="79.11" r="9.57"></circle>
                    <circle id="Oval" stroke="#2E353A" fill="#F2C30E" fill-rule="nonzero" stroke-linecap="round" stroke-linejoin="round" cx="164.01" cy="39.76" r="9.57"></circle>
                    <circle id="Oval" stroke="#2E353A" stroke-width="2" fill="#F2C30E" fill-rule="nonzero" stroke-linecap="round" stroke-linejoin="round" cx="164.01" cy="79.11" r="9.57"></circle>
                    <circle id="Oval" stroke="#2E353A" fill="#F2C30E" fill-rule="nonzero" stroke-linecap="round" stroke-linejoin="round" cx="229.41" cy="39.76" r="9.57"></circle>
                    <circle id="Oval" stroke="#2E353A" fill="#FFFFFF" fill-rule="nonzero" stroke-linecap="round" stroke-linejoin="round" cx="229.41" cy="79.11" r="9.57"></circle>
                    <line x1="49.83" y1="52.72" x2="81.18" y2="52.72" id="Path" stroke="#2E353A" stroke-linecap="round" stroke-linejoin="round"></line>
                    <line x1="49.83" y1="59.95" x2="81.18" y2="59.95" id="Path" stroke="#2E353A" stroke-linecap="round" stroke-linejoin="round"></line>
                    <line x1="49.83" y1="67.19" x2="81.18" y2="67.19" id="Path" stroke="#2E353A" stroke-linecap="round" stroke-linejoin="round"></line>
                    <line x1="114.34" y1="52.72" x2="145.69" y2="52.72" id="Path" stroke="#2E353A" stroke-linecap="round" stroke-linejoin="round"></line>
                    <line x1="114.34" y1="59.95" x2="145.69" y2="59.95" id="Path" stroke="#2E353A" stroke-linecap="round" stroke-linejoin="round"></line>
                    <line x1="114.34" y1="67.19" x2="145.69" y2="67.19" id="Path" stroke="#2E353A" stroke-linecap="round" stroke-linejoin="round"></line>
                    <line x1="183.07" y1="52.72" x2="214.42" y2="52.72" id="Path" stroke="#2E353A" stroke-linecap="round" stroke-linejoin="round"></line>
                    <line x1="183.07" y1="59.95" x2="214.42" y2="59.95" id="Path" stroke="#2E353A" stroke-linecap="round" stroke-linejoin="round"></line>
                    <line x1="183.07" y1="67.19" x2="214.42" y2="67.19" id="Path" stroke="#2E353A" stroke-linecap="round" stroke-linejoin="round"></line>
                    <line x1="49.83" y1="93.66" x2="81.18" y2="93.66" id="Path" stroke="#2E353A" stroke-linecap="round" stroke-linejoin="round"></line>
                    <line x1="49.83" y1="100.9" x2="81.18" y2="100.9" id="Path" stroke="#2E353A" stroke-linecap="round" stroke-linejoin="round"></line>
                    <line x1="49.83" y1="108.13" x2="81.18" y2="108.13" id="Path" stroke="#2E353A" stroke-linecap="round" stroke-linejoin="round"></line>
                    <line x1="114.34" y1="93.66" x2="145.69" y2="93.66" id="Path" stroke="#2E353A" stroke-linecap="round" stroke-linejoin="round"></line>
                    <line x1="114.34" y1="100.9" x2="145.69" y2="100.9" id="Path" stroke="#2E353A" stroke-linecap="round" stroke-linejoin="round"></line>
                    <line x1="114.34" y1="108.13" x2="145.69" y2="108.13" id="Path" stroke="#2E353A" stroke-linecap="round" stroke-linejoin="round"></line>
                    <line x1="183.07" y1="93.66" x2="214.42" y2="93.66" id="Path" stroke="#2E353A" stroke-linecap="round" stroke-linejoin="round"></line>
                    <line x1="183.07" y1="100.9" x2="214.42" y2="100.9" id="Path" stroke="#2E353A" stroke-linecap="round" stroke-linejoin="round"></line>
                    <line x1="183.07" y1="108.13" x2="214.42" y2="108.13" id="Path" stroke="#2E353A" stroke-linecap="round" stroke-linejoin="round"></line>
                    <line x1="145.13" y1="79.6" x2="151.07" y2="79.6" id="Path" stroke="#2E353A" fill="#FFFFFF" fill-rule="nonzero" stroke-linecap="round" stroke-linejoin="round"></line>
                    <line x1="164.64" y1="67.73" x2="164.64" y2="60.31" id="Path" stroke="#2E353A" fill="#FFFFFF" fill-rule="nonzero" stroke-linecap="round" stroke-linejoin="round"></line>
                    <line x1="151.49" y1="68.58" x2="155.31" y2="71.55" id="Path" stroke="#2E353A" fill="#FFFFFF" fill-rule="nonzero" stroke-linecap="round" stroke-linejoin="round"></line>
                    <line x1="156.16" y1="87.23" x2="151.49" y2="89.78" id="Path" stroke="#2E353A" fill="#FFFFFF" fill-rule="nonzero" stroke-linecap="round" stroke-linejoin="round"></line>
                    <line x1="184.57" y1="79.6" x2="178.63" y2="79.6" id="Path" stroke="#2E353A" fill="#FFFFFF" fill-rule="nonzero" stroke-linecap="round" stroke-linejoin="round"></line>
                    <line x1="178.2" y1="68.58" x2="174.39" y2="71.55" id="Path" stroke="#2E353A" fill="#FFFFFF" fill-rule="nonzero" stroke-linecap="round" stroke-linejoin="round"></line>
                    <line x1="160.02" y1="99.26" x2="165.02" y2="117.12" id="Path" stroke="#2E353A" stroke-linecap="round" stroke-linejoin="round"></line>
                    <line x1="155.01" y1="97.11" x2="157.87" y2="106.4" id="Path" stroke="#2E353A" stroke-linecap="round" stroke-linejoin="round"></line>
                    <path d="M278.24,267.2 C278.24,267.2 254.49,223.4 251.11,215.72 C247.73,208.04 245.18,195.94 244.35,192.62 C243.149501,188.724275 243.038831,184.574169 244.03,180.62 C245.28,175.02 244.54,159.04 245.1,155.37 C245.66,151.7 243.39,140.22 242.1,133.79 C240.81,127.36 237.89,122.79 233.95,122.29 C231.622676,122.01133 229.310336,122.915996 227.79,124.7 C227.79,124.7 226.15,111.01 224.56,108.17 C222.97,105.33 217.79,105.74 215.02,106.42 C212.25,107.1 210.92,115.96 210.92,115.96 C210.92,115.96 208.52,107.45 208.45,103.65 C208.38,99.85 203.76,96.58 200.16,97.48 C196.56,98.38 194.62,100.03 193.64,107.91 C192.66,115.79 194.51,127.98 194.51,127.98 L192.64,128.74 C192.64,128.74 185.9,105.14 183.76,98.91 C181.62,92.68 179.56,85.55 178.12,80.91 C176.68,76.27 174.54,68.91 168.65,70.04 C162.76,71.17 164.21,84.04 164.21,84.04 C164.21,84.04 173.42,123.48 173.9,126.59 C174.38,129.7 175.9,140.5 175.6,144.1 C175.3,147.7 175.31,157.1 175.31,157.1 L166.54,146.64 C165.459436,143.809887 164.095853,141.096122 162.47,138.54 C159.47,133.7 152.8,129.19 148.47,130.54 C144.14,131.89 147.56,136.35 149.35,138.84 C151.14,141.33 152.59,148.32 152.59,151.84 C152.59,155.36 155.59,157.84 159.21,164.3 C162.83,170.76 181,193.08 183.75,197.1 C185.786423,199.801265 188.347674,202.063194 191.28,203.75 C191.28,203.75 201.78,212.9 206.68,224.32 C211.58,235.74 226.61,268.53 226.61,268.53" id="Path" fill="#FFFFFF" fill-rule="nonzero"></path>
                    <path d="M242.28,256.78 C247.19,252.28 248.41,215.93 247.79,202.4 C247.79,202.29 247.79,202.16 247.79,202.04 C246.04,197.52 244.68,193.85 244.37,192.62 C243.169501,188.724275 243.058831,184.574169 244.05,180.62 C245.3,175.02 244.56,159.04 245.12,155.37 C245.45,153.2 244.78,148.26 243.92,143.26 C240.36,142.95 233.84,146.16 233.84,146.16 C233.84,146.16 228.7,138.68 225.35,138.42 C222,138.16 216.19,143.42 216.19,143.42 C216.19,143.42 212.86,132.2 206.02,133.35 C199.18,134.5 197.26,133.35 194.56,133.47 C191.86,133.59 189.67,127.02 186.97,120.57 C184.27,114.12 180.4,90 178.11,85 C178.11,85 174.52,74.94 169.87,78.29 C165.22,81.64 169.59,92.59 171.77,99.16 C173.95,105.73 175.12,118.21 176.89,124.16 C178.89,130.79 177.89,140.64 179.72,147.86 C181.55,155.08 186.25,157.42 183.66,166.86 C181.07,176.3 175.41,173.29 169.1,167.74 C162.79,162.19 159.67,149.48 156.1,150.74 C154.862948,151.053072 153.66779,151.513006 152.54,152.11 C152.62,155.57 155.54,158.11 159.16,164.43 C162.78,170.75 181,193.08 183.75,197.1 C185.786423,199.801265 188.347674,202.063194 191.28,203.75 C191.28,203.75 201.78,212.9 206.68,224.32 C207.56,226.37 208.96,229.4 210.68,233 C212.68,234.6 208.44,227 209.48,228.26 C216.41,236.39 237.38,261.29 242.28,256.78 Z" id="Path" fill="#F2C30E" fill-rule="nonzero" opacity="0.7" style="mix-blend-mode: multiply;"></path>
                    <path d="M278.24,267.2 C278.24,267.2 254.49,223.4 251.11,215.72 C247.73,208.04 245.18,195.94 244.35,192.62 C243.149501,188.724275 243.038831,184.574169 244.03,180.62 C245.28,175.02 244.54,159.04 245.1,155.37 C245.66,151.7 243.39,140.22 242.1,133.79 C240.81,127.36 237.89,122.79 233.95,122.29 C231.622676,122.01133 229.310336,122.915996 227.79,124.7 C227.79,124.7 226.15,111.01 224.56,108.17 C222.97,105.33 217.79,105.74 215.02,106.42 C212.25,107.1 210.92,115.96 210.92,115.96 C210.92,115.96 208.52,107.45 208.45,103.65 C208.38,99.85 203.76,96.58 200.16,97.48 C196.56,98.38 194.62,100.03 193.64,107.91 C192.66,115.79 194.51,127.98 194.51,127.98 L192.64,128.74 C192.64,128.74 185.9,105.14 183.76,98.91 C181.62,92.68 179.56,85.55 178.12,80.91 C176.68,76.27 174.54,68.91 168.65,70.04 C162.76,71.17 164.21,84.04 164.21,84.04 C164.21,84.04 173.42,123.48 173.9,126.59 C174.38,129.7 175.9,140.5 175.6,144.1 C175.3,147.7 175.31,157.1 175.31,157.1 L166.54,146.64 C165.459436,143.809887 164.095853,141.096122 162.47,138.54 C159.47,133.7 152.8,129.19 148.47,130.54 C144.14,131.89 147.56,136.35 149.35,138.84 C151.14,141.33 152.59,148.32 152.59,151.84 C152.59,155.36 155.59,157.84 159.21,164.3 C162.83,170.76 181,193.08 183.75,197.1 C185.786423,199.801265 188.347674,202.063194 191.28,203.75 C191.28,203.75 201.78,212.9 206.68,224.32 C211.58,235.74 226.61,268.53 226.61,268.53" id="Path" stroke="#2E353A" stroke-linecap="round" stroke-linejoin="round"></path>
                    <path d="M165.53,72.9 C165.53,72.9 166.62,79.66 166.83,80.51 C167.3,82.42 175.2,81.51 175.83,80.04 C176.39,78.73 175.98,75.89 175.98,75.89" id="Path" stroke="#2E353A" stroke-linecap="round" stroke-linejoin="round"></path>
                    <path d="M152,139.15 C153.353959,137.774139 153.558424,135.637691 152.49,134.03 C150.63,131.26 149.59,130.64 149.59,130.64" id="Path" stroke="#2E353A" stroke-linecap="round" stroke-linejoin="round"></path>
                    <path d="M174.67,112.07 C174.67,112.07 178.2,113.25 181.52,108.9" id="Path" stroke="#2E353A" stroke-width="0.75" stroke-linecap="round" stroke-linejoin="round"></path>
                    <path d="M175.09,109 C175.09,109 179.8,105.47 183.4,105.76" id="Path" stroke="#2E353A" stroke-width="0.75" stroke-linecap="round" stroke-linejoin="round"></path>
                    <path d="M170.21,90.55 C170.21,90.55 173.74,87.03 176.57,87.79" id="Path" stroke="#2E353A" stroke-width="0.75" stroke-linecap="round" stroke-linejoin="round"></path>
                    <path d="M173.53,89.72 C174.981028,89.9640096 176.467405,89.8958271 177.89,89.52" id="Path" stroke="#2E353A" stroke-width="0.75" stroke-linecap="round" stroke-linejoin="round"></path>
                    <line x1="210.91" y1="115.99" x2="212.77" y2="127" id="Path" stroke="#2E353A" stroke-linecap="round" stroke-linejoin="round"></line>
                    <line x1="227.78" y1="124.73" x2="229.77" y2="136.29" id="Path" stroke="#2E353A" stroke-linecap="round" stroke-linejoin="round"></line>
                    <path d="M175.3,157.17 C175.3,157.17 174.8,165.82 175.63,169.17" id="Path" stroke="#2E353A" stroke-linecap="round" stroke-linejoin="round"></path>
                    <path d="M212.78,132.86 C212.78,132.86 214.83,138.29 214.33,141.86" id="Path" stroke="#2E353A" stroke-width="0.75" stroke-linecap="round" stroke-linejoin="round"></path>
                    <path d="M229.55,138.47 C229.55,138.47 230.94,141.27 230.11,146.37" id="Path" stroke="#2E353A" stroke-width="0.75" stroke-linecap="round" stroke-linejoin="round"></path>
                    <path d="M198,221.33 C198,221.33 200.67,210.67 215.33,202 C229.99,193.33 252,196.67 252,196.67 L255.33,205.33 C255.33,205.33 237.33,204.67 224,212 C210.67,219.33 204,228 204,228 L198,221.33 Z" id="Path" stroke="#2E353A" fill="#FFFFFF" fill-rule="nonzero" stroke-linecap="round" stroke-linejoin="round"></path>
                    <path d="M297.25,273.33 L257.69,202.61 C257.69,202.61 242.69,198.67 224.69,206 C206.69,213.33 199.35,227.33 199.35,227.33 L206.92,273.33 L297.25,273.33 Z" id="Path" stroke="#1B212B" fill="#1B212B" fill-rule="nonzero" stroke-linecap="round" stroke-linejoin="round"></path>
                    <path d="M207.94,229.47 C208.44,231.62 207.84,233.6 206.58,233.89 C205.32,234.18 203.9,232.68 203.4,230.53 C202.9,228.38 203.5,226.4 204.75,226.11 C206,225.82 207.43,227.32 207.94,229.47 Z" id="Path" fill="#FFFFFF" fill-rule="nonzero"></path>
                </g>
            </g>
        </g>
    </g>
</svg>