<?xml version="1.0" encoding="UTF-8"?>
<svg width="164px" height="90px" viewBox="0 0 164 90" version="1.1" xmlns="http://www.w3.org/2000/svg" xmlns:xlink="http://www.w3.org/1999/xlink">
    <title>Group 6</title>
    <defs>
        <linearGradient x1="50%" y1="0%" x2="50%" y2="100%" id="linearGradient-1">
            <stop stop-color="#F7DC18" offset="0%"></stop>
            <stop stop-color="#ECB60A" offset="100%"></stop>
        </linearGradient>
        <path d="M9.5325,14.473 L9.5325,9.3275 L15.0265,0.123 L11.0905,0.123 L7.6875,5.822 L4.2845,0.123 L0,0.123 L5.4735,9.266 L5.4735,14.473 L9.5325,14.473 Z M19.906384,14.473 L19.906384,9.553 L26.240884,9.553 L26.240884,6.4165 L19.906384,6.4165 L19.906384,3.2595 L27.101884,3.2595 L27.101884,0.123 L15.847384,0.123 L15.847384,14.473 L19.906384,14.473 Z M35.651268,14.473 C37.2229347,14.473 38.6169347,14.1791667 39.833268,13.5915 C41.0496013,13.0038333 41.9926013,12.1701667 42.662268,11.0905 C43.3319347,10.0108333 43.666768,8.74666667 43.666768,7.298 C43.666768,5.84933333 43.3319347,4.58516667 42.662268,3.5055 C41.9926013,2.42583333 41.0496013,1.59216667 39.833268,1.0045 C38.6169347,0.416833333 37.2229347,0.123 35.651268,0.123 L35.651268,0.123 L28.865768,0.123 L28.865768,14.473 L35.651268,14.473 Z M35.487268,11.234 L32.924768,11.234 L32.924768,3.362 L35.487268,3.362 C36.717268,3.362 37.7046847,3.7105 38.449518,4.4075 C39.1943513,5.1045 39.566768,6.068 39.566768,7.298 C39.566768,8.528 39.1943513,9.4915 38.449518,10.1885 C37.7046847,10.8855 36.717268,11.234 35.487268,11.234 L35.487268,11.234 Z M49.715152,14.473 L49.715152,9.553 L56.049652,9.553 L56.049652,6.4165 L49.715152,6.4165 L49.715152,3.2595 L56.910652,3.2595 L56.910652,0.123 L45.656152,0.123 L45.656152,14.473 L49.715152,14.473 Z M62.733536,14.473 L62.733536,0.123 L58.674536,0.123 L58.674536,14.473 L62.733536,14.473 Z M66.93692,14.6575 C67.6065867,14.6575 68.1635033,14.4388333 68.60767,14.0015 C69.0518367,13.5641667 69.27392,13.0106667 69.27392,12.341 C69.27392,11.6576667 69.0552533,11.1041667 68.61792,10.6805 C68.1805867,10.2568333 67.6202533,10.045 66.93692,10.045 C66.2672533,10.045 65.7103367,10.2568333 65.26617,10.6805 C64.8220033,11.1041667 64.59992,11.6576667 64.59992,12.341 C64.59992,13.0106667 64.82542,13.5641667 65.27642,14.0015 C65.72742,14.4388333 66.28092,14.6575 66.93692,14.6575 Z M73.559304,14.473 L73.559304,8.3845 L80.980304,8.3845 L80.980304,7.0725 L73.559304,7.0725 L73.559304,1.435 L81.882304,1.435 L81.882304,0.123 L72.042304,0.123 L72.042304,14.473 L73.559304,14.473 Z M86.393188,14.473 L86.393188,0.123 L84.876188,0.123 L84.876188,14.473 L86.393188,14.473 Z M92.441572,14.473 L92.441572,2.829 L101.666572,14.473 L102.917072,14.473 L102.917072,0.123 L101.420572,0.123 L101.420572,11.767 L92.175072,0.123 L90.924572,0.123 L90.924572,14.473 L92.441572,14.473 Z M106.730956,14.473 L108.452956,10.6395 L116.447956,10.6395 L118.169956,14.473 L119.768956,14.473 L113.208956,0.123 L111.712456,0.123 L105.152456,14.473 L106.730956,14.473 Z M115.894456,9.4095 L109.006456,9.4095 L112.450456,1.7015 L115.894456,9.4095 Z M123.52134,14.473 L123.52134,2.829 L132.74634,14.473 L133.99684,14.473 L133.99684,0.123 L132.50034,0.123 L132.50034,11.767 L123.25484,0.123 L122.00434,0.123 L122.00434,14.473 L123.52134,14.473 Z M144.760224,14.596 C145.826224,14.596 146.813641,14.4149167 147.722474,14.05275 C148.631307,13.6905833 149.400057,13.1678333 150.028724,12.4845 L150.028724,12.4845 L149.065224,11.521 C147.958224,12.669 146.543724,13.243 144.821724,13.243 C143.687391,13.243 142.655557,12.9833333 141.726224,12.464 C140.796891,11.9446667 140.069141,11.234 139.542974,10.332 C139.016807,9.43 138.753724,8.41866667 138.753724,7.298 C138.753724,6.17733333 139.016807,5.166 139.542974,4.264 C140.069141,3.362 140.796891,2.65133333 141.726224,2.132 C142.655557,1.61266667 143.687391,1.353 144.821724,1.353 C146.530057,1.353 147.944557,1.92016667 149.065224,3.0545 L149.065224,3.0545 L150.028724,2.091 C149.400057,1.40766667 148.634724,0.888333333 147.732724,0.533 C146.830724,0.177666667 145.846724,0 144.780724,0 C143.359391,0 142.074724,0.314333333 140.926724,0.943 C139.778724,1.57166667 138.880141,2.44291667 138.230974,3.55675 C137.581807,4.67058333 137.257224,5.91766667 137.257224,7.298 C137.257224,8.67833333 137.581807,9.92541667 138.230974,11.03925 C138.880141,12.1530833 139.775307,13.0243333 140.916474,13.653 C142.057641,14.2816667 143.338891,14.596 144.760224,14.596 Z M163.272608,14.473 L163.272608,13.161 L154.642108,13.161 L154.642108,7.831 L162.063108,7.831 L162.063108,6.5395 L154.642108,6.5395 L154.642108,1.435 L162.965108,1.435 L162.965108,0.123 L153.125108,0.123 L153.125108,14.473 L163.272608,14.473 Z" id="path-2"></path>
    </defs>
    <g id="Page-1" stroke="none" stroke-width="1" fill="none" fill-rule="evenodd">
        <g id="Desktop-HD" transform="translate(-635.000000, -196.000000)">
            <g id="Group-6" transform="translate(635.000000, 196.000000)">
                <g id="USDC" transform="translate(52.000000, 0.000000)">
                    <circle id="Oval" fill="#F1C710" cx="30" cy="30" r="30"></circle>
                    <g id="Group" transform="translate(30.000000, 30.500000) scale(-1, 1) rotate(-180.000000) translate(-30.000000, -30.500000) translate(17.000000, 10.000000)" fill="#FFFFFF" fill-rule="nonzero">
                        <path d="M10.1140155,40.5012967 C8.02391078,40.1127982 6.20446712,39.1564942 4.70831304,37.6473269 C3.06179172,35.9887372 2.24229024,34.307734 1.9114823,31.9095029 C1.76863342,30.8859587 1.76863342,30.8859587 1.91900066,29.5635696 C2.02425773,28.5848522 2.20469843,27.8676242 2.50543291,27.2251075 C2.5881349,27.0458005 2.65580016,26.8739646 2.65580016,26.8515512 C2.65580016,26.7095998 3.07682844,25.9550162 3.53544854,25.282615 C4.26472967,24.2142441 4.85868029,23.6240252 6.37738945,22.5033564 C7.0841155,21.9803777 7.72317629,21.5022257 7.79084155,21.4499278 C7.85850681,21.3976299 8.08405767,21.2332652 8.30209018,21.0913138 C8.52012268,20.9418913 8.84341226,20.7102864 9.01633459,20.5608639 C9.19677528,20.4189125 9.36217925,20.3068457 9.3922527,20.3068457 C9.42232615,20.3068457 9.44488123,21.0763715 9.44488123,22.0177333 C9.44488123,24.0125237 9.60276684,23.6763231 8.14420457,24.7148094 C6.69316066,25.7458247 5.98643462,26.5228217 5.34737383,27.8078552 C4.8962721,28.7268036 4.74590485,29.4589739 4.74590485,30.8187186 C4.74590485,32.2008768 4.88123537,32.7985668 5.42255745,33.9117644 C6.06161824,35.2266824 7.17433585,36.3772357 8.42238397,37.0048102 C9.57269339,37.5875579 10.5876723,37.8266339 11.8507571,37.8191628 C15.2490569,37.8042206 18.1887365,35.323807 18.7300586,32.0066275 C18.8804258,31.0727369 18.8653891,30.0491927 18.6924668,29.2049556 C18.5120261,28.3607185 18.3391037,27.912451 18.1812181,27.912451 C18.0609243,27.912451 17.9932591,28.091758 17.6549328,29.3618492 C17.1060923,31.3939952 16.9857985,31.7750226 16.8429496,31.8646761 C16.7151375,31.9468585 16.143742,31.8422628 15.2866487,31.5807734 C14.2265596,31.259515 14.1739311,31.199746 14.3694085,30.5572292 C14.4370737,30.3330955 14.5648859,29.884828 14.6551062,29.5635696 C15.0385427,28.1814115 15.1287631,27.8676242 15.2866487,27.3670588 C15.3618323,27.1279828 15.542273,26.5078795 15.6851219,25.9923718 C15.8204524,25.4693931 16.0008931,24.8567608 16.0760767,24.6176848 C16.3016276,23.9228702 16.5346968,23.1085176 16.5873253,22.8395571 C16.6549906,22.5033564 16.8203946,22.3763473 17.0459454,22.4809431 C17.2339045,22.5705966 17.6098226,22.7050768 18.9556094,23.1906999 C19.4367846,23.3625358 20.1284739,23.6165541 20.4968737,23.7585054 C20.8652734,23.8929857 22.1208399,24.3263109 23.2786677,24.7222806 C25.3386989,25.4170952 25.3913275,25.4395086 25.3913275,25.641229 C25.3913275,25.760767 25.3236622,26.0222563 25.2409602,26.2314478 C25.1507399,26.4481105 24.9702992,26.9337336 24.8274503,27.314761 C24.6846014,27.6957883 24.5191975,28.0245178 24.4665689,28.0469312 C24.3688302,28.0842868 24.0906508,27.9946333 22.0456563,27.254992 C21.6171097,27.0980983 21.1960814,26.9710892 21.1133794,26.9710892 C20.9329387,26.9710892 20.9329387,26.9412047 21.2336732,27.792913 C21.8802523,29.6382809 21.8125871,32.1635211 21.0532325,34.2180805 C20.481837,35.7571323 19.4518213,37.1990594 18.1210712,38.3122571 C17.3316432,38.9771872 17.1436841,39.0967252 16.1136685,39.5898194 C15.376869,39.9484334 14.8355469,40.1576249 14.0611556,40.3742876 C13.1589522,40.6283058 11.1440311,40.695546 10.1140155,40.5012967 Z" id="Path"></path>
                        <path d="M15.90734,19.4444047 C15.877099,19.3775854 15.8619785,18.6351492 15.8619785,17.8036206 L15.8619785,16.2816264 L16.081226,16.0737442 C16.2021901,15.9549545 16.5877634,15.6654043 16.9355353,15.4204004 C19.2338543,13.8018894 20.2998509,11.3295768 19.8689161,8.61968456 C19.6194275,7.07541721 19.1280107,6.11025012 17.9637307,4.92235216 C16.9279751,3.853244 15.8317374,3.25187066 14.2743239,2.88065255 C13.7451057,2.75443839 11.802119,2.74701403 11.4089855,2.86580382 C11.2577803,2.91035 10.9704904,2.99944234 10.7814839,3.05141288 C9.79108988,3.31868992 8.74777403,3.93491199 7.89346468,4.74416747 C7.26596312,5.33811645 6.85014884,5.90236798 6.41165377,6.763594 C5.96559845,7.63224438 5.84463429,8.15194974 5.79927273,9.31757461 C5.76903169,10.2381955 5.78415221,10.3792584 5.95047793,10.8766907 C6.24532806,11.7007949 6.75942572,12.7773274 6.86526936,12.7847518 C6.91819117,12.7847518 6.97867325,12.6288402 7.00135403,12.4135337 C7.17524,10.9880561 7.22060156,10.6762329 7.2886439,10.3272879 C7.3264452,10.1119814 7.37936702,9.77788507 7.4020478,9.59227601 C7.53813247,8.50831913 7.51545169,8.57513839 7.81030182,8.57513839 C7.96150702,8.57513839 8.24123663,8.60483584 8.42268286,8.64938201 C8.6041291,8.68650382 9.0728652,8.76074744 9.46599871,8.81271798 C10.3127478,8.93150777 10.4110312,8.98347831 10.3429888,9.31015025 C10.2673862,9.64424655 10.1691029,10.3644097 9.98009637,11.8492821 C9.79865014,13.3044571 9.62476416,14.5591744 9.43575767,15.7841941 C9.39039611,16.0440468 9.32235377,16.519206 9.28455247,16.8384536 C9.1484678,17.8630155 9.11822676,17.9298348 8.86117793,17.9298348 C8.61924962,17.9298348 7.30376442,17.6774065 5.6178265,17.3061884 C4.8088787,17.1280037 2.90369325,16.7419368 2.56348156,16.682542 C2.34423403,16.6454201 1.92085948,16.5637522 1.62600935,16.4969329 C1.32359896,16.4226893 0.983387272,16.3707187 0.869983376,16.3707187 C0.650735843,16.3707187 0.106397141,16.2073828 0.00811376469,16.1108661 C-0.0372477938,16.0663199 0.113957401,15.2125182 0.302963895,14.4923551 C0.348325453,14.3364435 0.378566492,14.1062883 0.378566492,13.9800741 C0.378566492,13.7053727 0.590253765,13.3861251 0.718778181,13.4603687 C0.771699999,13.4900662 0.953146233,13.5420367 1.12703221,13.5717342 C1.30847844,13.608856 2.00402234,13.7424945 2.68444572,13.876133 C3.35730883,14.0023472 3.99237065,14.1062883 4.08309377,14.0914395 C4.25697974,14.0691664 4.24941948,14.0468934 3.90920779,13.3712764 C3.7202013,12.9852096 3.56143585,12.6214158 3.55387559,12.5694453 C3.55387559,12.5174747 3.51607429,12.4135337 3.47827299,12.3318657 C3.36486909,12.1314079 3.09269974,11.3147281 2.99441636,10.8766907 C2.79784961,9.97834285 2.94149455,7.89952142 3.28170624,6.8823838 C3.65971922,5.73903201 4.24941948,4.60310459 4.89204156,3.78642474 C5.59514572,2.88807691 6.7443052,1.87093928 7.60617481,1.38835574 C9.45843845,0.348945025 10.6756403,0.00742436224 12.5581449,-1.40878354e-12 C15.5217668,-1.40878354e-12 17.7898447,0.853801657 19.7857533,2.73958967 C21.3658476,4.23188648 22.4772057,6.39237589 22.7720559,8.56028966 C22.8703392,9.27302844 22.8249777,10.9732074 22.6964533,11.4632153 C22.658652,11.6117025 22.5830494,11.9235258 22.5301276,12.1611053 C22.4772057,12.3986849 22.4091634,12.6585376 22.3713621,12.74763 C22.3335608,12.8292979 22.2579582,13.0223314 22.2050364,13.178243 C21.8119029,14.2473511 21.0256359,15.4797953 20.156206,16.3855675 C19.8008738,16.7567856 18.9994862,17.4175538 18.1678577,18.0263515 C17.3967112,18.590603 16.6104442,19.1622789 16.4214377,19.3107662 C16.0207439,19.6003163 15.9753824,19.615165 15.90734,19.4444047 Z" id="Path"></path>
                    </g>
                </g>
                <g id="Group-5" transform="translate(0.000000, 75.000000)" fill-rule="nonzero">
                    <g id="YFDFI.FINANCE">
                        <use fill="#FFFFFF" xlink:href="#path-2"></use>
                        <use fill="url(#linearGradient-1)" xlink:href="#path-2"></use>
                    </g>
                </g>
            </g>
        </g>
    </g>
</svg>