<?xml version="1.0" encoding="UTF-8"?>
<svg width="193px" height="23px" viewBox="0 0 193 23" version="1.1" xmlns="http://www.w3.org/2000/svg" xmlns:xlink="http://www.w3.org/1999/xlink">
    <title>Group 5</title>
    <g id="Page-1" stroke="none" stroke-width="1" fill="none" fill-rule="evenodd">
        <g id="Desktop-HD" transform="translate(-160.000000, -191.000000)">
            <g id="Group-5" transform="translate(160.000000, 191.000000)">
                <path d="M38.5325,19.473 L38.5325,14.3275 L44.0265,5.123 L40.0905,5.123 L36.6875,10.822 L33.2845,5.123 L29,5.123 L34.4735,14.266 L34.4735,19.473 L38.5325,19.473 Z M48.906384,19.473 L48.906384,14.553 L55.240884,14.553 L55.240884,11.4165 L48.906384,11.4165 L48.906384,8.2595 L56.101884,8.2595 L56.101884,5.123 L44.847384,5.123 L44.847384,19.473 L48.906384,19.473 Z M64.651268,19.473 C66.2229347,19.473 67.6169347,19.1791667 68.833268,18.5915 C70.0496013,18.0038333 70.9926013,17.1701667 71.662268,16.0905 C72.3319347,15.0108333 72.666768,13.7466667 72.666768,12.298 C72.666768,10.8493333 72.3319347,9.58516667 71.662268,8.5055 C70.9926013,7.42583333 70.0496013,6.59216667 68.833268,6.0045 C67.6169347,5.41683333 66.2229347,5.123 64.651268,5.123 L64.651268,5.123 L57.865768,5.123 L57.865768,19.473 L64.651268,19.473 Z M64.487268,16.234 L61.924768,16.234 L61.924768,8.362 L64.487268,8.362 C65.717268,8.362 66.7046847,8.7105 67.449518,9.4075 C68.1943513,10.1045 68.566768,11.068 68.566768,12.298 C68.566768,13.528 68.1943513,14.4915 67.449518,15.1885 C66.7046847,15.8855 65.717268,16.234 64.487268,16.234 L64.487268,16.234 Z M78.715152,19.473 L78.715152,14.553 L85.049652,14.553 L85.049652,11.4165 L78.715152,11.4165 L78.715152,8.2595 L85.910652,8.2595 L85.910652,5.123 L74.656152,5.123 L74.656152,19.473 L78.715152,19.473 Z M91.733536,19.473 L91.733536,5.123 L87.674536,5.123 L87.674536,19.473 L91.733536,19.473 Z M95.93692,19.6575 C96.6065867,19.6575 97.1635033,19.4388333 97.60767,19.0015 C98.0518367,18.5641667 98.27392,18.0106667 98.27392,17.341 C98.27392,16.6576667 98.0552533,16.1041667 97.61792,15.6805 C97.1805867,15.2568333 96.6202533,15.045 95.93692,15.045 C95.2672533,15.045 94.7103367,15.2568333 94.26617,15.6805 C93.8220033,16.1041667 93.59992,16.6576667 93.59992,17.341 C93.59992,18.0106667 93.82542,18.5641667 94.27642,19.0015 C94.72742,19.4388333 95.28092,19.6575 95.93692,19.6575 Z M102.559304,19.473 L102.559304,13.3845 L109.980304,13.3845 L109.980304,12.0725 L102.559304,12.0725 L102.559304,6.435 L110.882304,6.435 L110.882304,5.123 L101.042304,5.123 L101.042304,19.473 L102.559304,19.473 Z M115.393188,19.473 L115.393188,5.123 L113.876188,5.123 L113.876188,19.473 L115.393188,19.473 Z M121.441572,19.473 L121.441572,7.829 L130.666572,19.473 L131.917072,19.473 L131.917072,5.123 L130.420572,5.123 L130.420572,16.767 L121.175072,5.123 L119.924572,5.123 L119.924572,19.473 L121.441572,19.473 Z M135.730956,19.473 L137.452956,15.6395 L145.447956,15.6395 L147.169956,19.473 L148.768956,19.473 L142.208956,5.123 L140.712456,5.123 L134.152456,19.473 L135.730956,19.473 Z M144.894456,14.4095 L138.006456,14.4095 L141.450456,6.7015 L144.894456,14.4095 Z M152.52134,19.473 L152.52134,7.829 L161.74634,19.473 L162.99684,19.473 L162.99684,5.123 L161.50034,5.123 L161.50034,16.767 L152.25484,5.123 L151.00434,5.123 L151.00434,19.473 L152.52134,19.473 Z M173.760224,19.596 C174.826224,19.596 175.813641,19.4149167 176.722474,19.05275 C177.631307,18.6905833 178.400057,18.1678333 179.028724,17.4845 L179.028724,17.4845 L178.065224,16.521 C176.958224,17.669 175.543724,18.243 173.821724,18.243 C172.687391,18.243 171.655557,17.9833333 170.726224,17.464 C169.796891,16.9446667 169.069141,16.234 168.542974,15.332 C168.016807,14.43 167.753724,13.4186667 167.753724,12.298 C167.753724,11.1773333 168.016807,10.166 168.542974,9.264 C169.069141,8.362 169.796891,7.65133333 170.726224,7.132 C171.655557,6.61266667 172.687391,6.353 173.821724,6.353 C175.530057,6.353 176.944557,6.92016667 178.065224,8.0545 L178.065224,8.0545 L179.028724,7.091 C178.400057,6.40766667 177.634724,5.88833333 176.732724,5.533 C175.830724,5.17766667 174.846724,5 173.780724,5 C172.359391,5 171.074724,5.31433333 169.926724,5.943 C168.778724,6.57166667 167.880141,7.44291667 167.230974,8.55675 C166.581807,9.67058333 166.257224,10.9176667 166.257224,12.298 C166.257224,13.6783333 166.581807,14.9254167 167.230974,16.03925 C167.880141,17.1530833 168.775307,18.0243333 169.916474,18.653 C171.057641,19.2816667 172.338891,19.596 173.760224,19.596 Z M192.272608,19.473 L192.272608,18.161 L183.642108,18.161 L183.642108,12.831 L191.063108,12.831 L191.063108,11.5395 L183.642108,11.5395 L183.642108,6.435 L191.965108,6.435 L191.965108,5.123 L182.125108,5.123 L182.125108,19.473 L192.272608,19.473 Z" id="YFDFI.FINANCE" fill="#FFFFFF" fill-rule="nonzero"></path>
                <g id="USDC">
                    <circle id="Oval" fill="#FFFFFF" cx="11.5" cy="11.5" r="11.5"></circle>
                    <g id="Group" transform="translate(12.000000, 11.500000) scale(-1, 1) rotate(-180.000000) translate(-12.000000, -11.500000) translate(7.000000, 3.500000)" fill="#000000" fill-rule="nonzero">
                        <path d="M3.89000595,15.8053841 C3.08611953,15.6537749 2.38633351,15.2805831 1.81088963,14.6916398 C1.1776122,14.0443852 0.862419322,13.388384 0.7351855,12.4524889 C0.680243622,12.0530571 0.680243622,12.0530571 0.738077178,11.5370028 C0.778560666,11.1550643 0.847960933,10.8751704 0.963628044,10.6244322 C0.995436499,10.5544587 1.0214616,10.4874008 1.0214616,10.4786541 C1.0214616,10.4232585 1.18339555,10.1287868 1.3597879,9.86638632 C1.64028064,9.4494611 1.86872319,9.21913178 2.4528421,8.78179763 C2.72465981,8.57770836 2.97045242,8.39111246 2.99647752,8.37070353 C3.02250262,8.3502946 3.10925295,8.28615226 3.19311161,8.2307566 C3.27697026,8.17244538 3.40131241,8.08206299 3.467821,8.02375177 C3.53722126,7.96835611 3.60083817,7.9246227 3.61240488,7.9246227 C3.6239716,7.9246227 3.63264663,8.22492548 3.63264663,8.59228617 C3.63264663,9.37074095 3.69337186,9.23954071 3.13238637,9.64480369 C2.57429256,10.0471511 2.30247485,10.3503694 2.05668224,10.8518459 C1.88318158,11.2104599 1.82534802,11.4961849 1.82534802,12.026817 C1.82534802,12.5661958 1.87739822,12.7994407 2.08559902,13.2338593 C2.33139163,13.746998 2.75935994,14.1959944 3.23937845,14.4409015 C3.68180515,14.6683153 4.07218165,14.7616132 4.55798352,14.7586977 C5.86502187,14.7528666 6.99566788,13.7849003 7.20386868,12.4903912 C7.26170223,12.1259461 7.25591888,11.7265142 7.18941029,11.3970558 C7.12001002,11.0675975 7.05350143,10.8926638 6.9927762,10.8926638 C6.94650936,10.8926638 6.92048426,10.9626373 6.79035876,11.4582826 C6.57926628,12.2513152 6.53299943,12.4000088 6.47805756,12.4349956 C6.42889903,12.4670667 6.20913152,12.4262489 5.87948026,12.3242042 C5.47175369,12.1988351 5.45151195,12.1755106 5.52669557,11.9247724 C5.55272067,11.8373056 5.60187919,11.6623719 5.63657933,11.5370028 C5.78405489,10.997624 5.81875502,10.8751704 5.87948026,10.6798278 C5.90839704,10.5865299 5.9777973,10.3445383 6.03273918,10.1433646 C6.08478938,9.93927535 6.15418965,9.70019935 6.18310642,9.60690139 C6.26985676,9.33575422 6.35949877,9.01795807 6.37974051,8.91299788 C6.40576561,8.78179763 6.46938252,8.73223309 6.55613286,8.77305095 C6.6284248,8.80803768 6.77300869,8.86051778 7.29061901,9.05002924 C7.47568639,9.11708715 7.74172074,9.21621622 7.88341295,9.27161188 C8.02510517,9.32409198 8.50801535,9.49319451 8.95333373,9.64771925 C9.74565344,9.91886642 9.76589518,9.9276131 9.76589518,10.0063333 C9.76589518,10.0529822 9.73987008,10.1550269 9.70806163,10.2366626 C9.6733615,10.3212138 9.60396123,10.5107253 9.54901935,10.6594189 C9.49407747,10.8081125 9.43046056,10.9363972 9.41021882,10.9451439 C9.37262701,10.9597217 9.26563493,10.924735 8.47909858,10.6360944 C8.31427294,10.5748676 8.15233899,10.5253031 8.12053053,10.5253031 C8.05113027,10.5253031 8.05113027,10.5136409 8.16679738,10.8460148 C8.41548166,11.5661584 8.38945656,12.551618 8.09739711,13.3533973 C7.8776296,13.9540028 7.48146974,14.5167061 6.96964278,14.9511247 C6.66601661,15.2106096 6.59372467,15.2572586 6.19756481,15.4496856 C5.91418039,15.5896326 5.70597959,15.6712683 5.40813678,15.7558195 C5.06113545,15.8549486 4.28616581,15.8811887 3.89000595,15.8053841 Z" id="Path"></path>
                        <path d="M6.1182077,7.58806037 C6.10657653,7.56198456 6.10076094,7.27225335 6.10076094,6.9477544 L6.10076094,6.35380542 L6.18508692,6.27268068 C6.23161159,6.22632369 6.379909,6.11332852 6.51366744,6.01771722 C7.39763627,5.38610318 7.80763497,4.42129825 7.64189082,3.36377934 C7.54593367,2.76113842 7.35692718,2.38448785 6.90912718,1.92091792 C6.51075965,1.50370498 6.08912978,1.2690227 5.49012458,1.12415709 C5.28657913,1.07490279 4.53927653,1.07200547 4.38807133,1.11836247 C4.32991549,1.13574634 4.21941938,1.17051409 4.14672458,1.19079527 C3.7658038,1.29509851 3.36452847,1.53557541 3.03594795,1.85138243 C2.7946012,2.0831674 2.63467263,2.30336311 2.46602068,2.63945132 C2.29446094,2.97843683 2.24793627,3.18124868 2.23048951,3.63612668 C2.21885834,3.99539338 2.22467393,4.05044231 2.28864536,4.24456222 C2.40204925,4.56616386 2.59977912,4.98627411 2.64048821,4.98917142 C2.66084276,4.98917142 2.6841051,4.92832787 2.69282847,4.84430582 C2.75970769,4.2880219 2.77715445,4.16633479 2.80332458,4.03016112 C2.81786354,3.94613907 2.83821808,3.81576003 2.84694146,3.74332722 C2.89928172,3.32031966 2.89055834,3.34639547 3.00396224,3.34639547 C3.06211808,3.34639547 3.1697064,3.35798472 3.23949341,3.37536859 C3.30928042,3.38985515 3.48956354,3.41882827 3.64076873,3.43910945 C3.96644146,3.48546645 4.00424276,3.50574763 3.97807263,3.63322937 C3.94899471,3.76360841 3.91119341,4.04464768 3.8384986,4.6241101 C3.76871159,5.19198327 3.70183237,5.68162901 3.62913757,6.15968551 C3.61169081,6.26109143 3.58552068,6.44651941 3.57098172,6.57110383 C3.51864146,6.9709329 3.50701029,6.99700871 3.40814536,6.99700871 C3.31509601,6.99700871 2.80914016,6.89850009 2.1607025,6.75363449 C1.84956873,6.684099 1.1168051,6.53343877 0.985954446,6.51026027 C0.901628472,6.49577371 0.738792108,6.46390328 0.625388212,6.43782747 C0.509076523,6.40885435 0.378225874,6.38857317 0.334608991,6.38857317 C0.250283017,6.38857317 0.0409219775,6.3248323 0.00312067873,6.28716724 C-0.0143260745,6.26978337 0.0438297697,5.93659248 0.116524575,5.65555321 C0.133971328,5.59470965 0.145602497,5.50489298 0.145602497,5.45563867 C0.145602497,5.34843812 0.227020679,5.2238537 0.276453147,5.25282683 C0.296807692,5.26441607 0.366594705,5.28469726 0.433473926,5.29628651 C0.503260939,5.31077307 0.770777822,5.36292468 1.03247912,5.4150763 C1.29127263,5.46433061 1.53552717,5.50489298 1.57042068,5.49909835 C1.6372999,5.49040642 1.63439211,5.48171448 1.50354146,5.21805908 C1.43084665,5.06739885 1.36978302,4.92543056 1.36687523,4.90514937 C1.36687523,4.88486819 1.35233626,4.84430582 1.3377973,4.81243539 C1.29418042,4.73420796 1.1894999,4.41550363 1.1516986,4.24456222 C1.076096,3.89398745 1.13134406,3.08274007 1.26219471,2.68580831 C1.40758432,2.23962225 1.63439211,1.7963335 1.88155445,1.47762917 C2.15197912,1.1270544 2.59396354,0.730122648 2.92545185,0.541797361 C3.63786094,0.136173668 4.10601549,0.00289731209 4.83005575,-5.49769185e-13 C5.96991029,-5.49769185e-13 6.84224796,0.333190891 7.6099051,1.06910816 C8.21763367,1.65146789 8.64507913,2.49458571 8.75848302,3.34060084 C8.79628432,3.6187428 8.77883757,4.28222727 8.7294051,4.47344987 C8.71486614,4.53139611 8.68578822,4.65308322 8.66543367,4.74579721 C8.64507913,4.8385112 8.618909,4.93991712 8.60437004,4.97468486 C8.58983108,5.0065553 8.56075315,5.08188541 8.54039861,5.14272897 C8.38919341,5.55994191 8.08678302,6.04089571 7.75238692,6.39436779 C7.61572069,6.53923339 7.30749471,6.79709417 6.98763757,7.03467376 C6.69104276,7.25486948 6.38863237,7.47796251 6.31593757,7.53590875 C6.16182458,7.64890393 6.14437783,7.65469855 6.1182077,7.58806037 Z" id="Path"></path>
                    </g>
                </g>
            </g>
        </g>
    </g>
</svg>